<?xml version="1.0" encoding="UTF-8" standalone="no"?>
<!-- Created with Inkscape (http://www.inkscape.org/) -->

<svg
   xmlns:dc="http://purl.org/dc/elements/1.1/"
   xmlns:cc="http://creativecommons.org/ns#"
   xmlns:rdf="http://www.w3.org/1999/02/22-rdf-syntax-ns#"
   xmlns:svg="http://www.w3.org/2000/svg"
   xmlns="http://www.w3.org/2000/svg"
   xmlns:sodipodi="http://sodipodi.sourceforge.net/DTD/sodipodi-0.dtd"
   xmlns:inkscape="http://www.inkscape.org/namespaces/inkscape"
   width="2302.8569"
   height="2302.8569"
   viewBox="0 0 609.29755 609.29758"
   version="1.1"
   id="svg4938"
   inkscape:version="0.92.3 (2405546, 2018-03-11)"
   sodipodi:docname="LIGHTNING BOLT SVG.svg">
  <defs
     id="defs4932" />
  <sodipodi:namedview
     id="base"
     pagecolor="#ffffff"
     bordercolor="#666666"
     borderopacity="1.0"
     inkscape:pageopacity="0.0"
     inkscape:pageshadow="2"
     inkscape:zoom="0.0875"
     inkscape:cx="715.91092"
     inkscape:cy="1127.0354"
     inkscape:document-units="mm"
     inkscape:current-layer="layer1"
     showgrid="false"
     units="px"
     inkscape:window-width="1440"
     inkscape:window-height="838"
     inkscape:window-x="-8"
     inkscape:window-y="-8"
     inkscape:window-maximized="1" />
  <metadata
     id="metadata4935">
    <rdf:RDF>
      <cc:Work
         rdf:about="">
        <dc:format>image/svg+xml</dc:format>
        <dc:type
           rdf:resource="http://purl.org/dc/dcmitype/StillImage" />
        <dc:title></dc:title>
      </cc:Work>
    </rdf:RDF>
  </metadata>
  <g
     inkscape:label="Layer 1"
     inkscape:groupmode="layer"
     id="layer1"
     transform="translate(0,312.2976)">
    <rect
       style="opacity:1;fill:none;fill-opacity:1;stroke:none;stroke-width:53.87700653;stroke-linecap:round;stroke-linejoin:round;stroke-miterlimit:4;stroke-dasharray:none;stroke-dashoffset:0;stroke-opacity:1"
       id="rect9415"
       width="609.29761"
       height="609.29761"
       x="-2.1870932e-005"
       y="-312.29761"
       inkscape:export-xdpi="96"
       inkscape:export-ydpi="96" />
    <g
       id="g9473"
       transform="matrix(2.1550802,0,0,2.1550802,2870.9614,-385.34728)"
       inkscape:export-xdpi="96"
       inkscape:export-ydpi="96">
      <path
         inkscape:connector-curvature="0"
         id="path9443"
         d="m -1184.6241,96.560567 -40.4435,78.430053 h 27.5923 l -41.0517,79.24625 93.5443,-103.70057 h -32.0723 l 33.9432,-54.255713 z"
         style="fill:#fff6d5;stroke:none;stroke-width:6;stroke-linecap:round;stroke-linejoin:round;stroke-miterlimit:4;stroke-dasharray:none;stroke-opacity:1" />
      <path
         sodipodi:nodetypes="cccccccc"
         inkscape:connector-curvature="0"
         id="path9449"
         d="m -1158.7976,104.7849 -30.2286,0.20412 -36.0412,70.00178 h 27.5921 l -29.036,56.05134 62.4408,-73.13505 -28.2922,0.28348 z"
         style="fill:#ffcc00;stroke:none;stroke-width:6;stroke-linecap:round;stroke-linejoin:round;stroke-miterlimit:4;stroke-dasharray:none;stroke-opacity:1" />
      <path
         id="path9454"
         d="m -1172.7672,104.87932 -16.1164,0.10852 -9.1007,18.00613 -4.1527,7.46001 -18.5829,36.09341 -1.8376,8.44341 h 25.0822 l -27.603,53.2846 -0.9555,2.2071 12.8158,-15.00995 30.2581,-50.90127 h -22.3005 z"
         style="fill:#ffa42a;fill-opacity:1;stroke:none;stroke-width:0.26458332px;stroke-linecap:butt;stroke-linejoin:miter;stroke-opacity:1"
         inkscape:connector-curvature="0" />
      <path
         inkscape:connector-curvature="0"
         id="path9445"
         d="m -1143.1328,93.281607 -41.5117,0.2793 a 3.0003,3.0003 0 0 0 -2.6465,1.625 l -40.4434,78.429693 a 3.0003,3.0003 0 0 0 2.666,4.375 h 22.6602 l -38.7832,74.86718 a 3.0003,3.0003 0 0 0 4.8926,3.38868 l 93.5429,-103.70118 a 3.0003,3.0003 0 0 0 -2.2265,-5.00976 h -26.6563 l 31.0703,-49.664063 a 3.0003,3.0003 0 0 0 -2.5644,-4.58985 z m -5.416,6.03516 -31.0489,49.628913 a 3.0003,3.0003 0 0 0 2.543,4.58984 h 25.3262 l -73.4121,81.38281 30.3301,-58.54687 a 3.0003,3.0003 0 0 0 -2.6641,-4.38086 h -22.6699 l 37.3554,-72.441413 z"
         style="color:#000000;font-style:normal;font-variant:normal;font-weight:normal;font-stretch:normal;font-size:medium;line-height:normal;font-family:sans-serif;font-variant-ligatures:normal;font-variant-position:normal;font-variant-caps:normal;font-variant-numeric:normal;font-variant-alternates:normal;font-feature-settings:normal;text-indent:0;text-align:start;text-decoration:none;text-decoration-line:none;text-decoration-style:solid;text-decoration-color:#000000;letter-spacing:normal;word-spacing:normal;text-transform:none;writing-mode:lr-tb;direction:ltr;text-orientation:mixed;dominant-baseline:auto;baseline-shift:baseline;text-anchor:start;white-space:normal;shape-padding:0;clip-rule:nonzero;display:inline;overflow:visible;visibility:visible;opacity:1;isolation:auto;mix-blend-mode:normal;color-interpolation:sRGB;color-interpolation-filters:linearRGB;solid-color:#000000;solid-opacity:1;vector-effect:none;fill:#00001d;fill-opacity:1;fill-rule:nonzero;stroke:none;stroke-width:6;stroke-linecap:round;stroke-linejoin:round;stroke-miterlimit:4;stroke-dasharray:none;stroke-dashoffset:0;stroke-opacity:1;color-rendering:auto;image-rendering:auto;shape-rendering:auto;text-rendering:auto;enable-background:accumulate" />
    </g>
  </g>
</svg>
