<?xml version="1.0" encoding="UTF-8" standalone="no"?>
<!-- Created with Inkscape (http://www.inkscape.org/) -->

<svg
   xmlns:dc="http://purl.org/dc/elements/1.1/"
   xmlns:cc="http://creativecommons.org/ns#"
   xmlns:rdf="http://www.w3.org/1999/02/22-rdf-syntax-ns#"
   xmlns:svg="http://www.w3.org/2000/svg"
   xmlns="http://www.w3.org/2000/svg"
   xmlns:sodipodi="http://sodipodi.sourceforge.net/DTD/sodipodi-0.dtd"
   xmlns:inkscape="http://www.inkscape.org/namespaces/inkscape"
   width="940.59998mm"
   height="621.26099mm"
   viewBox="0 0 940.59998 621.26099"
   version="1.1"
   id="svg15546"
   inkscape:version="0.92.3 (2405546, 2018-03-11)"
   sodipodi:docname="FLASH GAS TEXT WIDE SVG.svg">
  <defs
     id="defs15540" />
  <sodipodi:namedview
     id="base"
     pagecolor="#ffffff"
     bordercolor="#666666"
     borderopacity="1.0"
     inkscape:pageopacity="0.0"
     inkscape:pageshadow="2"
     inkscape:zoom="0.04375"
     inkscape:cx="-2444.4451"
     inkscape:cy="842.02351"
     inkscape:document-units="mm"
     inkscape:current-layer="layer1"
     showgrid="false"
     inkscape:window-width="1440"
     inkscape:window-height="838"
     inkscape:window-x="-8"
     inkscape:window-y="-8"
     inkscape:window-maximized="1" />
  <metadata
     id="metadata15543">
    <rdf:RDF>
      <cc:Work
         rdf:about="">
        <dc:format>image/svg+xml</dc:format>
        <dc:type
           rdf:resource="http://purl.org/dc/dcmitype/StillImage" />
        <dc:title></dc:title>
      </cc:Work>
    </rdf:RDF>
  </metadata>
  <g
     inkscape:label="Layer 1"
     inkscape:groupmode="layer"
     id="layer1"
     transform="translate(0,324.261)">
    <rect
       y="-324.26089"
       x="-0.00021362305"
       height="621.2608"
       width="940.6004"
       id="rect4594"
       style="opacity:1;fill:#000014;fill-opacity:1;stroke:none;stroke-width:21.60146904;stroke-linecap:round;stroke-linejoin:round;stroke-miterlimit:4;stroke-dasharray:none;paint-order:markers fill stroke"
       inkscape:export-filename="D:\FLASH GAS\FLASH LOGO WIDE\FLASH GAS LOGO WIDE TRANSPARENT.png"
       inkscape:export-xdpi="96"
       inkscape:export-ydpi="96" />
    <g
       id="g15456"
       transform="translate(2152.2383,-3254.6983)">
      <g
         inkscape:export-ydpi="96"
         inkscape:export-xdpi="96"
         inkscape:export-filename="D:\FLASH GAS\FLASH GAS LOGO WIDE WHITE.png"
         transform="translate(0,-45.475261)"
         id="g5018">
        <path
           style="color:#000000;font-style:italic;font-variant:normal;font-weight:normal;font-stretch:normal;font-size:34.50383759px;line-height:1.25;font-family:'Hemi Head';-inkscape-font-specification:'Hemi Head, Italic';font-variant-ligatures:normal;font-variant-position:normal;font-variant-caps:normal;font-variant-numeric:normal;font-variant-alternates:normal;font-feature-settings:normal;text-indent:0;text-align:start;text-decoration:none;text-decoration-line:none;text-decoration-style:solid;text-decoration-color:#000000;letter-spacing:0px;word-spacing:0px;text-transform:none;writing-mode:lr-tb;direction:ltr;text-orientation:mixed;dominant-baseline:auto;baseline-shift:baseline;text-anchor:start;white-space:normal;shape-padding:0;clip-rule:nonzero;display:inline;overflow:visible;visibility:visible;opacity:1;isolation:auto;mix-blend-mode:normal;color-interpolation:sRGB;color-interpolation-filters:linearRGB;solid-color:#000000;solid-opacity:1;vector-effect:none;fill:#ffa500;fill-opacity:1;fill-rule:nonzero;stroke:none;stroke-width:14.78019333;stroke-linecap:round;stroke-linejoin:round;stroke-miterlimit:4;stroke-dasharray:none;stroke-dashoffset:0;stroke-opacity:1;color-rendering:auto;image-rendering:auto;shape-rendering:auto;text-rendering:auto;enable-background:accumulate"
           d="m -1657.3373,3246.2077 -23.8614,0.01 c -5.4985,2e-4 -11.8355,1.3454 -17.0364,5.7735 -4.8786,4.1477 -7.3049,9.7213 -8.3701,14.8683 -2e-4,0 0,0 0,0 l -1.8429,8.6998 a 7.3908357,7.3908357 0 0 0 -0.01,0.035 c -0.011,0.052 -0.022,0.1044 -0.032,0.1565 -0.2678,1.3496 -0.5136,3.0134 -0.5136,4.8862 0,0.2828 0.069,0.5229 0.082,0.7977 -1.0423,1.8834 -1.9095,3.8429 -2.355,5.9543 l -2.674,12.6272 c -0.01,0.046 -0.021,0.092 -0.03,0.1384 a 7.3908357,7.3908357 0 0 0 -0.01,0.032 c -0.3523,1.7621 -0.6655,3.7624 -0.6655,6.0196 0,5.3097 1.7776,11.4685 7.2002,15.9045 5.1025,4.1744 11.1028,4.7662 15.0309,4.7662 h 12.4875 c 2.2883,0 4.6441,-0.4024 6.992,-1.0332 3.0405,0.7409 6.0055,1.0286 8.8411,1.0286 h 6.6882 c 5.8113,3e-4 10.987,-3.3951 13.516,-8.4171 2.5032,4.9006 7.5775,8.4216 13.4949,8.4217 h 11.2978 c 7.127,-2e-4 13.3706,-5.063 14.8425,-12.0363 l 0.8797,-4.1675 h 4.9835 c -0.5427,8.486 6.2733,16.2034 15.0293,16.2053 h 33.1765 a 7.3908357,7.3908357 0 0 0 0.012,0 c 2.259,0 4.4508,-0.5392 6.4511,-1.4859 3.2816,1.163 6.488,1.4859 8.9778,1.4859 h 25.0495 c 3.086,0 6.4107,-0.5107 9.6691,-1.7077 2.1126,1.0827 4.4552,1.7054 6.8841,1.7077 a 7.3908357,7.3908357 0 0 0 0.01,0 h 9.3653 a 7.3908357,7.3908357 0 0 0 0.011,0 c 2.1855,0 4.2933,-0.5347 6.2339,-1.4175 1.9405,0.8828 4.0483,1.4142 6.2338,1.4175 a 7.3908357,7.3908357 0 0 0 0.011,0 h 8.8441 c 2.1328,-1e-4 4.1956,-0.4975 6.1017,-1.3385 1.8998,0.8377 3.9552,1.3359 6.0805,1.3385 a 7.3908357,7.3908357 0 0 0 0.01,0 h 9.2923 a 7.3908357,7.3908357 0 0 0 0.018,0 c 1.4017,0 2.7868,-0.2116 4.122,-0.5925 1.3404,0.3826 2.7328,0.5904 4.1402,0.5925 a 7.3908357,7.3908357 0 0 0 0.011,0 h 32.7799 c 3.1083,0 6.4844,-0.5067 9.7952,-1.729 2.1221,1.0963 4.4804,1.726 6.9252,1.729 a 7.3908357,7.3908357 0 0 0 0.01,0 h 11.2993 a 7.3908357,7.3908357 0 0 0 0.017,0 c 1.4266,0 2.8354,-0.2201 4.1919,-0.6138 1.3669,0.3976 2.7875,0.613 4.2253,0.6138 h 10.4805 c 5.4242,-5e-4 10.3222,-2.9441 13.0086,-7.4204 2.7281,4.5751 7.6717,7.4204 13.0086,7.4204 h 7.5071 a 7.3908357,7.3908357 0 0 0 0.01,0 c 2.4484,0 4.8148,-0.6211 6.9373,-1.7183 3.5117,1.3488 6.9864,1.7183 9.6403,1.7183 h 31.5917 c 7.1251,0 13.3666,-5.0635 14.8395,-12.0347 l 6.17,-29.2124 a 7.3908357,7.3908357 0 0 0 0,-0.014 c 0.4462,-2.1317 0.421,-4.3097 -0.041,-6.3918 0.8766,-1.4532 1.5554,-3.0303 1.9068,-4.7206 l 2.0815,-10.0353 c 1.92,-9.2604 -5.3972,-18.249 -14.8546,-18.2489 h -31.0706 c -3.0872,0 -6.4302,0.4994 -9.7117,1.6972 -2.1087,-1.0769 -4.4452,-1.6953 -6.8674,-1.6972 a 7.3908357,7.3908357 0 0 0 -0.01,0 h -10.5549 c -4.4977,7e-4 -8.635,2.0239 -11.4513,5.2646 -2.8472,-3.2604 -6.9433,-5.2638 -11.3663,-5.2646 h -10.6293 a 7.3908357,7.3908357 0 0 0 -0.017,0 c -1.4266,0 -2.8353,0.2202 -4.1919,0.6139 -1.3669,-0.3977 -2.7874,-0.6129 -4.2253,-0.6139 a 7.3908357,7.3908357 0 0 0 -0.01,0 h -11.2994 a 7.3908357,7.3908357 0 0 0 -0.01,0 c -2.6122,0 -5.1349,0.6848 -7.3536,1.9175 -3.6528,-1.5132 -7.3148,-1.9175 -10.1143,-1.9175 h -32.0369 a 7.3908357,7.3908357 0 0 0 -0.018,0 c -1.4018,0 -2.7868,0.2116 -4.122,0.5927 -1.3404,-0.3828 -2.7328,-0.5905 -4.1402,-0.5927 a 7.3908357,7.3908357 0 0 0 -0.011,0 h -11.7445 c -5.2396,-2e-4 -10.1319,2.7229 -12.8932,7.1759 l -1.3704,2.2107 c -2.3139,-5.5488 -7.7942,-9.386 -13.9826,-9.3866 h -12.1912 a 7.3908357,7.3908357 0 0 0 -0.018,0 c -1.3544,0 -2.6941,0.1966 -3.9883,0.5531 -1.2942,-0.3565 -2.6339,-0.5496 -3.9883,-0.5531 a 7.3908357,7.3908357 0 0 0 -0.018,0 h -10.8511 c -3.8344,-2e-4 -7.383,1.4983 -10.1007,3.9382 -2.662,-2.3967 -6.1134,-3.9376 -9.9684,-3.9382 h -11.2978 c -6.6002,2e-4 -12.3915,4.367 -14.3882,10.5473 -2.0038,-5.9615 -7.5754,-10.5458 -14.3062,-10.5473 h -11.2994 a 7.3908357,7.3908357 0 0 0 -0.014,0 c -2.2833,0.01 -4.4972,0.5502 -6.5134,1.5163 -3.2746,-1.1754 -6.4838,-1.5163 -8.99,-1.5163 h -31.5173 c -7.1204,0 -13.3589,5.0571 -14.8364,12.0226 l -2.0815,9.812 a 7.3908357,7.3908357 0 0 0 -0.01,0.037 c -0.1328,0.6423 -0.099,1.301 -0.1473,1.9538 -0.195,0.5661 -0.4566,1.1095 -0.5835,1.6956 a 7.3908357,7.3908357 0 0 0 -0.01,0.03 l -0.55,2.5905 c -1.367,-2.1742 -3.2282,-4.0012 -5.4787,-5.2752 l 0.9663,-4.558 c 1.9633,-9.2742 -5.3582,-18.3084 -14.838,-18.3111 z m 282.3734,4.7449 0.05,0.041 c -0.01,-0.01 -0.014,-0.01 -0.021,-0.014 -0.046,-0.037 0.02,0.012 -0.029,-0.027 z m -282.3734,10.0353 c 0.4086,10e-5 0.466,0.071 0.3813,0.4709 l -1.8551,8.7545 c -0.01,0.032 -0.018,0.062 -0.032,0.091 a 7.3908357,7.3908357 0 0 0 -0.01,6.5195 c 0.01,0.015 0.013,0.03 0.018,0.046 a 7.3908357,7.3908357 0 0 0 6.9951,5.0062 h 1.1182 c 0.4088,3e-4 0.4662,0.07 0.3798,0.471 l -1.6348,7.5755 c -0.03,0.1339 -0.1077,0.2273 -0.2355,0.278 a 7.3908357,7.3908357 0 0 0 -2.8974,11.6625 c 0.082,0.096 0.1094,0.209 0.084,0.3327 l -2.0055,9.5841 c -0.047,0.2234 -0.1531,0.31 -0.3814,0.31 h -6.6881 c -2.3952,0 -4.0994,-0.1875 -5.6854,-0.626 -0.1575,-0.061 -0.1407,-0.053 -0.3616,-0.1398 -0.029,-0.011 -0.017,-0.01 -0.047,-0.018 a 7.3908357,7.3908357 0 0 0 -2.7531,-0.509 c -7e-4,-1e-4 -0.02,0 -0.021,0 a 7.3908357,7.3908357 0 0 0 -0.6016,0.03 7.3908357,7.3908357 0 0 0 -0.1809,0.019 7.3908357,7.3908357 0 0 0 -0.518,0.079 7.3908357,7.3908357 0 0 0 -0.2431,0.051 7.3908357,7.3908357 0 0 0 -0.4376,0.1109 7.3908357,7.3908357 0 0 0 -0.3403,0.1049 c 0,0 0.017,0 0.023,0 a 7.3908357,7.3908357 0 0 0 -0.04,0.014 7.3908357,7.3908357 0 0 0 -0.1793,0.058 7.3908357,7.3908357 0 0 0 -0.071,0.03 7.3908357,7.3908357 0 0 0 -0.027,0.011 c -0.053,0.021 0,0.01 -0.053,0.026 a 7.3908357,7.3908357 0 0 0 -0.4786,0.2081 c 0.1043,-0.061 0.1851,-0.1034 0.3327,-0.1732 -1.25,0.4756 -2.6619,0.7293 -4.1463,0.7293 h -12.4875 c -2.956,0 -4.0347,-0.087 -5.6717,-1.4266 -0.9116,-0.7458 -1.7792,-3.0048 -1.7792,-4.4639 0,-0.9507 0.1121,-1.7843 0.3799,-3.1238 l 2.674,-12.6273 a 7.3908357,7.3908357 0 0 0 0,-0.01 c 0.1648,-0.7827 0.6659,-1.9582 1.3872,-2.9263 a 7.3908357,7.3908357 0 0 0 0.5895,-0.9465 7.3908357,7.3908357 0 0 0 0.7065,-0.3829 l -0.1033,0.07 c 0.6486,-0.3865 -0.017,0.017 0.1261,-0.082 l 0.065,-0.041 c -0.097,0.052 0.6167,-0.4037 0.1185,-0.076 a 7.3908357,7.3908357 0 0 0 0.044,-0.034 c -1.1583,0.8084 -1.507,1.1426 0.2826,-0.1929 l -0.2203,0.1473 a 7.3908357,7.3908357 0 0 0 0.7171,-11.5622 l 0.9603,-4.5291 a 7.3908357,7.3908357 0 0 0 0.01,-0.035 c 0.5951,-2.8774 1.7634,-5.1537 3.4732,-6.6062 a 7.3908357,7.3908357 0 0 0 0.01,-0.01 c 1.7758,-1.5121 4.3334,-2.2457 7.4569,-2.2457 z m -15.6311,49.8102 a 7.3908357,7.3908357 0 0 0 -0.4664,0.015 c 0.2252,-0.011 0.4337,-0.017 0.4664,-0.015 z m 53.1969,-49.8057 v 0 h 31.5158 c 2.6371,0 3.8426,0.1763 5.3511,1.2641 a 7.3908357,7.3908357 0 0 0 9.8879,-1.1304 c 0.077,-0.088 0.1753,-0.1335 0.2917,-0.1337 h 11.2857 c 0.4062,4e-4 0.464,0.071 0.3798,0.4695 l -6.4921,30.7531 a 7.3908357,7.3908357 0 0 0 7.2305,8.917 h 12.796 a 7.3908357,7.3908357 0 0 0 7.2305,-5.8632 l 7.1698,-33.9664 c 0.047,-0.2229 0.1536,-0.31 0.3814,-0.31 h 11.2978 c 0.4065,4e-4 0.4643,0.072 0.3799,0.471 l -6.5347,30.8989 a 7.3908357,7.3908357 0 0 0 3.9351,8.1361 c 0.2724,0.6665 0.6804,1.4471 1.7731,2.4234 1.512,1.351 4.961,2.2292 7.1515,1.5391 3.763,-1.1856 4.0487,-2.5988 4.2982,-3.4854 0.039,-0.012 0.037,0 0.077,-0.011 0.5712,-0.1719 1.3319,-0.4036 2.4204,-1.2519 0.2721,-0.2121 0.5623,-0.4682 0.8599,-0.787 0.2977,-0.3189 0.8855,-1.1589 0.8858,-1.1593 4e-4,0 1.0923,-3.4602 1.0924,-3.4611 0,0 -0.6256,-3.4298 -0.626,-3.4306 -2e-4,-4e-4 -0.4294,-0.8435 -0.6548,-1.1729 -0.2255,-0.3295 -0.4506,-0.6009 -0.664,-0.8326 -0.1969,-0.2139 -0.2835,-0.1961 -0.4588,-0.3541 l 5.7537,-27.2145 c 0.047,-0.2227 0.1537,-0.3084 0.3814,-0.3084 h 10.8329 c 0.071,2e-4 0.1397,0.019 0.2006,0.056 a 7.3908357,7.3908357 0 0 0 7.6484,0 c 0.061,-0.037 0.1293,-0.056 0.2005,-0.056 h 12.173 c 0.235,0 0.3397,0.086 0.3829,0.3175 l 2.8564,15.2861 a 7.3908357,7.3908357 0 0 0 13.5449,2.5373 l 11.1308,-17.957 c 0.076,-0.1233 0.1861,-0.1839 0.3312,-0.1839 h 11.7339 c 0.074,1e-4 0.144,0.021 0.2066,0.061 a 7.3908357,7.3908357 0 0 0 7.9067,0 c 0.062,-0.04 0.1326,-0.061 0.2066,-0.061 h 24.2761 a 7.3908357,7.3908357 0 0 0 -0.5606,6.3523 c -1.3394,-0.2395 -2.3112,-0.1628 -3.2149,0.035 a 7.3908357,7.3908357 0 0 0 -0.043,0.011 c -1.459,0.3285 -1.4018,0.459 -1.4525,0.4924 a 7.3908357,7.3908357 0 0 0 -1.9083,12.2869 7.3908357,7.3908357 0 0 0 5.7932,5.971 c 0.3725,0.075 0.7926,0.023 1.1775,0.055 -0.2151,-0.023 -0.3252,0 -0.6229,-0.064 -0.3612,-0.075 -1.354,-0.4225 -1.3538,-0.4223 3e-4,10e-5 -2.0026,-1.2537 -2.0025,-1.2535 2e-4,1e-4 -2.0542,-2.9827 -2.0541,-2.9825 0,0 -0.044,-0.4594 -0.061,-0.6381 a 7.3908357,7.3908357 0 0 0 4.0095,1.1942 h 0.5956 c 0.505,0 1.2464,-0.074 2.2517,-0.4041 l -0.4619,4.5853 c 0.4423,0.02 0.8509,0.119 1.334,0.062 0.5093,-0.06 0.9597,-0.1077 1.8734,-0.4559 0.2284,-0.087 0.4892,-0.1927 0.8842,-0.4056 0.1975,-0.1064 0.4299,-0.2383 0.7384,-0.4543 0.3085,-0.2161 1.2408,-1.0964 1.2413,-1.097 3e-4,-3e-4 0.9267,-1.2729 0.9268,-1.2732 2e-4,-2e-4 0.8842,-2.4702 0.8843,-2.4704 0,-3e-4 -0.3615,-3.7906 -0.3616,-3.7908 -10e-5,-2e-4 -2.0555,-2.9823 -2.0557,-2.9825 0,0 -0.065,-0.041 -0.07,-0.044 -0.041,-0.2515 0.01,-0.5663 -0.058,-0.79 -0.019,-0.065 -0.045,-0.095 -0.065,-0.158 a 7.3908357,7.3908357 0 0 0 8.6557,-9.3729 7.3908357,7.3908357 0 0 0 10.8694,-1.8049 c 0.076,-0.1212 0.1864,-0.1808 0.3297,-0.1809 h 11.2903 c 0.076,1e-4 0.1476,0.021 0.2112,0.062 a 7.3908357,7.3908357 0 0 0 8.0373,0 c 0.063,-0.041 0.1357,-0.062 0.2112,-0.062 h 10.6126 c 0.1545,5e-4 0.2658,0.067 0.3404,0.2021 l 6.3934,11.6351 a 7.3908357,7.3908357 0 0 0 13.709,-2.0359 l 1.998,-9.4913 c 0.047,-0.2225 0.153,-0.3095 0.3798,-0.31 h 10.5488 c 0.1224,1e-4 0.2251,0.05 0.3024,0.1444 a 7.3908357,7.3908357 0 0 0 9.8225,1.4935 c 1.6497,-1.0957 3.8471,-1.6379 6.4664,-1.6379 h 31.0706 c 0.4063,0 0.4638,0.072 0.3813,0.4695 l -2.0815,10.0338 c -0.022,0.1 -0.076,0.1824 -0.161,0.24 a 7.3908357,7.3908357 0 0 0 -1.7685,10.5367 c 0.069,0.093 0.092,0.2009 0.068,0.3145 l -6.1671,29.1972 c -0.047,0.2228 -0.1537,0.31 -0.3813,0.31 h -31.5902 c -2.901,0 -4.1125,-0.1464 -5.7401,-1.4206 a 7.3908357,7.3908357 0 0 0 -0.011,-0.01 c 0,0 0,0 0,-0.01 a 7.3908357,7.3908357 0 0 0 -10.5276,1.2793 c -0.077,0.1018 -0.182,0.1533 -0.3099,0.1534 h -7.4995 c -0.1512,0 -0.2618,-0.064 -0.3373,-0.1945 l -8.8851,-15.4122 a 7.3908357,7.3908357 0 0 0 -13.6316,2.159 l -2.7819,13.1378 c -0.047,0.2226 -0.1523,0.3084 -0.3799,0.3084 h -10.4759 c -0.076,0 -0.1476,-0.021 -0.2111,-0.062 a 7.3908357,7.3908357 0 0 0 -8.0374,0 c -0.063,0.041 -0.1357,0.062 -0.2112,0.062 h -11.2735 c -0.1241,-2e-4 -0.2266,-0.05 -0.3039,-0.1474 a 7.3908357,7.3908357 0 0 0 -9.9228,-1.5223 c -1.6707,1.1291 -3.8537,1.6697 -6.5119,1.6697 h -32.7693 c -0.074,-1e-4 -0.144,-0.021 -0.2066,-0.061 a 7.3908357,7.3908357 0 0 0 -7.9067,0 c -0.062,0.04 -0.1326,0.061 -0.2066,0.061 h -9.265 c -0.1245,-2e-4 -0.2281,-0.05 -0.3054,-0.1474 a 7.3908357,7.3908357 0 0 0 -11.5896,0 c -0.077,0.098 -0.1806,0.1474 -0.3053,0.1474 h -8.8335 c -0.1301,-2e-4 -0.2342,-0.054 -0.3115,-0.158 a 7.3908357,7.3908357 0 0 0 -11.8873,0 c -0.077,0.1046 -0.1814,0.1578 -0.3115,0.158 h -6.8523 a 7.3908357,7.3908357 0 0 0 -11.67,-2.3201 c 1.0762,-0.9999 1.0689,-0.9961 -0.046,0.034 -0.9749,0.8903 -0.9813,0.8996 -0.034,0.038 l -0.021,0.02 a 7.3908357,7.3908357 0 0 0 -0.155,0.1595 7.3908357,7.3908357 0 0 0 -0.7293,0.4193 c -1.6427,1.0974 -3.8428,1.65 -6.4086,1.65 h -25.0495 c -2.6798,0 -3.858,-0.1602 -5.3769,-1.2367 a 7.3908357,7.3908357 0 0 0 -9.7861,1.1061 c -0.077,0.086 -0.1755,0.1305 -0.2902,0.1306 h -33.1628 v 0 c -0.4061,-3e-4 -0.464,-0.072 -0.3798,-0.4709 l 1.609,-7.612 a 7.3908357,7.3908357 0 0 0 -3.218,-7.7319 l 0.3221,-0.3434 -0.011,-0.011 c -0.2456,0.2893 -0.6447,0.7625 0.1687,-0.1641 a 7.3908357,7.3908357 0 0 0 -4.5034,-12.1486 7.3908357,7.3908357 0 0 0 0.1094,-0.1277 7.3908357,7.3908357 0 0 0 0.4209,-0.6077 7.3908357,7.3908357 0 0 0 1.1045,-3.4854 7.3908357,7.3908357 0 0 0 -0.064,-1.4753 7.3908357,7.3908357 0 0 0 -0.6396,-2.1149 7.3908357,7.3908357 0 0 0 -0.7627,-1.2626 7.3908357,7.3908357 0 0 0 -0.4725,-0.5682 7.3908357,7.3908357 0 0 0 -0.5257,-0.5181 7.3908357,7.3908357 0 0 0 -2.5373,-1.4783 7.3908357,7.3908357 0 0 0 -1.4373,-0.3328 7.3908357,7.3908357 0 0 0 -0.8357,-0.059 h -0.6776 a 7.3908357,7.3908357 0 0 0 -5.8206,2.8503 7.3908357,7.3908357 0 0 0 -7.7016,3.4353 c 0.2397,-0.3753 0.611,-0.842 1.5801,-1.6303 0.2675,-0.2176 0.597,-0.4575 1.0332,-0.7034 0.4361,-0.2459 1.6839,-0.6914 1.6834,-0.6914 -4e-4,2e-4 2.5028,-0.2385 2.5024,-0.2385 -1e-4,0 0.4175,0.1172 0.6503,0.1824 a 7.3908357,7.3908357 0 0 0 -0.3814,7.7593 l -8.1315,-0.8646 0.6487,-2.9277 c 0.029,-0.085 0.086,-0.2202 0.1125,-0.3237 a 7.3908357,7.3908357 0 0 0 -0.076,0.1535 v -0.012 c -0.01,0.021 -0.018,0.051 -0.027,0.072 a 7.3908357,7.3908357 0 0 0 -0.3085,0.8113 c -0.042,0.1215 -0.088,0.202 -0.1291,0.3419 -0.074,0.2507 -0.1483,0.5279 -0.2188,0.9663 -0.071,0.4383 -0.3527,0.7312 0.059,2.7105 0.052,0.2474 0.1234,0.5305 0.237,0.866 0.1137,0.3355 0.5148,1.1755 0.5151,1.176 2e-4,5e-4 1.0951,1.5114 1.0954,1.5117 3e-4,3e-4 2.0447,1.5344 2.0451,1.5346 3e-4,10e-5 2.7891,0.7809 2.7895,0.7809 4e-4,0 2.5034,-0.24 2.5039,-0.24 4e-4,-2e-4 1.2494,-0.4465 1.6864,-0.6929 0.4371,-0.2464 0.7662,-0.4865 1.0347,-0.705 0.8632,-0.7021 1.1477,-1.0905 1.413,-1.46 0.2256,0.038 0.4411,0.01 0.6685,0.032 a 7.3908357,7.3908357 0 0 0 -0.2583,9.6129 h -12.8871 a 7.3908357,7.3908357 0 0 0 -7.2305,5.8647 l -2.1165,10.0307 c -0.047,0.2228 -0.1536,0.3099 -0.3813,0.3099 h -11.2979 c -0.409,0 -0.4662,-0.071 -0.3813,-0.471 l 7.7988,-36.7636 c 0.01,-0.03 0.016,-0.059 0.029,-0.087 a 7.3908357,7.3908357 0 0 0 0.7217,-3.5963 c 0,-0.033 7e-4,-0.067 0.01,-0.099 10e-5,-6e-4 -10e-5,0 0,0 l 2.0739,-9.7755 c 0.047,-0.2219 0.1535,-0.308 0.3798,-0.3084 z m 272.9793,1.1501 a 7.3908357,7.3908357 0 0 0 -6.9966,5.8571 l -0.3085,1.4571 a 7.3908357,7.3908357 0 0 0 8.1042,8.8684 c 0.018,0 0.037,0 0.055,0 a 7.3908357,7.3908357 0 0 0 6.6289,-10.9453 l -0.7718,-1.4055 a 7.3908357,7.3908357 0 0 0 -6.7109,-3.8287 z m -129.8235,1.0833 a 7.3908357,7.3908357 0 0 0 -7.1227,5.8601 l -0.5865,2.7804 a 7.3908357,7.3908357 0 0 0 7.0923,8.914 c 0.019,4e-4 0.038,0 0.056,0.01 a 7.3908357,7.3908357 0 0 0 8.4719,-8.6496 l -0.5394,-2.8837 a 7.3908357,7.3908357 0 0 0 -7.3719,-6.0273 z m 130.1045,1.767 5.7371,6.278 -10.4789,1.5497 z m -53.5189,2.2821 0.6548,4.4456 a 7.3908357,7.3908357 0 0 0 -5.6261,7.8474 c -0.527,-0.5993 -1.0561,-1.4321 -1.4753,-2.8397 -0.4825,-1.6203 -0.2966,-4.0885 0.667,-5.7719 0.9636,-1.6834 2.2249,-2.4968 3.1116,-2.9384 1.3397,-0.6672 2.0748,-0.7349 2.668,-0.743 z m -75.8533,0.076 3.7816,4.7541 -8.3442,-0.097 z m 73.7171,0.2127 a 7.3908357,7.3908357 0 0 0 -0.8296,0.3115 c -0.049,0.012 -0.1075,-0.03 0.8296,-0.3115 z m 2.8199,4.3529 1.4373,9.7573 c -0.2052,0.064 0.022,0.039 -0.4057,0.1352 l -0.043,0.011 c -0.6257,0.1369 -1.3405,0.3676 -3.0888,-0.12 -0.437,-0.1219 -0.951,-0.2765 -1.7396,-0.7446 -0.2263,-0.1342 -0.5871,-0.4111 -0.9056,-0.6168 -0.1064,-1.114 -0.2537,-2.6544 -0.2537,-2.6543 0,3e-4 0.8844,-2.4692 0.8843,-2.469 -2e-4,4e-4 0.924,-1.2719 0.9237,-1.2716 -5e-4,6e-4 0.9317,-0.8777 1.2383,-1.0924 0.3065,-0.2147 0.5361,-0.3464 0.7308,-0.4513 0.3893,-0.2098 0.6439,-0.3115 0.863,-0.395 0.1881,-0.072 0.2108,-0.041 0.3585,-0.088 z m -302.6475,1.7594 0.01,0.01 a 7.3908357,7.3908357 0 0 0 -0.053,0.035 l -0.01,-0.011 c -0.2862,0.1883 0.2129,-0.1318 0.053,-0.032 z m -0.1778,0.1124 a 7.3908357,7.3908357 0 0 0 -0.1854,0.1398 7.3908357,7.3908357 0 0 0 -0.046,0.03 c 1.3893,-1.0079 2.0448,-1.3884 0.231,-0.1702 z m 106.6444,8.4051 v 0.3935 l -0.1398,0.6488 h -0.01 a 7.3908357,7.3908357 0 0 0 0.01,-0.048 7.3908357,7.3908357 0 0 0 0.1185,-0.7809 c -0.01,0.052 -0.014,0.067 -0.021,0.1109 a 7.3908357,7.3908357 0 0 0 0.017,-0.2598 c -8e-4,0.019 0.01,0.072 0.01,0.09 a 7.3908357,7.3908357 0 0 0 0.014,-0.155 z m -98.8167,3.2286 0.4102,0.6306 -0.1109,0.076 -0.351,-0.5424 a 7.3908357,7.3908357 0 0 0 0.052,-0.1641 z m 101.0881,0.7262 c -0.03,0.01 -0.1,0.1068 -0.9298,0.1642 0.2709,-0.038 0.5575,-0.078 0.7384,-0.1186 0.1276,-0.029 0.2317,-0.055 0.1914,-0.046 z m 195.6051,0.079 -0.01,0.061 h 0.5956 c -0.1364,0 -0.4144,-0.05 -0.5895,-0.061 z m -5.8601,0.099 c -0.4335,0.023 -0.7025,0.1516 -1.0058,0.2614 0.4144,0.022 0.8435,0.062 1.1349,0.062 h -0.3753 l 0.7552,3.5719 c 0.2134,-0.065 0.3684,-0.1193 0.5044,-0.1231 a 7.3908357,7.3908357 0 0 0 -0.5029,0.1292 l 2.2334,10.5701 c 0.1731,-0.077 -0.021,0 0.1003,-0.051 l -0.01,0.067 c -0.251,0.1171 -0.6742,0.2601 -1.6227,0.439 a 7.3908357,7.3908357 0 0 0 0.076,-0.015 c -0.196,0.039 -0.4533,0.1268 -0.6685,0.2158 0.533,0.082 1.1546,0.1562 2.1879,-0.3115 l -0.2993,3.5674 c -0.1852,0 -0.3582,0 -0.6731,-0.043 -0.1655,-0.021 -0.3688,-0.026 -0.6062,-0.056 a 7.3908357,7.3908357 0 0 0 0.046,0.01 c 0.6312,0.1068 0.7766,0.3406 2.7029,0.021 0.4816,-0.08 0.8638,0.3386 3.1405,-1.3081 0.2846,-0.2058 0.96,-0.8278 0.9602,-0.8281 2e-4,-2e-4 1.1044,-1.4553 1.1046,-1.4555 1e-4,-3e-4 0.8675,-2.3319 0.8675,-2.3322 10e-5,-2e-4 -0.017,-2.8273 -0.017,-2.8275 0,-2e-4 -0.8947,-2.3259 -0.8949,-2.3261 -10e-5,-2e-4 -1.124,-1.4446 -1.1243,-1.4449 -2e-4,-3e-4 -0.6845,-0.6162 -0.9724,-0.819 -0.01,-0.01 -0.011,-0.01 -0.018,-0.012 -0.033,-0.088 -0.02,-0.2022 -0.058,-0.2872 -1.1727,-2.6355 -2.668,-3.2342 -3.54,-3.6586 -1.7441,-0.8485 -2.739,-1.0512 -3.4292,-1.0149 z m 108.1713,0.5075 c -0.5158,-0.044 -1.0818,-0.093 -2.0845,0.1124 -1.1021,0.2257 -3.4368,0.3432 -5.2281,4.0597 -0.8956,1.8583 -0.8486,4.5834 -0.064,6.2992 0.7847,1.7159 1.8562,2.5855 2.7075,3.139 0.6593,0.4287 1.2013,0.6101 1.7427,0.79 -0.017,-0.047 -0.071,-0.1099 -0.117,-0.1291 0.1233,0.051 0.4987,0.1858 1.2124,0.3464 -0.2056,-0.027 -0.659,-0.033 -0.7612,-0.067 0.7287,0.2005 1.392,0.2689 2.0162,0.2689 h 0.3297 a 7.3908357,7.3908357 0 0 0 2.6619,-14.2742 c 0,0 0.05,0.013 0.055,0.015 -0.05,-0.022 -0.087,-0.041 -0.2629,-0.1079 -0.2124,-0.081 -0.076,-0.3881 -2.2076,-0.4528 z m -0.2492,0.073 c 1.0178,0.023 2.1167,0.1579 3.6358,1.1456 0.8369,0.5442 1.8975,1.401 2.6771,3.1056 0.7796,1.7045 0.8278,4.419 -0.062,6.2658 -1.7802,3.6934 -4.0813,3.7892 -5.1202,4.0019 -0.9383,0.1922 -1.4095,0.1416 -1.8141,0.1064 -0.2824,-0.01 -0.3749,-0.034 -0.5713,-0.051 z m -110.7375,0.1717 c -0.4712,0.173 -0.6745,0.3126 -0.8159,0.3875 -0.1603,0.085 -0.1999,0.1118 -0.2567,0.1458 a 7.3908357,7.3908357 0 0 0 -0.014,0.01 c -0.019,0.012 -0.08,0.044 -0.093,0.051 -0.01,0.01 0.064,-0.033 0.053,-0.027 a 7.3908357,7.3908357 0 0 0 -0.3358,12.5787 7.3908357,7.3908357 0 0 0 5.2615,4.3362 c -0.3608,-0.085 -0.8487,-0.2558 -1.691,-0.708 -0.2216,-0.1189 -0.4725,-0.2671 -0.7597,-0.4695 -0.2872,-0.2023 -0.9711,-0.8176 -0.9709,-0.8174 3e-4,2e-4 -1.1229,-1.4436 -1.1228,-1.4434 10e-5,1e-4 -0.144,-0.3724 -0.2339,-0.6062 a 7.3908357,7.3908357 0 0 0 2.5722,0.8478 c -0.4875,-0.1502 -1.0506,-0.3571 -1.8156,-0.7293 -0.241,-0.1173 -0.6042,-0.3699 -0.9253,-0.5576 -0.2435,-0.6331 -0.4923,-1.2794 -0.4923,-1.2793 10e-5,3e-4 -0.015,-2.8262 -0.015,-2.826 0,3e-4 0.8662,-2.3309 0.8661,-2.3307 -2e-4,3e-4 1.1048,-1.4542 1.1045,-1.4539 -2e-4,2e-4 0.6733,-0.6228 0.9572,-0.8281 1.0321,-0.7465 1.5942,-0.9885 2.0283,-1.1228 a 7.3908357,7.3908357 0 0 0 -4.9409,9.5445 c -0.6896,-0.5178 -1.42,-1.2865 -2.0799,-2.7697 -1.1674,-2.6235 0.1785,-6.9703 1.7123,-8.3975 0.7993,-0.7438 1.4505,-1.216 2.007,-1.533 z m -111.8436,2.1332 0.3252,0.4026 a 7.3908357,7.3908357 0 0 0 -0.7399,0.1398 c 0.097,-0.1372 0.2304,-0.3019 0.4147,-0.5424 z m 117.8754,0.7034 c 0.1586,0.016 0.2242,0.047 0.31,0.078 -0.2753,-0.028 -0.5085,-0.043 -0.6944,-0.044 0.086,3e-4 0.3219,-0.04 0.3844,-0.034 z m -117.1294,0.2189 4.2861,5.2857 0.2507,-1.185 v 4.9773 l -6.2384,-2.1331 c -0.022,-0.042 -0.111,-0.1991 -0.1109,-0.1991 3e-4,0 -0.6244,-3.4269 -0.6245,-3.4261 0,0 0.8188,-2.5944 0.9876,-3.1299 0.4536,-0.1107 0.9323,-0.1902 1.4494,-0.1898 z m 192.4996,1.6074 a 7.3908357,7.3908357 0 0 0 -0.6077,0.044 c -0.01,0 -0.017,0 -0.024,0 a 7.3908357,7.3908357 0 0 0 -6.0212,11.0623 l 0.3327,0.5788 a 7.3908357,7.3908357 0 0 0 13.6362,-2.1513 l 0.1306,-0.6169 a 7.3908357,7.3908357 0 0 0 0.1611,-1.5315 7.3908357,7.3908357 0 0 0 -7.6074,-7.387 z m -197.5787,0.4528 a 7.3908357,7.3908357 0 0 0 -0.6306,0.8599 c 0.135,-0.2962 0.3073,-0.5274 0.6306,-0.8599 z m 203.3644,3.9807 -5.3238,9.78 -7.6347,-6.8264 0.097,-0.9253 z m -190.6536,2.9915 c -0.052,0.188 -0.099,0.3492 -0.158,0.4725 0.044,-0.1467 0.1301,-0.3502 0.158,-0.4725 z m 0.5014,1.1821 c 0.059,-0.033 0.057,-0.03 -0.053,0.03 -0.055,0.03 -0.1361,0.075 -0.2993,0.1535 -0.01,0 -0.026,0.01 -0.034,0.014 0.1915,-0.093 0.3393,-0.1717 0.3859,-0.1975 z m -3.5963,0.1398 v 0.7278 c -0.3331,-0.017 -0.6102,-0.01 -1.1714,-0.1277 -0.045,-0.01 -0.156,-0.065 -0.2036,-0.075 a 7.3908357,7.3908357 0 0 0 1.375,-0.5257 z m 1.4464,0.6427 c -0.2653,0.052 -0.5539,0.1206 -0.9845,0.1352 0.044,1e-4 0.1526,-0.029 0.199,-0.029 a 7.3908357,7.3908357 0 0 0 0.7855,-0.1069 z m 9.0705,8.7301 0.044,0.048 a 7.3908357,7.3908357 0 0 0 -0.082,0.041 z m -173.0914,1.3978 a 7.3908357,7.3908357 0 0 0 -0.041,0.016 c 0.01,0 0.01,-0.01 0.012,-0.01 0.012,-0.01 0.017,0 0.029,-0.01 z m -1.0848,0.5014 a 7.3908357,7.3908357 0 0 0 -0.015,0.01 c 0.014,-0.01 -0.076,0.039 -0.059,0.029 0.01,-0.01 0.062,-0.03 0.074,-0.038 z m 7.2928,12.7139 0.01,0.1124 -0.071,-0.075 c 0.022,-0.013 0.042,-0.025 0.064,-0.038 z"
           id="path4339"
           inkscape:connector-curvature="0" />
        <path
           style="color:#000000;font-style:italic;font-variant:normal;font-weight:normal;font-stretch:normal;font-size:86.98194885px;line-height:1.25;font-family:'Hemi Head';-inkscape-font-specification:'Hemi Head, Italic';font-variant-ligatures:normal;font-variant-position:normal;font-variant-caps:normal;font-variant-numeric:normal;font-variant-alternates:normal;font-feature-settings:normal;text-indent:0;text-align:start;text-decoration:none;text-decoration-line:none;text-decoration-style:solid;text-decoration-color:#000000;letter-spacing:0px;word-spacing:0px;text-transform:none;writing-mode:lr-tb;direction:ltr;text-orientation:mixed;dominant-baseline:auto;baseline-shift:baseline;text-anchor:start;white-space:normal;shape-padding:0;clip-rule:nonzero;display:inline;overflow:visible;visibility:visible;opacity:1;isolation:auto;mix-blend-mode:normal;color-interpolation:sRGB;color-interpolation-filters:linearRGB;solid-color:#000000;solid-opacity:1;vector-effect:none;fill:#ffa500;fill-opacity:1;fill-rule:nonzero;stroke:none;stroke-width:13.39863491;stroke-linecap:round;stroke-linejoin:round;stroke-miterlimit:4;stroke-dasharray:none;stroke-dashoffset:0;stroke-opacity:1;color-rendering:auto;image-rendering:auto;shape-rendering:auto;text-rendering:auto;enable-background:accumulate"
           d="m -1815.5224,3246.5247 h -31.4216 c -5.4232,0 -12.2199,1.141 -17.7839,6.0652 -4.7739,4.2253 -7.1369,9.72 -8.2789,14.6982 0,0.01 0,0.01 0,0.013 a 6.6999874,6.6999874 0 0 0 -0.021,0.09 l -6.9799,31.3168 -0.011,0.046 a 6.6999874,6.6999874 0 0 0 -0.048,0.3008 c -0.4342,1.9028 -0.7855,4.0094 -0.7855,6.3691 0,5.7623 2.1349,12.1026 7.8353,16.5168 0,0 0,0 0,0 0.087,0.068 0.1745,0.1334 0.2628,0.1991 a 6.6999874,6.6999874 0 0 0 0.01,0.01 c 5.2777,3.9078 11.0962,4.4092 15.0506,4.4092 h 31.9473 c 1.0252,0 2.0254,-0.1196 3.0052,-0.3099 0.7389,0.1098 1.4441,0.3097 2.2198,0.3099 h 11.0502 c 4.3647,-6e-4 8.4612,-1.8201 11.4225,-4.8664 2.9142,2.9805 6.9317,4.8663 11.3525,4.8664 h 11.5 c 0.9375,-1e-4 1.841,-0.1368 2.7348,-0.2962 0.8236,0.1356 1.6406,0.2976 2.5038,0.2978 h 32.2481 c 5.4248,0 12.2207,-1.1449 17.7839,-6.0683 4.7755,-4.2267 7.1404,-9.7231 8.282,-14.7058 0,-0.012 0.01,-0.024 0.01,-0.037 a 6.6999874,6.6999874 0 0 0 0.014,-0.059 l 2.9309,-13.156 a 6.6999874,6.6999874 0 0 0 0.011,-0.047 c 0.01,-0.041 0.017,-0.083 0.026,-0.1246 v -0.01 c 0.34,-1.6107 0.5681,-3.3828 0.5681,-5.2813 0,-1.7536 -0.2667,-3.4587 -0.711,-5.1232 1.6742,-1.9586 2.9162,-4.2784 3.4899,-6.8522 a 6.6999874,6.6999874 0 0 0 0,-0.011 l 2.0298,-9.1739 c 2.1681,-9.8072 -5.5247,-19.3869 -15.5686,-19.3884 h -31.645 c -5.0987,0 -11.4257,1.0994 -16.8298,5.3527 -2.9401,-3.2601 -7.1399,-5.3525 -11.7901,-5.3527 h -14.9579 c -4.0711,2e-4 -7.8766,1.6327 -10.7829,4.321 -2.8195,-2.6215 -6.5193,-4.3215 -10.6779,-4.3225 z m -31.4216,13.3991 h 31.4216 c 1.7743,0 2.8668,1.3598 2.4872,3.0934 l -0.3191,1.454 -21.1386,38.4637 c -1.8111,3.2962 -2.1284,6.8611 -1.5057,10.2252 h -21.6947 c -3.2107,0 -4.7925,-0.091 -7.0681,-1.7731 h -0.01 c 0,0 0,0 -0.01,0 -0.012,-0.01 -0.023,-0.017 -0.035,-0.026 a 6.6999874,6.6999874 0 0 0 -0.01,-0.01 c -1.3521,-1.0466 -2.6421,-4.3049 -2.6421,-5.9239 0,-1.2564 0.1763,-2.3746 0.5241,-3.8014 4e-4,0 -2e-4,0 0,0 l 0.011,-0.046 0.01,-0.041 a 6.6999874,6.6999874 0 0 0 0,-0.01 l 6.9601,-31.2226 a 6.6999874,6.6999874 0 0 0 0,-0.014 c 0.7313,-3.1933 1.993,-5.8027 4.1007,-7.6681 2.3464,-2.0766 5.2117,-2.7014 8.9049,-2.7014 z m 52.8839,0 h 14.958 c 1.3881,10e-5 2.4263,0.9577 2.5387,2.3413 l 0.307,3.771 c -0.1126,0.4208 -0.2727,0.8525 -0.3677,1.2671 a 6.6999874,6.6999874 0 0 0 -0.019,0.082 l -2.7803,12.4449 a 6.6999874,6.6999874 0 0 0 0,0.01 c -0.041,0.1836 -0.08,0.3681 -0.1139,0.553 -0.2619,1.4049 -0.4954,3.0814 -0.4954,4.9804 0,1.6691 0.261,3.3237 0.6685,4.9577 -1.9485,2.0573 -3.401,4.5692 -4.0399,7.4083 a 6.6999874,6.6999874 0 0 0 0,0.01 l -2.1043,9.3865 c -0.4606,2.0562 -0.4004,4.0831 -0.062,6.035 h -1.1182 c -1.3997,-10e-5 -2.4402,-0.9703 -2.5404,-2.3657 -10e-5,0 0,0 0,0 a 6.6999874,6.6999874 0 0 0 -10.2419,-5.099 h -0.4878 a 6.6999874,6.6999874 0 0 0 -5.9345,3.5918 l -1.3143,2.51 c -0.4454,0.8507 -1.2961,1.3652 -2.2562,1.3659 h -0.5075 l 6.0318,-27.0231 a 6.6999874,6.6999874 0 0 0 0,-0.011 c 0.4491,-2.0287 0.4474,-4.1044 0.1018,-6.126 0.809,-1.4022 1.4319,-2.908 1.7853,-4.5048 a 6.6999874,6.6999874 0 0 0 0,-0.014 l 1.3704,-6.2551 4.3894,-7.9856 c 0.4534,-0.8248 1.2908,-1.3203 2.232,-1.3204 z m 17.436,7.3794 0.054,-0.2218 c -0.01,0.027 -0.014,0.054 -0.021,0.082 a 6.6999874,6.6999874 0 0 0 -0.033,0.1398 z m 26.1419,-7.3794 h 31.6433 c 1.7783,2e-4 2.8711,1.3616 2.4872,3.0979 v 0 l -1.5618,7.0604 a 6.6999874,6.6999874 0 0 0 -8.0678,6.5529 6.6999874,6.6999874 0 0 0 2.1621,4.9289 c -1.0238,-0.9111 -1.0269,-0.9269 0.038,0.053 1.0654,0.9973 1.1065,1.0116 0.1154,0.088 l 0.038,0.035 a 6.6999874,6.6999874 0 0 0 0.5469,0.4406 6.6999874,6.6999874 0 0 0 0.4529,1.018 c 0.7529,1.3452 1.1485,3.0385 1.1485,3.8774 0,0.8344 -0.096,1.6518 -0.2795,2.519 a 6.6999874,6.6999874 0 0 0 -0.011,0.047 c 0,0.01 -0.01,0.019 -0.01,0.029 l -2.9065,13.0497 c 0,0.01 0,0.01 0,0.015 l -0.011,0.044 a 6.6999874,6.6999874 0 0 0 0,0.014 c -0.3664,1.5998 -0.8674,3.0522 -1.5407,4.3392 a 6.6999874,6.6999874 0 0 0 -10.7463,-4.5595 l -0.1656,0.1291 c 0.5258,-0.4357 0.75,-0.6201 -0.093,0.046 -0.8748,0.6742 -0.8687,0.6728 -0.082,0.091 l -0.075,0.057 a 6.6999874,6.6999874 0 0 0 -0.2825,10.2632 c -0.01,0 -0.014,0 -0.022,0 h -21.7981 c 0.2091,-1.2469 0.3101,-2.5229 0.2036,-3.8364 l -3.3729,-41.548 c 0.7565,-2.0158 1.7133,-3.8285 3.2088,-5.1521 2.3794,-2.1058 5.2195,-2.7014 8.9808,-2.7014 z m 27.1583,21.4121 a 6.6999874,6.6999874 0 0 0 0.027,0.1124 l -0.2234,0.1003 z"
           id="path4098"
           inkscape:connector-curvature="0" />
        <path
           style="color:#000000;font-style:italic;font-variant:normal;font-weight:normal;font-stretch:normal;font-size:133.49272156px;line-height:1.25;font-family:'Hemi Head';-inkscape-font-specification:'Hemi Head, Italic';font-variant-ligatures:normal;font-variant-position:normal;font-variant-caps:normal;font-variant-numeric:normal;font-variant-alternates:normal;font-feature-settings:normal;text-indent:0;text-align:start;text-decoration:none;text-decoration-line:none;text-decoration-style:solid;text-decoration-color:#000000;letter-spacing:0px;word-spacing:0px;text-transform:none;writing-mode:lr-tb;direction:ltr;text-orientation:mixed;dominant-baseline:auto;baseline-shift:baseline;text-anchor:start;white-space:normal;shape-padding:0;clip-rule:nonzero;display:inline;overflow:visible;visibility:visible;opacity:1;isolation:auto;mix-blend-mode:normal;color-interpolation:sRGB;color-interpolation-filters:linearRGB;solid-color:#000000;solid-opacity:1;vector-effect:none;fill:#ffa500;fill-opacity:1;fill-rule:nonzero;stroke:none;stroke-width:13.39863491;stroke-linecap:round;stroke-linejoin:round;stroke-miterlimit:4;stroke-dasharray:none;stroke-dashoffset:0;stroke-opacity:1;color-rendering:auto;image-rendering:auto;shape-rendering:auto;text-rendering:auto;enable-background:accumulate"
           d="m -2092.4277,3246.7085 c -7.0353,0 -13.1906,4.9954 -14.6404,11.8798 l -2.0602,9.78 a 6.6999874,6.6999874 0 0 0 -0.01,0.037 c -0.1294,0.6319 -0.111,1.2799 -0.158,1.922 -0.1897,0.5503 -0.4301,1.0836 -0.5545,1.653 a 6.6999874,6.6999874 0 0 0 -0.01,0.038 l -7.7213,36.3276 c -1.9473,9.1649 5.2664,18.0727 14.6358,18.0726 h 11.5455 c 7.0283,0 13.1801,-4.9845 14.6374,-11.86 l 0.2614,-1.2337 c 0.9774,7.1533 7.0918,13.0943 14.7285,13.0953 h 33.3861 a 6.6999874,6.6999874 0 0 0 0.021,0 c 0.5754,0 1.1403,-0.1205 1.7108,-0.1884 0.5628,0.068 1.1203,0.1849 1.688,0.1884 a 6.6999874,6.6999874 0 0 0 0.041,0 h 10.8102 c 4.3344,-5e-4 8.3796,-1.9108 11.1808,-5.0701 2.7588,3.0836 6.7132,5.0706 11.0973,5.0716 h 11.2524 a 6.6999874,6.6999874 0 0 0 0.017,0 c 0.8608,0 1.689,-0.2595 2.5342,-0.4087 0.8399,0.1489 1.662,0.4049 2.5176,0.4087 a 6.6999874,6.6999874 0 0 0 0.03,0 h 28.4725 c 2.7058,0 5.584,-0.3555 8.4522,-1.2398 1.834,0.7803 3.8007,1.2374 5.822,1.2398 a 6.6999874,6.6999874 0 0 0 0.01,0 h 11.1778 c 3.7049,-4e-4 7.1417,-1.4117 9.7998,-3.7284 2.6048,2.278 5.9576,3.728 9.6873,3.7284 h 11.1779 c 7.0318,0 13.1854,-4.9908 14.6389,-11.8706 l 10.5154,-49.7859 c 1.9331,-9.159 -5.2766,-18.0514 -14.6374,-18.0529 h -11.1779 c -3.7048,-10e-5 -7.1428,1.4104 -9.8013,3.727 -2.6043,-2.2774 -5.9554,-3.7263 -9.6842,-3.727 h -11.1779 a 6.6999874,6.6999874 0 0 0 -0.01,0 c -1.0701,6e-4 -2.1288,0.1381 -3.1694,0.3646 -1.0359,-0.2256 -2.0905,-0.3629 -3.1557,-0.3646 a 6.6999874,6.6999874 0 0 0 -0.011,0 h -30.9581 c -4.506,0 -9.8654,0.995 -14.607,4.1645 -2.7017,-2.5726 -6.3334,-4.1639 -10.2859,-4.1645 h -14.6344 c -5.5685,3e-4 -10.7053,3.1197 -13.2745,8.0601 l -16.4545,31.651 h -1.2414 l 4.5733,-21.6582 c 1.9317,-9.1584 -5.2791,-18.0497 -14.6389,-18.0514 h -11.1763 a 6.6999874,6.6999874 0 0 0 -0.029,0 c -0.7218,0 -1.4239,0.1865 -2.1362,0.2932 -0.7184,-0.1068 -1.4266,-0.2918 -2.1544,-0.2932 a 6.6999874,6.6999874 0 0 0 -0.013,0 z m 0,13.3991 v 0 h 36.8289 c 0.1392,2e-4 0.2776,0.02 0.4118,0.056 a 6.6999874,6.6999874 0 0 0 3.5537,0 c 0.1331,-0.036 0.2692,-0.056 0.4072,-0.056 h 11.1489 c 1.1397,2e-4 1.7653,0.7719 1.53,1.887 l -6.2779,29.7397 a 6.6999874,6.6999874 0 0 0 6.5545,8.0829 h 13.5693 a 6.6999874,6.6999874 0 0 0 5.9436,-3.6084 l 18.3325,-35.2595 c 0.2753,-0.5295 0.7903,-0.8417 1.3871,-0.8417 h 14.6343 c 0.8796,2e-4 1.4914,0.568 1.5589,1.4449 l 0.1428,1.846 a 6.6999874,6.6999874 0 0 0 12.6942,2.437 c 0.617,-1.258 1.3437,-2.2833 2.2957,-3.1739 2.0222,-1.8917 4.7016,-2.554 8.203,-2.554 h 30.9475 c 0.2058,3e-4 0.4086,0.041 0.5986,0.12 a 6.6999874,6.6999874 0 0 0 5.1551,0 c 0.1897,-0.079 0.3918,-0.1195 0.5971,-0.12 h 11.1779 c 1.1385,0 1.7635,0.7725 1.5284,1.887 v 0 l -2.0876,9.8864 a 6.6999874,6.6999874 0 0 0 6.5544,8.0829 h 2.5966 a 6.6999874,6.6999874 0 0 0 6.556,-5.3162 l 2.8062,-13.2972 v 0 c 0.1615,-0.7613 0.7531,-1.2398 1.5315,-1.2398 h 11.1779 c 1.1387,0 1.7652,0.7724 1.53,1.8871 l -10.5169,49.7843 c -0.1611,0.762 -0.7512,1.2412 -1.53,1.2413 h -11.1763 v 0 c -1.1383,0 -1.7648,-0.7726 -1.53,-1.887 l 2.238,-10.6232 a 6.6999874,6.6999874 0 0 0 -6.556,-8.0815 h -2.5981 a 6.6999874,6.6999874 0 0 0 -6.5544,5.3193 l -2.9567,14.0311 c -0.1605,0.762 -0.7515,1.2406 -1.53,1.2413 h -11.1701 c -0.3663,-4e-4 -0.7167,-0.1274 -0.9982,-0.3616 a 6.6999874,6.6999874 0 0 0 -3.3366,-1.4722 6.6999874,6.6999874 0 0 0 -9.8058,-8.9019 l -0.1033,0.085 c 0.7794,-0.6885 0.8075,-0.7097 -0.091,0.048 -0.9182,0.7471 -0.8866,0.7113 -0.058,0.075 l -0.1154,0.096 a 6.6999874,6.6999874 0 0 0 0.1792,10.4318 h -28.4041 c -0.1635,-7e-4 -0.3263,-0.026 -0.4817,-0.078 a 6.6999874,6.6999874 0 0 0 -4.1782,0 c -0.1562,0.051 -0.3202,0.077 -0.4846,0.078 h -11.2341 v 0 c -0.8868,0 -1.4998,-0.5749 -1.5588,-1.4601 l 0.014,0.4163 a 6.6999874,6.6999874 0 0 0 -6.6973,-6.679 h -5.0837 a 6.6999874,6.6999874 0 0 0 -6.0045,3.7253 l -1.5482,3.1254 c -0.27,0.5453 -0.7923,0.8684 -1.4008,0.869 h -10.7828 c -0.1048,0 -0.209,-0.012 -0.3115,-0.035 a 6.6999874,6.6999874 0 0 0 -2.8685,0 c -0.1083,0.024 -0.2188,0.034 -0.3297,0.035 h -33.3633 v 0 c -1.1388,0 -1.7654,-0.7723 -1.53,-1.887 l 2.0801,-9.8454 a 6.6999874,6.6999874 0 0 0 -7.1668,-8.0555 c -0.043,0.01 -0.086,0.01 -0.1292,0.01 h -11.9952 a 6.6999874,6.6999874 0 0 0 -6.5545,5.31 l -2.8032,13.232 c -0.1614,0.7615 -0.7531,1.2397 -1.5314,1.2398 h -11.5441 c -1.1413,0 -1.7671,-0.7736 -1.5299,-1.89 l 7.7137,-36.2881 c 0.024,-0.1107 0.061,-0.2192 0.1079,-0.3221 a 6.6999874,6.6999874 0 0 0 0.6108,-3.0539 c -0.01,-0.1207 0.01,-0.2416 0.029,-0.3601 l 2.0541,-9.7557 v 0 c 0.1609,-0.7612 0.7519,-1.2405 1.53,-1.2413 z"
           id="path4092"
           inkscape:connector-curvature="0" />
      </g>
      <path
         inkscape:export-ydpi="96"
         inkscape:export-xdpi="96"
         inkscape:export-filename="D:\FLASH GAS\FLASH GAS LOGO WIDE WHITE.png"
         inkscape:connector-curvature="0"
         id="path4521"
         d="m -1521.7151,3241.832 -1.4987,7.3898 9.1468,2.3255 3.4106,-8.2167 -7.0796,-2.8421 z"
         style="fill:#ffa500;fill-opacity:1;stroke:none;stroke-width:0.26458332px;stroke-linecap:butt;stroke-linejoin:miter;stroke-opacity:1" />
      <path
         inkscape:export-ydpi="96"
         inkscape:export-xdpi="96"
         inkscape:export-filename="D:\FLASH GAS\FLASH GAS LOGO WIDE WHITE.png"
         style="fill:#410000;fill-opacity:1;stroke:none;stroke-width:0.20582066px;stroke-linecap:butt;stroke-linejoin:miter;stroke-opacity:1"
         d="m -1880.9042,3211.8579 c 0,0 -8.8119,13.701 -16.1456,15.9182 -7.3337,2.2171 5.6851,6.2535 5.6851,6.2535 l 5.2303,-7.5611 2.7288,-7.6179 2.1319,-5.4577 z"
         id="path3423"
         inkscape:connector-curvature="0" />
      <path
         inkscape:export-ydpi="96"
         inkscape:export-xdpi="96"
         inkscape:export-filename="D:\FLASH GAS\FLASH GAS LOGO WIDE WHITE.png"
         style="fill:#410000;fill-opacity:1;stroke:none;stroke-width:0.20582066px;stroke-linecap:butt;stroke-linejoin:miter;stroke-opacity:1"
         d="m -1939.4097,3228.1139 c 0,0 -3.216,-1.1255 -3.2563,-2.0903 0,0 -1.9697,-3.3366 -1.4069,-5.0651 0,0 -4.2222,-3.1474 -11.3454,-1.5759 -7.1232,1.5714 11.3532,11.6908 11.3532,11.6908 h 4.207 z"
         id="path3427"
         inkscape:connector-curvature="0" />
      <path
         inkscape:export-ydpi="96"
         inkscape:export-xdpi="96"
         inkscape:export-filename="D:\FLASH GAS\FLASH GAS LOGO WIDE WHITE.png"
         style="fill:#410000;fill-opacity:1;stroke:none;stroke-width:0.20582066px;stroke-linecap:butt;stroke-linejoin:miter;stroke-opacity:1"
         d="m -1925.0988,3228.2346 c 0,0 6.4319,6.6731 8.6026,6.5927 0,0 2.2512,-6.3516 6.9947,-7.236 4.7435,-0.8843 -1.4471,13.9894 -1.4471,13.9894 l -5.2029,0.9764 -8.6412,-8.1864 z"
         id="path3429"
         inkscape:connector-curvature="0" />
      <path
         inkscape:export-ydpi="96"
         inkscape:export-xdpi="96"
         inkscape:export-filename="D:\FLASH GAS\FLASH GAS LOGO WIDE WHITE.png"
         style="fill:#410000;fill-opacity:1;stroke:none;stroke-width:0.20582066px;stroke-linecap:butt;stroke-linejoin:miter;stroke-opacity:1"
         d="m -1938.7666,3223.893 c 0,0 3.0017,6.1002 6.299,7.692 3.2974,1.5919 7.6749,2.7857 7.6749,2.7857 l 0.739,3.1837 -11.0859,-0.1706 -4.0932,-7.3337 z"
         id="path3431"
         inkscape:connector-curvature="0" />
      <path
         inkscape:export-ydpi="96"
         inkscape:export-xdpi="96"
         inkscape:export-filename="D:\FLASH GAS\FLASH GAS LOGO WIDE WHITE.png"
         style="fill:#000000;stroke:none;stroke-width:0.20582066px;stroke-linecap:butt;stroke-linejoin:miter;stroke-opacity:1"
         d="m -1930.5659,3238.5256 c 0,0 -8.5222,-9.9694 -8.2007,-14.6326 0,0 -3.3767,5.4671 0.3216,11.5774 3.6983,6.1103 7.8791,3.0552 7.8791,3.0552 z"
         id="path3585"
         inkscape:connector-curvature="0" />
      <path
         inkscape:export-ydpi="96"
         inkscape:export-xdpi="96"
         inkscape:export-filename="D:\FLASH GAS\FLASH GAS LOGO WIDE WHITE.png"
         style="fill:#000000;stroke:none;stroke-width:0.20582066px;stroke-linecap:butt;stroke-linejoin:miter;stroke-opacity:1"
         d="m -1905.4636,3240.9654 c 0,0 17.5099,-10.2331 24.5594,-29.1075 0,0 -2.3873,23.4517 -16.3767,31.0092 h -12.8637 z"
         id="path3587"
         inkscape:connector-curvature="0" />
      <path
         inkscape:export-ydpi="96"
         inkscape:export-xdpi="96"
         inkscape:export-filename="D:\FLASH GAS\FLASH GAS LOGO WIDE WHITE.png"
         style="fill:#000000;stroke:none;stroke-width:0.20582066px;stroke-linecap:butt;stroke-linejoin:miter;stroke-opacity:1"
         d="m -1906.9287,3230.0033 c 0,0 11.899,-3.2159 14.6325,-10.1302 0,0 1.1257,14.7934 -6.271,19.9389 -7.3967,5.1455 -8.8439,0.9648 -8.8439,0.9648 z"
         id="path3597"
         inkscape:connector-curvature="0" />
      <path
         inkscape:export-ydpi="96"
         inkscape:export-xdpi="96"
         inkscape:export-filename="D:\FLASH GAS\FLASH GAS LOGO WIDE WHITE.png"
         style="fill:#000000;stroke:none;stroke-width:0.20582066px;stroke-linecap:butt;stroke-linejoin:miter;stroke-opacity:1"
         d="m -1891.9332,3234.3707 c 0,0 5.9124,-1.5918 10.233,-7.7317 0,0 3.07,8.1865 -0.5684,11.5976 -3.6385,3.4109 -13.303,4.8891 -13.303,4.8891 l -2.9563,-2.7289 z"
         id="path3599"
         inkscape:connector-curvature="0" />
      <path
         inkscape:export-ydpi="96"
         inkscape:export-xdpi="96"
         inkscape:export-filename="D:\FLASH GAS\FLASH GAS LOGO WIDE WHITE.png"
         style="fill:#000000;stroke:none;stroke-width:0.20582066px;stroke-linecap:butt;stroke-linejoin:miter;stroke-opacity:1"
         d="m -1912.235,3239.4904 c 0,0 -9.3262,-2.8943 -12.8638,-11.2558 0,0 -3.4571,7.1555 1.206,12.8637 4.6631,5.7084 11.8186,0.9649 11.8186,0.9649 v -2.9748 z"
         id="path3601"
         inkscape:connector-curvature="0" />
      <path
         inkscape:export-ydpi="96"
         inkscape:export-xdpi="96"
         inkscape:export-filename="D:\FLASH GAS\FLASH GAS LOGO WIDE WHITE.png"
         style="fill:#000014;fill-opacity:1;stroke:none;stroke-width:0.20582066px;stroke-linecap:butt;stroke-linejoin:miter;stroke-opacity:1"
         d="m -1938.445,3233.7017 c 0,0 -7.2359,-5.1455 -7.5575,-12.2206 0,0 -20.582,-6.5927 -13.507,1.4472 7.0752,8.0399 21.0645,10.7734 21.0645,10.7734 z"
         id="path3607"
         inkscape:connector-curvature="0"
         sodipodi:nodetypes="ccsc" />
      <path
         inkscape:export-ydpi="96"
         inkscape:export-xdpi="96"
         inkscape:export-filename="D:\FLASH GAS\FLASH GAS LOGO WIDE WHITE.png"
         inkscape:connector-curvature="0"
         id="path3679"
         d="m -1945.9412,3217.8841 -5.0596,-1.1371 -4.0364,1.933 3.0699,4.2637 5.5145,-1.5349 z"
         style="fill:#000014;fill-opacity:1;stroke:none;stroke-width:0.20582066px;stroke-linecap:butt;stroke-linejoin:miter;stroke-opacity:1" />
      <path
         inkscape:export-filename="D:\FLASH GAS\FLASH GAS LOGO WIDE WHITE.png"
         style="fill:#410000;fill-opacity:1;stroke:none;stroke-width:0.14575289px;stroke-linecap:butt;stroke-linejoin:miter;stroke-opacity:1"
         d="m -1962.7557,3215.3355 c 0,0 -6.2402,9.7024 -11.4335,11.2725 -5.1936,1.57 4.0258,4.4285 4.0258,4.4285 l 3.7039,-5.3545 1.9324,-5.3947 1.5097,-3.8649 z"
         id="path3731"
         inkscape:connector-curvature="0"
         inkscape:export-xdpi="96"
         inkscape:export-ydpi="96" />
      <path
         inkscape:export-filename="D:\FLASH GAS\FLASH GAS LOGO WIDE WHITE.png"
         style="fill:#410000;fill-opacity:1;stroke:none;stroke-width:0.14575289px;stroke-linecap:butt;stroke-linejoin:miter;stroke-opacity:1"
         d="m -1970.823,3221.0114 c 0,0 -5.3793,4.3888 -7.3922,3.181 -2.0129,-1.2077 -0.322,3.8246 0,3.7441 0.3221,-0.081 4.3479,0.4831 4.6701,-0.1207 0.322,-0.604 2.0935,-4.1467 2.0935,-4.1467 z"
         id="path3733"
         inkscape:connector-curvature="0"
         inkscape:export-xdpi="96"
         inkscape:export-ydpi="96" />
      <path
         inkscape:export-filename="D:\FLASH GAS\FLASH GAS LOGO WIDE WHITE.png"
         style="fill:#410000;fill-opacity:1;stroke:none;stroke-width:0.14575289px;stroke-linecap:butt;stroke-linejoin:miter;stroke-opacity:1"
         d="m -1994.0523,3226.9327 c 0,0 4.5547,4.7255 6.092,4.6686 0,0 1.5941,-4.4979 4.9533,-5.1242 3.359,-0.6262 -1.0248,9.9067 -1.0248,9.9067 l -3.6845,0.6915 -6.1193,-5.7973 z"
         id="path3735"
         inkscape:connector-curvature="0"
         inkscape:export-xdpi="96"
         inkscape:export-ydpi="96" />
      <path
         inkscape:export-filename="D:\FLASH GAS\FLASH GAS LOGO WIDE WHITE.png"
         style="fill:#410000;fill-opacity:1;stroke:none;stroke-width:0.14575289px;stroke-linecap:butt;stroke-linejoin:miter;stroke-opacity:1"
         d="m -2003.7311,3223.8582 c 0,0 2.1255,4.3198 4.4605,5.4471 2.3351,1.1273 5.435,1.9727 5.435,1.9727 l 0.5233,2.2545 -7.8505,-0.1208 -2.8987,-5.1934 z"
         id="path3737"
         inkscape:connector-curvature="0"
         inkscape:export-xdpi="96"
         inkscape:export-ydpi="96" />
      <path
         inkscape:export-filename="D:\FLASH GAS\FLASH GAS LOGO WIDE WHITE.png"
         style="fill:#000000;stroke:none;stroke-width:0.14575289px;stroke-linecap:butt;stroke-linejoin:miter;stroke-opacity:1"
         d="m -1997.9239,3234.2203 c 0,0 -6.0351,-7.0599 -5.8072,-10.3621 0,0 -2.3914,3.8715 0.2276,8.1986 2.619,4.327 5.5796,2.1635 5.5796,2.1635 z"
         id="path3739"
         inkscape:connector-curvature="0"
         inkscape:export-xdpi="96"
         inkscape:export-ydpi="96" />
      <path
         inkscape:export-filename="D:\FLASH GAS\FLASH GAS LOGO WIDE WHITE.png"
         style="fill:#000000;stroke:none;stroke-width:0.14575289px;stroke-linecap:butt;stroke-linejoin:miter;stroke-opacity:1"
         d="m -1980.1476,3235.9481 c 0,0 12.3997,-7.2467 17.3919,-20.6126 0,0 -1.6906,16.6074 -11.5974,21.9593 h -9.1093 z"
         id="path3741"
         inkscape:connector-curvature="0"
         inkscape:export-xdpi="96"
         inkscape:export-ydpi="96" />
      <path
         inkscape:export-filename="D:\FLASH GAS\FLASH GAS LOGO WIDE WHITE.png"
         style="fill:#000000;stroke:none;stroke-width:0.14575289px;stroke-linecap:butt;stroke-linejoin:miter;stroke-opacity:1"
         d="m -1966.7011,3235.3844 c 0,0 9.2595,-9.0985 9.34,-15.9425 0,0 2.2546,3.8647 0.5636,8.6959 -1.6908,4.8311 -9.9036,7.2466 -9.9036,7.2466 z"
         id="path3743"
         inkscape:connector-curvature="0"
         inkscape:export-xdpi="96"
         inkscape:export-ydpi="96" />
      <path
         inkscape:export-filename="D:\FLASH GAS\FLASH GAS LOGO WIDE WHITE.png"
         style="fill:#000000;stroke:none;stroke-width:0.14575289px;stroke-linecap:butt;stroke-linejoin:miter;stroke-opacity:1"
         d="m -1981.1851,3228.1852 c 0,0 8.4264,-2.2774 10.3621,-7.1738 0,0 0.7971,10.4761 -4.441,14.1199 -5.2379,3.6437 -6.2627,0.6831 -6.2627,0.6831 z"
         id="path3745"
         inkscape:connector-curvature="0"
         inkscape:export-xdpi="96"
         inkscape:export-ydpi="96" />
      <path
         inkscape:export-filename="D:\FLASH GAS\FLASH GAS LOGO WIDE WHITE.png"
         style="fill:#000000;stroke:none;stroke-width:0.14575289px;stroke-linecap:butt;stroke-linejoin:miter;stroke-opacity:1"
         d="m -1970.5659,3231.278 c 0,0 4.1868,-1.1273 7.2466,-5.4752 0,0 2.174,5.7973 -0.4027,8.2128 -2.5765,2.4155 -9.4206,3.4623 -9.4206,3.4623 l -2.0935,-1.9324 z"
         id="path3747"
         inkscape:connector-curvature="0"
         inkscape:export-xdpi="96"
         inkscape:export-ydpi="96" />
      <path
         inkscape:export-filename="D:\FLASH GAS\FLASH GAS LOGO WIDE WHITE.png"
         style="fill:#000000;stroke:none;stroke-width:0.14575289px;stroke-linecap:butt;stroke-linejoin:miter;stroke-opacity:1"
         d="m -1984.9428,3234.9035 c 0,0 -6.6044,-2.0496 -9.1095,-7.9708 0,0 -2.4483,5.0671 0.8541,9.1095 3.3021,4.0424 8.3692,0.6832 8.3692,0.6832 v -2.1066 z"
         id="path3749"
         inkscape:connector-curvature="0"
         inkscape:export-xdpi="96"
         inkscape:export-ydpi="96" />
      <path
         inkscape:export-filename="D:\FLASH GAS\FLASH GAS LOGO WIDE WHITE.png"
         style="fill:#000000;stroke:none;stroke-width:0.14575289px;stroke-linecap:butt;stroke-linejoin:miter;stroke-opacity:1"
         d="m -1965.9764,3224.6755 c 0,0 9.1789,-1.5298 9.9841,-14.8153 l 7.1662,0.8857 -0.6442,1.9325 -1.4494,2.7376 -5.3142,13.527 -9.662,3.7038 c 0,0 -4.4286,-1.2078 -4.2675,-1.6103 0.1611,-0.4026 4.187,-6.361 4.187,-6.361 z"
         id="path3751"
         inkscape:connector-curvature="0"
         inkscape:export-xdpi="96"
         inkscape:export-ydpi="96" />
      <g
         inkscape:export-ydpi="96"
         inkscape:export-xdpi="96"
         inkscape:export-filename="D:\FLASH GAS\FLASH GAS LOGO WIDE WHITE.png"
         transform="translate(0,-45.475261)"
         id="g5041">
        <g
           inkscape:export-ydpi="96"
           inkscape:export-xdpi="96"
           id="g3729"
           style="font-style:italic;font-variant:normal;font-weight:normal;font-stretch:normal;font-size:86.98194885px;line-height:1.25;font-family:'Hemi Head';-inkscape-font-specification:'Hemi Head, Italic';font-variant-ligatures:normal;font-variant-caps:normal;font-variant-numeric:normal;font-feature-settings:normal;text-align:start;letter-spacing:0px;word-spacing:0px;writing-mode:lr-tb;text-anchor:start;fill:#ececec;fill-opacity:1;stroke:#000014;stroke-width:22;stroke-linecap:round;stroke-linejoin:round;stroke-miterlimit:4;stroke-dasharray:none;stroke-opacity:1"
           transform="matrix(0.86418841,0,0,0.81759307,-4914.5458,2452.7385)"
           aria-label="GAS">
          <path
             id="path3723"
             style="font-style:italic;font-variant:normal;font-weight:normal;font-stretch:normal;font-size:86.98194885px;font-family:'Hemi Head';-inkscape-font-specification:'Hemi Head, Italic';font-variant-ligatures:normal;font-variant-caps:normal;font-variant-numeric:normal;font-feature-settings:normal;text-align:start;writing-mode:lr-tb;text-anchor:start;fill:#ececec;fill-opacity:1;stroke:#000014;stroke-width:22;stroke-linecap:round;stroke-linejoin:round;stroke-miterlimit:4;stroke-dasharray:none;stroke-opacity:1"
             d="m 3537.253,1049.2719 q -4.4361,0 -6.4367,-1.5657 -1.9136,-1.5657 -1.9136,-4.784 0,-1.6527 0.5219,-3.9142 l 8.0893,-38.3591 q 1.1308,-5.21888 3.8272,-7.74135 2.6965,-2.52248 8.3503,-2.52248 h 36.3584 l -2.4355,11.74253 h -30.6176 q -1.7396,0 -2.4355,0.6089 -0.6089,0.6089 -1.0438,2.6095 l -6.3497,30.0087 q -0.1739,0.8699 -0.1739,1.1308 0,0.8698 0.5219,1.2178 0.5219,0.2609 1.8266,0.2609 h 18.8751 l 2.8704,-13.3952 h -11.6556 l 2.0006,-9.4811 h 24.007 l -7.2195,34.184 z"
             inkscape:connector-curvature="0" />
          <path
             id="path3725"
             style="font-style:italic;font-variant:normal;font-weight:normal;font-stretch:normal;font-size:86.98194885px;font-family:'Hemi Head';-inkscape-font-specification:'Hemi Head, Italic';font-variant-ligatures:normal;font-variant-caps:normal;font-variant-numeric:normal;font-feature-settings:normal;text-align:start;writing-mode:lr-tb;text-anchor:start;fill:#ececec;fill-opacity:1;stroke:#000014;stroke-width:22;stroke-linecap:round;stroke-linejoin:round;stroke-miterlimit:4;stroke-dasharray:none;stroke-opacity:1"
             d="m 3619.4101,1049.2719 -0.6088,-9.1332 h -21.2236 l -4.5231,9.1332 h -12.7863 l 30.6176,-58.88683 h 17.3094 l 4.5231,58.88683 z m -2.8704,-47.0573 -14.265,28.1822 h 16.0917 z"
             inkscape:connector-curvature="0" />
          <path
             id="path3727"
             style="font-style:italic;font-variant:normal;font-weight:normal;font-stretch:normal;font-size:86.98194885px;font-family:'Hemi Head';-inkscape-font-specification:'Hemi Head, Italic';font-variant-ligatures:normal;font-variant-caps:normal;font-variant-numeric:normal;font-feature-settings:normal;text-align:start;writing-mode:lr-tb;text-anchor:start;fill:#ececec;fill-opacity:1;stroke:#000014;stroke-width:22;stroke-linecap:round;stroke-linejoin:round;stroke-miterlimit:4;stroke-dasharray:none;stroke-opacity:1"
             d="m 3638.7826,1049.2719 2.4355,-11.4817 h 31.4005 q 1.5657,0 2.2616,-0.6088 0.7828,-0.6089 1.1307,-2.2616 l 1.7397,-8.1763 q 0.087,-0.3479 0.087,-0.9568 0,-1.5657 -2.2615,-1.5657 h -23.2242 q -3.5662,0 -5.2189,-1.4786 -1.5657,-1.5657 -1.5657,-4.3491 0,-1.0438 0.261,-2.5225 l 3.2183,-15.2219 q 1.1308,-5.21888 3.8272,-7.74135 2.6965,-2.52248 8.4373,-2.52248 h 36.6194 l -2.3485,11.22063 h -31.2266 q -1.3917,0 -2.0005,0.6089 -0.6089,0.6089 -0.9568,2.1746 l -1.6527,7.7414 q -0.087,0.3479 -0.174,0.6088 0,0.261 0,0.5219 0,1.3048 1.9136,1.3048 h 23.5721 q 3.6533,0 5.219,1.5656 1.6526,1.5657 1.6526,4.3491 0,1.1308 -0.2609,2.4355 l -3.3923,16.0917 q -1.1308,5.2189 -3.8272,7.7414 -2.6965,2.5225 -8.3503,2.5225 z"
             inkscape:connector-curvature="0" />
        </g>
        <path
           inkscape:export-ydpi="96"
           inkscape:export-xdpi="96"
           style="color:#000000;font-style:italic;font-variant:normal;font-weight:normal;font-stretch:normal;font-size:133.49272156px;line-height:1.25;font-family:'Hemi Head';-inkscape-font-specification:'Hemi Head, Italic';font-variant-ligatures:normal;font-variant-position:normal;font-variant-caps:normal;font-variant-numeric:normal;font-variant-alternates:normal;font-feature-settings:normal;text-indent:0;text-align:start;text-decoration:none;text-decoration-line:none;text-decoration-style:solid;text-decoration-color:#000000;letter-spacing:0px;word-spacing:0px;text-transform:none;writing-mode:lr-tb;direction:ltr;text-orientation:mixed;dominant-baseline:auto;baseline-shift:baseline;text-anchor:start;white-space:normal;shape-padding:0;clip-rule:nonzero;display:inline;overflow:visible;visibility:visible;opacity:1;isolation:auto;mix-blend-mode:normal;color-interpolation:sRGB;color-interpolation-filters:linearRGB;solid-color:#000000;solid-opacity:1;vector-effect:none;fill:#000014;fill-opacity:1;fill-rule:nonzero;stroke:none;stroke-width:11.01754284;stroke-linecap:round;stroke-linejoin:round;stroke-miterlimit:4;stroke-dasharray:none;stroke-dashoffset:0;stroke-opacity:1;color-rendering:auto;image-rendering:auto;shape-rendering:auto;text-rendering:auto;enable-background:accumulate"
           d="m -2092.4275,3253.4082 a 8.2639834,8.2639834 0 0 0 -8.0856,6.561 l -2.0595,9.7802 a 8.2639834,8.2639834 0 0 0 -0.1624,1.9647 8.2639834,8.2639834 0 0 0 -0.5693,1.6967 l -7.7219,36.3278 a 8.2639834,8.2639834 0 0 0 8.0836,9.9815 h 11.5448 a 8.2639834,8.2639834 0 0 0 8.0834,-6.5504 l 2.8039,-13.2317 h 12.0569 a 8.2639834,8.2639834 0 0 0 0.68,-0.034 l -2.0798,9.8449 a 8.2639834,8.2639834 0 0 0 8.0845,9.9717 h 33.3861 a 8.2639834,8.2639834 0 0 0 1.7421,-0.1915 8.2639834,8.2639834 0 0 0 1.7192,0.1915 h 10.8099 a 8.2639834,8.2639834 0 0 0 7.4047,-4.5965 l 1.5483,-3.1254 h 5.0836 v 0.01 a 8.2639834,8.2639834 0 0 0 8.2438,7.7144 h 11.2521 a 8.2639834,8.2639834 0 0 0 2.5564,-0.4121 8.2639834,8.2639834 0 0 0 2.5414,0.4121 h 28.4734 c 3.0312,0 6.1589,-0.5261 9.0078,-1.9099 a 8.2639834,8.2639834 0 0 0 5.2742,1.9099 h 11.1768 a 8.2639834,8.2639834 0 0 0 8.0855,-6.56 l 2.9568,-14.0312 h 2.5983 l -2.2378,10.6238 a 8.2639834,8.2639834 0 0 0 8.0855,9.9674 h 11.1779 a 8.2639834,8.2639834 0 0 0 8.0845,-6.5557 l 10.5162,-49.7855 a 8.2639834,8.2639834 0 0 0 -8.0845,-9.9706 h -11.1779 a 8.2639834,8.2639834 0 0 0 -8.0856,6.5556 l -2.8071,13.2996 h -2.5973 l 2.0872,-9.8857 a 8.2639834,8.2639834 0 0 0 -8.0844,-9.9695 h -11.1778 a 8.2639834,8.2639834 0 0 0 -3.1742,0.6358 8.2639834,8.2639834 0 0 0 -3.1654,-0.6358 h -30.9587 c -4.4461,0 -9.1228,0.9404 -12.779,4.3607 -1.6119,1.5079 -2.8181,3.2479 -3.7345,5.116 l -0.142,-1.8463 a 8.2639834,8.2639834 0 0 0 -8.2384,-7.6304 h -14.635 a 8.2639834,8.2639834 0 0 0 -7.3313,4.451 l -18.3316,35.2594 h -13.5698 l 6.2792,-29.7409 a 8.2639834,8.2639834 0 0 0 -8.0845,-9.9695 h -11.1778 a 8.2639834,8.2639834 0 0 0 -2.1563,0.2958 8.2639834,8.2639834 0 0 0 -2.1755,-0.2958 z m 149.832,54.045 -0.3678,0.3036 c 0.07,-0.054 0.1057,-0.1141 0.1732,-0.169 0.064,-0.054 0.1295,-0.077 0.1946,-0.1346 z"
           id="path3753"
           inkscape:connector-curvature="0" />
      </g>
      <path
         inkscape:export-filename="D:\FLASH GAS\FLASH GAS LOGO WIDE WHITE.png"
         sodipodi:nodetypes="cccccccccccccccscccssscscccsccsccccssscscccscccccccccccccccccccccccccccccccccccc"
         inkscape:connector-curvature="0"
         d="m -1890.8822,3265.981 h -11.1777 l 4.3387,-20.5906 h -19.4875 l -4.3389,20.5906 h -11.1777 l 10.5159,-49.7853 h 11.1778 l -4.1916,19.8554 h 19.4875 l 4.1918,-19.8554 h 11.1777 z m -84.598,0 -0.9202,-9.707 h 26.452 c 0.8825,0 1.5197,-0.1715 1.9119,-0.5146 0.4413,-0.3433 0.76,-0.9807 0.9561,-1.9122 l 1.4708,-6.9126 c 0.05,-0.196 0.073,-0.4656 0.073,-0.8087 0,-0.8826 -0.6373,-1.3238 -1.912,-1.3238 h -19.6347 c -2.01,0 -3.4808,-0.4167 -4.4122,-1.2502 -0.8826,-0.8824 -1.3238,-2.108 -1.3238,-3.6769 0,-0.5883 0.073,-1.2991 0.2207,-2.1326 l 2.7208,-12.8691 c 0.6373,-2.9416 1.7159,-5.1232 3.2358,-6.5449 1.5198,-1.4217 3.8974,-2.1327 7.1331,-2.1327 h 30.9596 l -1.9856,9.4865 h -26.4001 c -0.7845,0 -1.3482,0.1715 -1.6914,0.5147 -0.3432,0.3433 -0.6129,0.956 -0.809,1.8385 l -1.3972,6.5449 c -0.049,0.1961 -0.098,0.3677 -0.1471,0.5148 v 0.4411 c 0,0.7355 0.5393,1.1032 1.6179,1.1032 h 19.9289 c 2.059,0 3.5298,0.4412 4.4122,1.3237 0.9315,0.8823 1.3972,2.1081 1.3972,3.6768 0,0.6374 -0.073,1.3238 -0.2206,2.0591 l -2.868,13.6047 c -0.6373,2.9413 -1.7159,5.123 -3.2356,6.5448 -1.5199,1.4217 -3.873,2.1325 -7.0597,2.1325 z m -16.3494,0 -0.5147,-7.7215 h -17.9433 l -3.824,7.7215 h -10.8101 l 25.8855,-49.7853 h 14.634 l 3.824,49.7853 z m -2.4267,-39.7841 -12.0603,23.8264 h 13.6045 z m -34.1262,39.7841 h -33.3864 l 10.5159,-49.7853 h 11.1779 l -8.3834,39.7107 h 25.1122 z m -58.8233,-19.7817 -4.1918,19.7817 h -11.5454 l 7.7214,-36.3278 h 11.5456 l -1.765,8.2363 h 18.7522 l -0.8825,4.1549 -0.8824,4.1549 z m -7.2804,-20.223 2.0591,-9.7806 h 36.8426 l -2.0591,9.7806 z"
         style="font-style:italic;font-variant:normal;font-weight:normal;font-stretch:normal;font-size:133.49272156px;line-height:1.25;font-family:'Hemi Head';-inkscape-font-specification:'Hemi Head, Italic';font-variant-ligatures:normal;font-variant-caps:normal;font-variant-numeric:normal;font-feature-settings:normal;text-align:start;letter-spacing:0px;word-spacing:0px;writing-mode:lr-tb;text-anchor:start;fill:#ececec;fill-opacity:1;stroke:none;stroke-width:1.83845222"
         id="path3757"
         inkscape:export-xdpi="96"
         inkscape:export-ydpi="96" />
      <path
         inkscape:export-filename="D:\FLASH GAS\FLASH GAS LOGO WIDE WHITE.png"
         sodipodi:nodetypes="cccccccc"
         inkscape:connector-curvature="0"
         id="path3761"
         d="m -2101.0285,3264.5848 4.8964,-22.5404 h 26.8915 l -0.5307,2.898 h -19.0731 l -4.0425,19.4717 -0.061,0.2058 z"
         style="fill:#b3b3b3;stroke:none;stroke-width:0.14575289px;stroke-linecap:butt;stroke-linejoin:miter;stroke-opacity:1"
         inkscape:export-xdpi="96"
         inkscape:export-ydpi="96" />
      <path
         inkscape:export-filename="D:\FLASH GAS\FLASH GAS LOGO WIDE WHITE.png"
         style="fill:#b3b3b3;fill-opacity:1;stroke:none;stroke-width:0.14575289px;stroke-linecap:butt;stroke-linejoin:miter;stroke-opacity:1"
         d="m -2055.0292,3242.0445 h -4e-4 l 4.6851,0.7867 -4.9895,0.6343 -4.5204,21.1176 30.1886,-0.053 2.8427,-5.6216 -4.7855,-0.6086 4.6137,-0.7749 h -23.7668 l 2.6922,-12.6255 -4.7959,-0.6098 5.1085,-0.8579 0.2964,-1.3893 z"
         id="path3763"
         inkscape:export-xdpi="96"
         inkscape:export-ydpi="96"
         inkscape:connector-curvature="0" />
      <path
         inkscape:export-filename="D:\FLASH GAS\FLASH GAS LOGO WIDE WHITE.png"
         id="path3765"
         d="m -2010.455,3242.0443 -0.028,0.053 4.7182,0.7923 -5.5066,0.7002 -11.0267,20.8813 6.7754,-0.1711 4.0422,-7.857 h 20.9521 l 0.613,8.1419 7.5855,-0.1707 -1.662,-19.7875 -3.0857,-0.5056 2.9891,-0.6473 -0.1199,-1.4295 h -7.1738 l 0.01,0.1343 5.2506,0.8822 -5.149,0.6546 0.5156,7.7744 h -18.6179 l 0.3032,-0.5656 -2.6027,-0.4265 3.2041,-0.6937 4.1624,-7.7597 z"
         style="fill:#b3b3b3;fill-opacity:1;stroke:none;stroke-width:0.14575288px;stroke-linecap:butt;stroke-linejoin:miter;stroke-opacity:1"
         inkscape:connector-curvature="0"
         inkscape:export-xdpi="96"
         inkscape:export-ydpi="96" />
      <path
         inkscape:export-filename="D:\FLASH GAS\FLASH GAS LOGO WIDE WHITE.png"
         id="path3767"
         d="m -1970.2271,3242.0443 4.2946,0.7216 -3.2813,0.417 c 0.5493,0.2204 1.0039,0.2793 1.0039,0.2793 h 20.269 c 2.3205,-0.058 3.324,0.5891 3.7494,1.2453 l 3.6947,0.8002 -3.4301,0.562 -1.9199,8.8804 c -0.7246,3.3818 -3.5429,3.1002 -3.5429,3.1002 h -24.8801 l 0.7041,6.5347 27.5607,-0.057 c 6.6044,0.2278 7.8074,-8.1284 7.8074,-8.1284 0,0 2.4559,-11.3934 2.6572,-12.3194 0.036,-0.1664 0.053,-0.3382 0.062,-0.509 l -4.0132,-0.6581 3.8769,-0.8392 c 0,0 -0.01,-0.03 -0.01,-0.03 z"
         style="fill:#b3b3b3;fill-opacity:1;stroke:none;stroke-width:0.14575288px;stroke-linecap:butt;stroke-linejoin:miter;stroke-opacity:1"
         inkscape:connector-curvature="0"
         inkscape:export-xdpi="96"
         inkscape:export-ydpi="96" />
      <path
         inkscape:export-filename="D:\FLASH GAS\FLASH GAS LOGO WIDE WHITE.png"
         inkscape:connector-curvature="0"
         id="path3769"
         d="m -1930.8108,3264.5848 4.6906,-22.5404 h 38.4071 l -4.7164,22.5404 h -7.7159 l 4.3805,-20.5044 h -23.0281 l -4.1869,20.3709 -0.025,0.1057 z"
         style="fill:#b3b3b3;fill-opacity:1;stroke:none;stroke-width:0.14575289px;stroke-linecap:butt;stroke-linejoin:miter;stroke-opacity:1"
         inkscape:export-xdpi="96"
         inkscape:export-ydpi="96" />
      <path
         inkscape:export-filename="D:\FLASH GAS\FLASH GAS LOGO WIDE WHITE.png"
         inkscape:connector-curvature="0"
         id="path3771"
         d="m -2097.4829,3244.3576 8.2129,-1.1515 -7.4882,-1.3872 z"
         style="fill:#ececec;fill-opacity:1;stroke:none;stroke-width:0.11751799px;stroke-linecap:butt;stroke-linejoin:miter;stroke-opacity:1"
         inkscape:export-xdpi="96"
         inkscape:export-ydpi="96" />
      <path
         inkscape:export-filename="D:\FLASH GAS\FLASH GAS LOGO WIDE WHITE.png"
         style="fill:#ececec;fill-opacity:1;stroke:none;stroke-width:0.09081779px;stroke-linecap:butt;stroke-linejoin:miter;stroke-opacity:1"
         d="m -2068.1756,3243.5404 -7.0013,-0.8068 6.3836,-0.9717 z"
         id="path3773"
         inkscape:connector-curvature="0"
         inkscape:export-xdpi="96"
         inkscape:export-ydpi="96" />
      <path
         inkscape:export-filename="D:\FLASH GAS\FLASH GAS LOGO WIDE WHITE.png"
         inkscape:connector-curvature="0"
         id="path3775"
         d="m -1927.1645,3244.1476 7.9405,-1.0094 -7.2401,-1.2158 z"
         style="fill:#ececec;fill-opacity:1;stroke:none;stroke-width:0.10818675px;stroke-linecap:butt;stroke-linejoin:miter;stroke-opacity:1"
         inkscape:export-xdpi="96"
         inkscape:export-ydpi="96" />
      <path
         inkscape:export-filename="D:\FLASH GAS\FLASH GAS LOGO WIDE WHITE.png"
         style="fill:#ececec;fill-opacity:1;stroke:none;stroke-width:0.07496987px;stroke-linecap:butt;stroke-linejoin:miter;stroke-opacity:1"
         d="m -1896.463,3245.6279 5.5025,-0.6994 -5.0172,-0.8425 z"
         id="path3777"
         inkscape:connector-curvature="0"
         inkscape:export-xdpi="96"
         inkscape:export-ydpi="96" />
      <path
         inkscape:export-filename="D:\FLASH GAS\FLASH GAS LOGO WIDE WHITE.png"
         inkscape:connector-curvature="0"
         id="path3779"
         d="m -1886.4626,3243.4644 -5.5026,-0.6995 5.0172,-0.8425 z"
         style="fill:#ececec;fill-opacity:1;stroke:none;stroke-width:0.07496987px;stroke-linecap:butt;stroke-linejoin:miter;stroke-opacity:1"
         inkscape:export-xdpi="96"
         inkscape:export-ydpi="96" />
      <path
         inkscape:export-filename="D:\FLASH GAS\FLASH GAS LOGO WIDE WHITE.png"
         sodipodi:nodetypes="ccccccccccccccccccccccccc"
         inkscape:connector-curvature="0"
         style="fill:#b3b3b3;fill-opacity:1;stroke:none;stroke-width:0.14575288px;stroke-linecap:butt;stroke-linejoin:miter;stroke-opacity:1"
         d="m -1805.8961,3241.983 -0.028,0.053 5.3018,0.8537 -5.9367,0.6081 -11.7023,20.6663 7.6047,0.075 4.3186,-7.7956 h 20.496 l 0.6083,8.142 8.4764,-0.1708 -1.5003,-19.7875 -3.6775,-0.5055 3.5419,-0.6472 -0.1199,-1.4296 h -7.7266 l 0.01,0.1342 5.2507,0.8822 -5.1489,0.6546 0.5155,7.2532 h -18.6178 l 0.303,-0.044 -2.6027,-0.4266 3.2042,-0.6936 4.1624,-7.7597 z"
         id="path3793"
         inkscape:export-xdpi="96"
         inkscape:export-ydpi="96" />
      <path
         inkscape:export-filename="D:\FLASH GAS\FLASH GAS LOGO WIDE WHITE.png"
         sodipodi:nodetypes="cccccccccccccccccccc"
         inkscape:connector-curvature="0"
         style="fill:#b3b3b3;fill-opacity:1;stroke:none;stroke-width:0.14575288px;stroke-linecap:butt;stroke-linejoin:miter;stroke-opacity:1"
         d="m -1760.6053,3242.0443 4.2945,0.7216 -3.2813,0.417 c 0.5493,0.2204 1.0039,0.2793 1.0039,0.2793 h 20.2689 c 2.3205,-0.058 3.324,0.5891 3.7495,1.2453 l 3.6947,0.8002 -3.4301,0.562 -1.92,8.8804 c -0.9243,2.2834 -3.55,2.3656 -3.5428,2.4051 h -29.0284 l 0.704,6.3176 31.7092,-0.057 c 6.6043,0.2277 7.8073,-7.2163 7.8073,-7.2163 0,0 2.4559,-11.3934 2.6572,-12.3193 0.036,-0.1665 0.053,-0.3383 0.062,-0.5092 l -4.0132,-0.658 3.8768,-0.8392 c 0,0 -0.01,-0.03 -0.01,-0.03 z"
         id="path3795"
         inkscape:export-xdpi="96"
         inkscape:export-ydpi="96" />
      <path
         inkscape:export-filename="D:\FLASH GAS\FLASH GAS LOGO WIDE WHITE.png"
         inkscape:connector-curvature="0"
         id="path3797"
         d="m -1859.4478,3242.0266 -3.388,15.0186 c 0,0 -1.9113,6.6459 3.8659,6.7328 h 31.9266 l 4.8946,-21.7514 h -17.5383 l -0.4607,1.8795 h 9.8901 l -3.0407,13.6169 h -17.8963 c 0,0 -4.3437,0.087 -3.1492,-4.1049 l 2.5244,-11.3915 z"
         style="fill:#b3b3b3;fill-opacity:1;stroke:none;stroke-width:0.22240025px;stroke-linecap:butt;stroke-linejoin:miter;stroke-opacity:1"
         inkscape:export-xdpi="96"
         inkscape:export-ydpi="96" />
      <path
         inkscape:export-filename="D:\FLASH GAS\FLASH GAS LOGO WIDE WHITE.png"
         style="fill:#ececec;fill-opacity:1;stroke:none;stroke-width:0.07177888px;stroke-linecap:butt;stroke-linejoin:miter;stroke-opacity:1"
         d="m -1860.4107,3243.4262 5.2684,-0.6697 -4.8037,-0.8067 z"
         id="path3799"
         inkscape:connector-curvature="0"
         inkscape:export-xdpi="96"
         inkscape:export-ydpi="96" />
      <path
         inkscape:export-filename="D:\FLASH GAS\FLASH GAS LOGO WIDE WHITE.png"
         inkscape:connector-curvature="0"
         id="path3801"
         d="m -1850.6579,3243.8782 -3.6712,-0.4667 3.3473,-0.5621 z"
         style="fill:#ececec;fill-opacity:1;stroke:none;stroke-width:0.050018px;stroke-linecap:butt;stroke-linejoin:miter;stroke-opacity:1"
         inkscape:export-xdpi="96"
         inkscape:export-ydpi="96" />
      <path
         inkscape:export-filename="D:\FLASH GAS\FLASH GAS LOGO WIDE WHITE.png"
         inkscape:connector-curvature="0"
         id="path3803"
         d="m -1840.8487,3243.1067 5.2683,-0.6697 -4.8037,-0.8067 z"
         style="fill:#ececec;fill-opacity:1;stroke:none;stroke-width:0.07177888px;stroke-linecap:butt;stroke-linejoin:miter;stroke-opacity:1"
         inkscape:export-xdpi="96"
         inkscape:export-ydpi="96" />
      <path
         inkscape:export-filename="D:\FLASH GAS\FLASH GAS LOGO WIDE WHITE.png"
         style="fill:#ececec;fill-opacity:1;stroke:none;stroke-width:0.050018px;stroke-linecap:butt;stroke-linejoin:miter;stroke-opacity:1"
         d="m -1820.9751,3242.8853 -3.6711,-0.4667 3.3473,-0.5621 z"
         id="path3805"
         inkscape:connector-curvature="0"
         inkscape:export-xdpi="96"
         inkscape:export-ydpi="96" />
      <path
         inkscape:export-filename="D:\FLASH GAS\FLASH GAS LOGO WIDE WHITE.png"
         style="fill:#ececec;fill-opacity:1;stroke:none;stroke-width:0.07177888px;stroke-linecap:butt;stroke-linejoin:miter;stroke-opacity:1"
         d="m -1821.4515,3244.4274 -5.2684,-0.6697 4.8038,-0.8067 z"
         id="path3807"
         inkscape:connector-curvature="0"
         inkscape:export-xdpi="96"
         inkscape:export-ydpi="96" />
      <path
         inkscape:export-ydpi="96"
         inkscape:export-xdpi="96"
         inkscape:export-filename="D:\FLASH GAS\FLASH GAS LOGO WIDE WHITE.png"
         id="path4519"
         d="m -1681.1971,3208.127 c -4.3113,0 -8.7589,1.0393 -12.2475,4.0096 -3.297,2.8008 -5.0952,6.7279 -5.9254,10.7417 l -1.8506,8.7347 a 7.779827,7.779827 0 0 0 -0.02,0.099 c -0.2159,1.0882 -0.3722,2.1844 -0.3722,3.4474 0,0.7722 0.094,1.6085 0.2598,2.4644 -1.3403,1.7989 -2.279,3.8483 -2.6938,5.8191 l -2.6741,12.6273 a 7.779827,7.779827 0 0 0 -0.018,0.087 c -0.31,1.5508 -0.5226,2.9677 -0.5226,4.5717 0,3.3844 1.3225,7.5933 4.4896,10.1842 3.3698,2.7568 6.9093,3.0964 10.3513,3.0964 h 12.4875 c 2.3573,0 4.7504,-0.3937 7.0057,-1.2884 0.01,0 0.016,-0.01 0.024,-0.011 0,0 0,0 0.01,0 0,0 0.01,0 0.015,-0.01 l -0.014,0.01 c 0.1546,0.061 0.3082,0.1751 0.4619,0.2264 a 7.779827,7.779827 0 0 0 0.2264,0.072 c 2.6027,0.7805 5.2029,0.9967 8.1072,0.9967 h 6.6882 a 7.779827,7.779827 0 0 0 7.6149,-6.1852 l 2.0071,-9.5902 a 7.779827,7.779827 0 0 0 -1.6956,-6.635 7.779827,7.779827 0 0 0 4.7328,-5.582 l 1.6363,-7.5831 a 7.779827,7.779827 0 0 0 -7.6043,-9.4184 h -1.1182 a 7.779827,7.779827 0 0 0 -0.3768,-0.9116 7.779827,7.779827 0 0 0 0.6305,-1.8141 l 1.8581,-8.7712 a 7.779827,7.779827 0 0 0 -7.6089,-9.3911 z"
         style="color:#000000;font-style:italic;font-variant:normal;font-weight:normal;font-stretch:normal;font-size:34.50383759px;line-height:1.25;font-family:'Hemi Head';-inkscape-font-specification:'Hemi Head, Italic';font-variant-ligatures:normal;font-variant-position:normal;font-variant-caps:normal;font-variant-numeric:normal;font-variant-alternates:normal;font-feature-settings:normal;text-indent:0;text-align:start;text-decoration:none;text-decoration-line:none;text-decoration-style:solid;text-decoration-color:#000000;letter-spacing:0px;word-spacing:0px;text-transform:none;writing-mode:lr-tb;direction:ltr;text-orientation:mixed;dominant-baseline:auto;baseline-shift:baseline;text-anchor:start;white-space:normal;shape-padding:0;clip-rule:nonzero;display:inline;overflow:visible;visibility:visible;opacity:1;isolation:auto;mix-blend-mode:normal;color-interpolation:sRGB;color-interpolation-filters:linearRGB;solid-color:#000000;solid-opacity:1;vector-effect:none;fill:#000014;fill-opacity:1;fill-rule:nonzero;stroke:none;stroke-width:15.55809784;stroke-linecap:round;stroke-linejoin:round;stroke-miterlimit:4;stroke-dasharray:none;stroke-dashoffset:0;stroke-opacity:1;color-rendering:auto;image-rendering:auto;shape-rendering:auto;text-rendering:auto;enable-background:accumulate"
         inkscape:connector-curvature="0" />
      <path
         inkscape:export-ydpi="96"
         inkscape:export-xdpi="96"
         inkscape:export-filename="D:\FLASH GAS\FLASH GAS LOGO WIDE WHITE.png"
         id="path4517"
         d="m -1619.7715,3208.127 a 7.779827,7.779827 0 0 0 -7.6089,6.1655 l -2.0815,9.812 a 7.779827,7.779827 0 0 0 -0.1504,1.9873 7.779827,7.779827 0 0 0 -0.5941,1.7289 l -7.8049,36.7941 a 7.779827,7.779827 0 0 0 7.6104,9.3941 h 11.2979 a 7.779827,7.779827 0 0 0 7.6119,-6.1731 l 2.1165,-10.0323 h 13.9096 c 2.0371,0 4.1057,-0.2415 6.0971,-0.7961 l -1.609,7.6149 a 7.779827,7.779827 0 0 0 7.6104,9.3866 h 33.1765 a 7.779827,7.779827 0 0 0 5.7902,-2.5981 c 3.1746,2.25 6.4374,2.5981 9.6509,2.5981 h 25.0494 c 3.6223,0 7.3438,-0.7768 10.5139,-2.8944 a 7.779827,7.779827 0 0 0 6.047,2.8944 h 9.3652 a 7.779827,7.779827 0 0 0 6.2445,-3.1557 7.779827,7.779827 0 0 0 6.2445,3.1557 h 8.8441 a 7.779827,7.779827 0 0 0 6.1002,-2.9521 7.779827,7.779827 0 0 0 6.0911,2.9521 h 9.2923 a 7.779827,7.779827 0 0 0 4.1417,-1.2063 7.779827,7.779827 0 0 0 4.1494,1.2063 h 32.7798 c 3.6798,0 7.4342,-0.763 10.6507,-2.937 a 7.779827,7.779827 0 0 0 6.0789,2.937 h 11.2993 a 7.779827,7.779827 0 0 0 4.2132,-1.2505 7.779827,7.779827 0 0 0 4.2253,1.2505 h 10.4804 a 7.779827,7.779827 0 0 0 7.6104,-6.1685 l 2.7819,-13.1378 8.8852,15.4122 a 7.779827,7.779827 0 0 0 6.7398,3.8941 h 7.5071 a 7.779827,7.779827 0 0 0 6.1867,-3.0736 7.779827,7.779827 0 0 0 0.1034,0.082 c 3.3377,2.613 6.8524,2.9916 10.2951,2.9916 h 31.5917 a 7.779827,7.779827 0 0 0 7.6104,-6.1716 l 6.1701,-29.2125 a 7.779827,7.779827 0 0 0 -1.3826,-6.2505 7.779827,7.779827 0 0 0 3.2468,-4.8528 l 2.0815,-10.0353 a 7.779827,7.779827 0 0 0 -7.618,-9.3592 h -31.0706 c -3.6407,0 -7.3678,0.7548 -10.5549,2.8716 a 7.779827,7.779827 0 0 0 -6.0303,-2.8716 h -10.5549 a 7.779827,7.779827 0 0 0 -7.6119,6.1776 l -1.9979,9.4914 -6.3934,-11.6351 a 7.779827,7.779827 0 0 0 -6.8173,-4.0339 h -10.6294 a 7.779827,7.779827 0 0 0 -4.2131,1.2505 7.779827,7.779827 0 0 0 -4.2253,-1.2505 h -11.2994 a 7.779827,7.779827 0 0 0 -6.5712,3.6222 c -0.169,-0.1542 -0.2909,-0.3488 -0.471,-0.4923 -3.3319,-2.703 -6.9397,-3.1299 -10.4303,-3.1299 h -32.0369 a 7.779827,7.779827 0 0 0 -4.1417,1.2064 7.779827,7.779827 0 0 0 -4.1494,-1.2064 h -11.7445 a 7.779827,7.779827 0 0 0 -6.6122,3.6799 l -11.1307,17.9571 -2.8564,-15.2861 a 7.779827,7.779827 0 0 0 -7.6469,-6.3509 h -12.1912 a 7.779827,7.779827 0 0 0 -4.0065,1.1228 7.779827,7.779827 0 0 0 -4.0065,-1.1228 h -10.8512 a 7.779827,7.779827 0 0 0 -7.6119,6.1701 l -7.2139,34.1184 h -4.169 l 6.5347,-30.899 a 7.779827,7.779827 0 0 0 -7.6104,-9.3895 h -11.2979 a 7.779827,7.779827 0 0 0 -7.6119,6.1731 l -7.1698,33.9665 h -12.7959 l 6.4921,-30.7531 a 7.779827,7.779827 0 0 0 -7.6104,-9.3865 h -11.2993 a 7.779827,7.779827 0 0 0 -5.8434,2.6604 c -3.1668,-2.2837 -6.4592,-2.6604 -9.6737,-2.6604 z"
         style="color:#000000;font-style:italic;font-variant:normal;font-weight:normal;font-stretch:normal;font-size:34.50383759px;line-height:1.25;font-family:'Hemi Head';-inkscape-font-specification:'Hemi Head, Italic';font-variant-ligatures:normal;font-variant-position:normal;font-variant-caps:normal;font-variant-numeric:normal;font-variant-alternates:normal;font-feature-settings:normal;text-indent:0;text-align:start;text-decoration:none;text-decoration-line:none;text-decoration-style:solid;text-decoration-color:#000000;letter-spacing:0px;word-spacing:0px;text-transform:none;writing-mode:lr-tb;direction:ltr;text-orientation:mixed;dominant-baseline:auto;baseline-shift:baseline;text-anchor:start;white-space:normal;shape-padding:0;clip-rule:nonzero;display:inline;overflow:visible;visibility:visible;opacity:1;isolation:auto;mix-blend-mode:normal;color-interpolation:sRGB;color-interpolation-filters:linearRGB;solid-color:#000000;solid-opacity:1;vector-effect:none;fill:#000014;fill-opacity:1;fill-rule:nonzero;stroke:none;stroke-width:15.55809784;stroke-linecap:round;stroke-linejoin:round;stroke-miterlimit:4;stroke-dasharray:none;stroke-dashoffset:0;stroke-opacity:1;color-rendering:auto;image-rendering:auto;shape-rendering:auto;text-rendering:auto;enable-background:accumulate"
         inkscape:connector-curvature="0" />
      <g
         inkscape:export-ydpi="96"
         inkscape:export-xdpi="96"
         inkscape:export-filename="D:\FLASH GAS\FLASH GAS LOGO WIDE WHITE.png"
         transform="translate(0,-45.475261)"
         id="g5025">
        <g
           inkscape:export-ydpi="96"
           inkscape:export-xdpi="96"
           aria-label="GAS"
           transform="matrix(0.86418841,0,0,0.81759307,-4914.4544,2452.7385)"
           style="font-style:italic;font-variant:normal;font-weight:normal;font-stretch:normal;font-size:86.98194885px;line-height:1.25;font-family:'Hemi Head';-inkscape-font-specification:'Hemi Head, Italic';font-variant-ligatures:normal;font-variant-caps:normal;font-variant-numeric:normal;font-feature-settings:normal;text-align:start;letter-spacing:0px;word-spacing:0px;writing-mode:lr-tb;text-anchor:start;fill:#ececec;fill-opacity:1;stroke:none;stroke-width:2.17454863"
           id="g3791">
          <path
             d="m 3537.253,1049.2719 q -4.4361,0 -6.4367,-1.5657 -1.9136,-1.5657 -1.9136,-4.784 0,-1.6527 0.5219,-3.9142 l 8.0893,-38.3591 q 1.1308,-5.21888 3.8272,-7.74135 2.6965,-2.52248 8.3503,-2.52248 h 36.3584 l -2.4355,11.74253 h -30.6176 q -1.7396,0 -2.4355,0.6089 -0.6089,0.6089 -1.0438,2.6095 l -6.3497,30.0087 q -0.1739,0.8699 -0.1739,1.1308 0,0.8698 0.5219,1.2178 0.5219,0.2609 1.8266,0.2609 h 18.8751 l 2.8704,-13.3952 h -11.6556 l 2.0006,-9.4811 h 24.007 l -7.2195,34.184 z"
             style="font-style:italic;font-variant:normal;font-weight:normal;font-stretch:normal;font-size:86.98194885px;font-family:'Hemi Head';-inkscape-font-specification:'Hemi Head, Italic';font-variant-ligatures:normal;font-variant-caps:normal;font-variant-numeric:normal;font-feature-settings:normal;text-align:start;writing-mode:lr-tb;text-anchor:start;fill:#ececec;fill-opacity:1;stroke-width:2.17454863"
             id="path3785"
             inkscape:connector-curvature="0" />
          <path
             d="m 3619.4101,1049.2719 -0.6088,-9.1332 h -21.2236 l -4.5231,9.1332 h -12.7863 l 30.6176,-58.88683 h 17.3094 l 4.5231,58.88683 z m -2.8704,-47.0573 -14.265,28.1822 h 16.0917 z"
             style="font-style:italic;font-variant:normal;font-weight:normal;font-stretch:normal;font-size:86.98194885px;font-family:'Hemi Head';-inkscape-font-specification:'Hemi Head, Italic';font-variant-ligatures:normal;font-variant-caps:normal;font-variant-numeric:normal;font-feature-settings:normal;text-align:start;writing-mode:lr-tb;text-anchor:start;fill:#ececec;fill-opacity:1;stroke-width:2.17454863"
             id="path3787"
             inkscape:connector-curvature="0" />
          <path
             d="m 3638.7826,1049.2719 -1.0476,-11.4817 h 34.8836 c 1.0438,0 1.7977,-0.2029 2.2616,-0.6088 0.5219,-0.4059 0.8988,-1.1598 1.1307,-2.2616 l 1.7397,-8.1763 c 0.058,-0.2319 0.087,-0.5509 0.087,-0.9568 0,-1.0438 -0.7538,-1.5657 -2.2615,-1.5657 h -23.2242 c -2.3775,0 -4.1171,-0.4929 -5.2189,-1.4786 -1.0438,-1.0438 -1.5657,-2.4935 -1.5657,-4.3491 0,-0.6959 0.087,-1.5367 0.261,-2.5225 l 3.2183,-15.2219 c 0.7539,-3.47925 2.0296,-6.0597 3.8272,-7.74135 1.7977,-1.68165 4.6101,-2.52248 8.4373,-2.52248 h 36.6194 l -2.3485,11.22063 h -31.2266 c -0.9278,0 -1.5946,0.203 -2.0005,0.6089 -0.4059,0.4059 -0.7249,1.1308 -0.9568,2.1746 l -1.6527,7.7414 c -0.058,0.2319 -0.116,0.4349 -0.174,0.6088 v 0.5219 c 0,0.8699 0.6379,1.3048 1.9136,1.3048 h 23.5721 c 2.4355,0 4.1752,0.5219 5.219,1.5656 1.1017,1.0438 1.6526,2.4935 1.6526,4.3491 0,0.7539 -0.087,1.5657 -0.2609,2.4355 l -3.3923,16.0917 c -0.7539,3.4793 -2.0296,6.0597 -3.8272,7.7414 -1.7977,1.6817 -4.5811,2.5225 -8.3503,2.5225 z"
             style="font-style:italic;font-variant:normal;font-weight:normal;font-stretch:normal;font-size:86.98194885px;font-family:'Hemi Head';-inkscape-font-specification:'Hemi Head, Italic';font-variant-ligatures:normal;font-variant-caps:normal;font-variant-numeric:normal;font-feature-settings:normal;text-align:start;writing-mode:lr-tb;text-anchor:start;fill:#ececec;fill-opacity:1;stroke-width:2.17454863"
             id="path3789"
             inkscape:connector-curvature="0"
             sodipodi:nodetypes="ccscccssscscccsccsccccssscscccsc" />
        </g>
        <path
           sodipodi:nodetypes="scscccsccscccscsccccccsccccccccccccccccccccscccscsccscsccccccsccccscccscsccscccccccccccccccccscssccccscssccccccsscccccccccccccscccscsccscsccccscscccsscscccccscccsccsccccscsccccccccscsccscscccssscc"
           inkscape:export-ydpi="96"
           inkscape:export-xdpi="96"
           id="path3809"
           style="font-style:italic;font-variant:normal;font-weight:normal;font-stretch:normal;font-size:34.50383759px;line-height:1.25;font-family:'Hemi Head';-inkscape-font-specification:'Hemi Head, Italic';font-variant-ligatures:normal;font-variant-caps:normal;font-variant-numeric:normal;font-feature-settings:normal;text-align:start;letter-spacing:0px;word-spacing:0px;writing-mode:lr-tb;text-anchor:start;fill:#e6e6e6;fill-opacity:1;stroke:none;stroke-width:1.85830736"
           d="m -1302.8284,3311.7047 c -2.5273,0 -4.3607,-0.446 -5.5001,-1.3381 -1.0903,-0.8918 -1.6355,-2.2546 -1.6355,-4.0879 0,-0.9416 0.1487,-2.0567 0.4461,-3.3453 l 6.9125,-32.7805 c 0.6444,-2.9733 1.7347,-5.1786 3.271,-6.6158 1.5361,-1.437 3.9147,-2.1553 7.136,-2.1553 h 31.0707 l -2.0812,10.0349 h -26.1651 c -0.9911,0 -1.6848,0.1734 -2.0813,0.5204 -0.3468,0.3467 -0.6442,1.09 -0.892,2.2297 l -5.4262,25.6449 c -0.099,0.4955 -0.1488,0.8177 -0.1488,0.9661 0,0.4956 0.1486,0.8425 0.4458,1.0407 0.2973,0.1488 0.8177,0.2229 1.5609,0.2229 h 16.1303 l 2.4532,-11.4471 h -9.9609 l 1.7096,-8.1022 h 20.516 l -6.1697,29.2126 z m -24.0926,0 -19.0294,-33.0035 -6.9871,33.0035 h -10.4807 l 10.6294,-50.3229 h 10.6295 l 16.5018,30.0302 6.3183,-30.0302 h 10.5553 l -10.6296,50.3229 z m -56.2346,0 10.6293,-50.3229 h 11.2984 l -10.6294,50.3229 z m -49.5103,0 7.8792,-37.3893 h 11.2986 l -1.7096,8.1025 h 15.7584 c 1.0901,0 1.8334,-0.1734 2.2302,-0.5204 0.4459,-0.3468 0.768,-0.9417 0.9661,-1.784 l 1.2636,-6.0953 c 0.1487,-0.4955 0.2231,-0.9415 0.2231,-1.338 0,-0.5946 -0.1734,-0.991 -0.5201,-1.1894 -0.347,-0.2476 -0.9418,-0.3716 -1.7842,-0.3716 h -26.9825 l 2.0068,-9.7374 h 32.0373 c 2.5768,0 4.4351,0.4709 5.5749,1.4123 1.1397,0.8917 1.7096,2.2793 1.7096,4.1626 0,0.4459 -0.049,0.9166 -0.149,1.4123 -0.048,0.4956 -0.1227,1.0159 -0.2228,1.561 l -2.0068,9.4402 c -0.446,2.0812 -1.239,3.6175 -2.3788,4.6086 -1.1398,0.9414 -2.5771,1.5113 -4.3114,1.7097 1.4373,0.1485 2.6018,0.5202 3.4937,1.1149 0.9417,0.5947 1.4124,1.5611 1.4124,2.8991 0,0.2476 -0.024,0.4953 -0.073,0.7432 0,0.2477 -0.025,0.4956 -0.075,0.7433 l -2.5271,11.9675 c -0.5949,2.8739 -1.685,5.0297 -3.2709,6.4671 -1.536,1.3873 -3.8899,2.0811 -7.0616,2.0811 z m 34.1929,-19.4006 c 0.048,-0.248 0.073,-0.4709 0.073,-0.669 0.048,-0.1985 0.073,-0.3719 0.073,-0.5205 0,-0.6441 -0.1984,-1.0653 -0.5949,-1.2636 -0.3965,-0.1982 -1.0158,-0.2972 -1.858,-0.2972 h -15.9071 l -2.6019,12.2647 h 15.9071 c 1.1396,0 1.9327,-0.1735 2.3786,-0.5204 0.4955,-0.3963 0.8672,-1.1893 1.115,-2.3786 z m -51.7759,19.4006 6.4671,-30.5504 -18.6577,30.5504 h -8.8453 l -6.0209,-30.5504 -6.4671,30.5504 h -9.3656 l 10.6293,-50.3229 h 12.1905 l 6.5415,35.0105 21.7049,-35.0105 h 11.7446 l -10.6298,50.3229 z m -84.4995,0 c -2.5768,0 -4.4103,-0.446 -5.5002,-1.3381 -1.0904,-0.8918 -1.6355,-2.2794 -1.6355,-4.1626 0,-0.4954 0.023,-1.0156 0.073,-1.5607 0.048,-0.5452 0.1476,-1.115 0.2976,-1.7099 l 8.771,-41.5516 h 11.2986 l -7.9537,37.6122 c -0.1486,0.5945 -0.2228,1.0405 -0.2228,1.3378 0,0.5453 0.1732,0.917 0.5199,1.1151 0.3472,0.1486 0.9171,0.2229 1.7099,0.2229 h 14.8666 c 0.9911,0 1.7097,-0.1486 2.1556,-0.4459 0.4458,-0.3469 0.7928,-1.0903 1.0407,-2.2299 l 7.9536,-37.6122 h 10.8521 l -8.7709,41.5516 c -0.6444,2.9733 -1.7594,5.1785 -3.345,6.6156 -1.5362,1.4372 -3.8901,2.1557 -7.0618,2.1557 z m -15.441,0 h -33.1768 l 10.6293,-50.3229 h 11.2986 l -8.4737,40.1392 h 22.4483 z m -65.494,-16.2043 -3.4193,16.2043 h -11.2986 l 7.8048,-36.7945 h 11.2985 l -2.4529,11.4474 h 15.5356 c 0.9415,0 1.5857,-0.1984 1.9327,-0.5949 0.3964,-0.3964 0.7184,-1.1646 0.9662,-2.3043 l 2.1558,-9.8861 c 0.099,-0.4955 0.1489,-0.8425 0.1489,-1.0409 0,-0.545 -0.1735,-0.892 -0.5204,-1.0406 -0.2973,-0.1982 -0.7928,-0.2972 -1.4864,-0.2972 h -26.834 l 2.0813,-9.8118 h 31.5167 c 2.5273,0 4.3362,0.4461 5.4264,1.3379 1.0902,0.892 1.6352,2.2796 1.6352,4.1628 0,0.4954 -0.049,1.0156 -0.1489,1.5607 -0.048,0.4956 -0.1226,1.0655 -0.2228,1.7097 l -3.4938,16.576 c -0.6444,2.9736 -1.7346,5.1787 -3.2708,6.6158 -1.5362,1.4371 -3.9149,2.1557 -7.136,2.1557 z m -48.4171,16.2043 c -2.4282,0 -4.3856,-0.2229 -5.8723,-0.6688 -1.4866,-0.4958 -2.4032,-1.4124 -2.7501,-2.7507 -0.7435,1.2887 -1.7596,2.1808 -3.0478,2.6763 -1.2387,0.4955 -2.6262,0.7432 -4.1626,0.7432 h -12.4877 c -2.5274,0 -4.3361,-0.446 -5.4261,-1.3381 -1.0902,-0.8918 -1.6354,-2.2794 -1.6354,-4.1626 0,-0.7929 0.124,-1.8088 0.3716,-3.0475 l 2.6762,-12.6366 c 0.3963,-1.8829 1.2387,-3.2208 2.527,-4.0139 1.3383,-0.8424 2.8744,-1.3379 4.6088,-1.4865 -1.4373,-0.1487 -2.5522,-0.5452 -3.3453,-1.1892 -0.7927,-0.6939 -1.1891,-1.7594 -1.1891,-3.1965 0,-0.5451 0.075,-1.1893 0.2229,-1.9326 l 1.8585,-8.7712 c 0.5945,-2.8741 1.7093,-5.005 3.3448,-6.3929 1.6849,-1.437 4.0883,-2.1553 7.2102,-2.1553 h 23.8606 l -1.8583,8.7711 h -19.7723 c -0.9416,0 -1.6354,0.2231 -2.0815,0.6689 -0.3965,0.3967 -0.7184,1.14 -0.9661,2.23 l -1.4867,6.9131 c -0.048,0.198 -0.098,0.3717 -0.1489,0.5205 v 0.4458 c 0,0.5452 0.1487,0.917 0.4459,1.115 0.3467,0.1486 0.8918,0.223 1.6353,0.223 h 12.3389 l 1.1152,-5.2778 h 8.9199 l -1.1151,5.2778 h 9.5889 l -1.6353,7.5818 h -9.5888 l -2.007,9.5146 c -0.1488,0.545 -0.2233,0.991 -0.2233,1.3379 0,0.5946 0.1983,0.9911 0.5948,1.1893 0.3965,0.1486 1.016,0.223 1.8583,0.223 h 6.3182 l -2.0071,9.5889 z m -6.7645,-21.8537 h -12.3389 c -0.9415,0 -1.6353,0.1982 -2.0812,0.5947 -0.3965,0.3471 -0.6938,0.9664 -0.8921,1.8584 l -1.4863,6.9129 c -0.099,0.2476 -0.1491,0.4955 -0.1491,0.7432 v 0.5202 c 0,1.0903 0.6937,1.6354 2.0814,1.6354 h 12.2646 z"
           inkscape:connector-curvature="0" />
      </g>
      <path
         inkscape:export-filename="D:\FLASH GAS\FLASH GAS LOGO WIDE WHITE.png"
         style="fill:#b3b3b3;fill-opacity:1;stroke:none;stroke-width:0.24318299px;stroke-linecap:butt;stroke-linejoin:miter;stroke-opacity:1"
         d="m -1689.8927,3241.413 c -0.2226,0 -0.66,0.029 -1.1721,0.1391 l 3.9189,0.6068 -6.1219,0.5233 c -0.4012,0.4076 -0.7283,0.9439 -0.8981,1.6543 l -3.2184,14.7864 c 0,0 -1.0922,5.5102 3.8474,5.5579 h 14.1539 c 0,0 5.1771,-0.6181 6.7921,-4.8452 0,0 1.5199,4.8921 5.9372,4.9395 h 7.9317 l 1.4725,-6.7446 h -5.3196 c 0,0 -3.6096,0.048 -2.8974,-3.4672 l 2.3335,-11.4363 h 9.639 l 0.1853,-0.6298 -5.5319,-0.4729 3.9434,-0.61 h -34.8355 c 0,0 -0.058,0 -0.16,0 z m 6.5414,1.1431 h 15.1802 l -3.6609,15.483 h -13.6689 c -5.3737,0.034 -4.2653,-4.1312 -4.2653,-4.1312 l 1.8807,-8.8329 c 0.7727,-2.5859 4.5342,-2.5189 4.5342,-2.5189 z"
         id="path3813"
         inkscape:export-xdpi="96"
         inkscape:export-ydpi="96"
         inkscape:connector-curvature="0" />
      <path
         inkscape:export-filename="D:\FLASH GAS\FLASH GAS LOGO WIDE WHITE.png"
         id="path3815"
         d="m -1576.0773,3241.4164 h -2e-4 l 4.558,0.7653 -4.8541,0.6171 -4.6356,21.7022 29.37,-0.051 1.4833,-5.4692 -3.3735,-0.5921 3.2061,-0.754 h -21.8396 l 2.8565,-13.4402 -4.6655,-0.5933 4.9698,-0.8346 0.2884,-1.3517 z"
         style="fill:#b3b3b3;fill-opacity:1;stroke:none;stroke-width:0.14179957px;stroke-linecap:butt;stroke-linejoin:miter;stroke-opacity:1"
         inkscape:connector-curvature="0"
         sodipodi:nodetypes="ccccccccccccccc"
         inkscape:export-xdpi="96"
         inkscape:export-ydpi="96" />
      <path
         inkscape:export-filename="D:\FLASH GAS\FLASH GAS LOGO WIDE WHITE.png"
         style="fill:#b3b3b3;fill-opacity:1;stroke:none;stroke-width:0.24318299px;stroke-linecap:butt;stroke-linejoin:miter;stroke-opacity:1"
         d="m -1623.0586,3241.4143 6.1902,1.2112 -6.753,0.5915 -4.6552,21.6056 h 7.5282 l 3.5386,-16.6239 h 22.9883 c 4.7258,-0.2624 6.3214,-3.3991 6.8568,-5.3142 l -6.2917,-0.5512 4.6975,-0.919 z"
         id="path3817"
         inkscape:export-xdpi="96"
         inkscape:export-ydpi="96"
         inkscape:connector-curvature="0" />
      <path
         inkscape:export-filename="D:\FLASH GAS\FLASH GAS LOGO WIDE WHITE.png"
         style="fill:#b3b3b3;fill-opacity:1;stroke:none;stroke-width:0.24318299px;stroke-linecap:butt;stroke-linejoin:miter;stroke-opacity:1"
         d="m -1535.5745,3241.4143 3.1481,1.2369 -3.7422,0.418 -2.9344,13.5931 c 0,0 -1.7468,7.5232 3.224,7.6572 h 27.2712 c 0,0 5.7097,-1.2087 6.7844,-6.7167 l 2.8946,-14.2358 c -1.2456,-0.1934 -2.683,-0.4351 -2.683,-0.4351 l 2.9079,-0.6712 0.1721,-0.8464 h -5.3927 l 2.6227,0.6051 c 0,0 -1.7937,0.3018 -3.0987,0.4984 l -2.4606,11.9947 c 0,0 -0.5373,4.0305 -4.9034,3.7617 h -16.7253 c 0,0 -4.0975,0.3359 -2.8212,-4.6348 l 2.4249,-11.0352 -2.8354,-0.8887 3.0916,-0.2755 0.01,-0.026 z"
         id="path3819"
         inkscape:export-xdpi="96"
         inkscape:export-ydpi="96"
         inkscape:connector-curvature="0" />
      <path
         inkscape:export-filename="D:\FLASH GAS\FLASH GAS LOGO WIDE WHITE.png"
         style="fill:#b3b3b3;fill-opacity:1;stroke:none;stroke-width:0.24318299px;stroke-linecap:butt;stroke-linejoin:miter;stroke-opacity:1"
         d="m -1485.5518,3241.4143 2.6446,0.8427 -2.9406,0.5138 -4.4892,21.7504 h 4.3737 l 5.0968,-23.1109 z"
         id="path3821"
         inkscape:export-xdpi="96"
         inkscape:export-ydpi="96"
         inkscape:connector-curvature="0" />
      <path
         inkscape:export-filename="D:\FLASH GAS\FLASH GAS LOGO WIDE WHITE.png"
         style="fill:#b4b4b4;fill-opacity:1;stroke:none;stroke-width:0.24318299px;stroke-linecap:butt;stroke-linejoin:miter;stroke-opacity:1"
         d="m -1473.6117,3241.4143 0.1116,0.5828 2.4178,0.7707 -2.1966,0.3841 4.0331,21.0334 h 4.9711 l 13.68,-21.9796 -2.476,-0.095 2.8896,-0.6968 h -4.7574 l -0.433,0.6584 2.4284,0.5855 -2.8865,0.1107 -8.9159,13.5575 -2.9224,-13.8067 -2.7573,-0.4818 1.9573,-0.6236 z"
         id="path3823"
         inkscape:export-xdpi="96"
         inkscape:export-ydpi="96"
         inkscape:connector-curvature="0" />
      <path
         inkscape:export-filename="D:\FLASH GAS\FLASH GAS LOGO WIDE WHITE.png"
         style="fill:#b3b3b3;fill-opacity:1;stroke:none;stroke-width:0.24318299px;stroke-linecap:butt;stroke-linejoin:miter;stroke-opacity:1"
         d="m -1442.3069,3241.4143 2.6068,0.5921 -3.2173,0.3343 -4.5779,22.1805 h 4.374 l 4.746,-21.5203 -2.4087,-0.2502 2.5938,-0.589 0.1658,-0.7514 z"
         id="path3825"
         inkscape:export-xdpi="96"
         inkscape:export-ydpi="96"
         inkscape:connector-curvature="0" />
      <path
         inkscape:export-filename="D:\FLASH GAS\FLASH GAS LOGO WIDE WHITE.png"
         style="fill:#b3b3b3;fill-opacity:1;stroke:none;stroke-width:0.24318299px;stroke-linecap:butt;stroke-linejoin:miter;stroke-opacity:1"
         d="m -1424.681,3241.4143 2.87,0.8427 -3.2999,0.3224 -4.867,21.5783 h 30.9679 c 0,0 5.6044,0.1903 6.6494,-4.9391 l 3.1349,-14.3445 c 0,0 0.2014,-1.1402 -0.4975,-2.1117 l -4.1151,-0.4024 2.4342,-0.7148 c -0.4895,-0.1447 -1.0853,-0.2309 -1.8113,-0.2309 z m 24.3855,1.0412 c 5.8104,-0.034 4.6103,3.6535 4.6103,3.6535 l -2.0426,9.3568 c -1.0924,3.7997 -5.1296,3.3247 -5.1296,3.3247 h -19.4737 l 3.5147,-16.2908 z"
         id="path3827"
         inkscape:export-xdpi="96"
         inkscape:export-ydpi="96"
         inkscape:connector-curvature="0" />
      <path
         inkscape:export-filename="D:\FLASH GAS\FLASH GAS LOGO WIDE WHITE.png"
         style="fill:#b3b3b3;fill-opacity:1;stroke:none;stroke-width:0.24318299px;stroke-linecap:butt;stroke-linejoin:miter;stroke-opacity:1"
         d="m -1374.179,3241.4143 2.4315,0.5519 -3.7354,0.3881 -4.8291,21.6965 h 6.3813 l 4.422,-20.9911 -3.3226,-0.3453 3.566,-0.809 0.1035,-0.4911 z"
         id="path3829"
         inkscape:export-xdpi="96"
         inkscape:export-ydpi="96"
         inkscape:connector-curvature="0" />
      <path
         inkscape:export-filename="D:\FLASH GAS\FLASH GAS LOGO WIDE WHITE.png"
         style="fill:#b3b3b3;fill-opacity:1;stroke:none;stroke-width:0.24318299px;stroke-linecap:butt;stroke-linejoin:miter;stroke-opacity:1"
         d="m -1355.4173,3241.4143 3.9788,0.6437 -4.7505,0.6755 -4.7443,21.3173 h 6.381 l 4.7691,-22.6365 z"
         id="path3831"
         inkscape:export-xdpi="96"
         inkscape:export-ydpi="96"
         inkscape:connector-curvature="0" />
      <path
         inkscape:export-filename="D:\FLASH GAS\FLASH GAS LOGO WIDE WHITE.png"
         style="fill:#b3b3b3;fill-opacity:1;stroke:none;stroke-width:0.24318299px;stroke-linecap:butt;stroke-linejoin:miter;stroke-opacity:1"
         d="m -1337.445,3241.4143 3.6654,0.7336 -3.3632,0.6501 11.9778,21.1184 h 3.5597 l 4.9711,-22.5021 h -4.6628 l 2.6335,0.6437 -3.9002,0.311 -2.3326,10.1287 -5.2304,-8.8058 -3.8352,-0.7417 3.0343,-0.6068 -0.5517,-0.9291 z"
         id="path3833"
         inkscape:export-xdpi="96"
         inkscape:export-ydpi="96"
         inkscape:connector-curvature="0" />
      <path
         inkscape:export-filename="D:\FLASH GAS\FLASH GAS LOGO WIDE WHITE.png"
         style="fill:#b3b3b3;fill-opacity:1;stroke:none;stroke-width:0.24318299px;stroke-linecap:butt;stroke-linejoin:miter;stroke-opacity:1"
         d="m -1302.7807,3241.4143 2.1603,0.4322 -2.7998,0.5417 -3.4074,15.0802 c 0,0 -2.3509,6.1798 3.6273,6.1798 h 29.219 l 4.5551,-21.236 -5.1183,-0.4834 2.9143,-0.5145 h -10.2556 l 2.7059,0.4775 -4.9608,0.4688 -0.1849,0.8004 h 9.9415 l -3.2915,16.0537 h -19.4124 c 0,0 -4.5006,0.067 -3.0226,-5.0381 l 2.4079,-11.1587 -3.0497,-0.5899 3.3206,-0.6642 0.076,-0.3495 z"
         id="path3835"
         inkscape:export-xdpi="96"
         inkscape:export-ydpi="96"
         inkscape:connector-curvature="0" />
    </g>
  </g>
</svg>
