<?xml version="1.0" encoding="UTF-8" standalone="no"?>
<!-- Created with Inkscape (http://www.inkscape.org/) -->

<svg
   xmlns:dc="http://purl.org/dc/elements/1.1/"
   xmlns:cc="http://creativecommons.org/ns#"
   xmlns:rdf="http://www.w3.org/1999/02/22-rdf-syntax-ns#"
   xmlns:svg="http://www.w3.org/2000/svg"
   xmlns="http://www.w3.org/2000/svg"
   xmlns:sodipodi="http://sodipodi.sourceforge.net/DTD/sodipodi-0.dtd"
   xmlns:inkscape="http://www.inkscape.org/namespaces/inkscape"
   width="2675"
   height="2675"
   viewBox="0 0 707.7604 707.76044"
   version="1.1"
   id="svg6343"
   inkscape:version="0.92.3 (2405546, 2018-03-11)"
   sodipodi:docname="FLASH TEXT SVG.svg">
  <defs
     id="defs6337" />
  <sodipodi:namedview
     id="base"
     pagecolor="#ffffff"
     bordercolor="#666666"
     borderopacity="1.0"
     inkscape:pageopacity="0.0"
     inkscape:pageshadow="2"
     inkscape:zoom="0.08"
     inkscape:cx="2057.3018"
     inkscape:cy="801.4379"
     inkscape:document-units="mm"
     inkscape:current-layer="layer1"
     showgrid="false"
     units="px"
     inkscape:window-width="1440"
     inkscape:window-height="838"
     inkscape:window-x="-8"
     inkscape:window-y="-8"
     inkscape:window-maximized="1" />
  <metadata
     id="metadata6340">
    <rdf:RDF>
      <cc:Work
         rdf:about="">
        <dc:format>image/svg+xml</dc:format>
        <dc:type
           rdf:resource="http://purl.org/dc/dcmitype/StillImage" />
        <dc:title></dc:title>
      </cc:Work>
    </rdf:RDF>
  </metadata>
  <g
     inkscape:label="Layer 1"
     inkscape:groupmode="layer"
     id="layer1"
     transform="translate(0,410.76043)">
    <rect
       inkscape:export-ydpi="96"
       inkscape:export-xdpi="96"
       inkscape:export-filename="D:\FLASH GAS\FLASH LOGO\FLASH GAS LOGO TRANSPARENT.png"
       style="opacity:1;fill:#000014;fill-opacity:1;stroke:none;stroke-width:20;stroke-linecap:round;stroke-linejoin:round;stroke-miterlimit:4;stroke-dasharray:none;paint-order:markers fill stroke"
       id="rect12449"
       width="707.76044"
       height="707.76044"
       x="-1.0172526e-005"
       y="-410.76044" />
    <g
       id="g13579"
       transform="matrix(1.1639209,0,0,1.1639209,1192.9099,-5700.8225)">
      <path
         inkscape:connector-curvature="0"
         id="path13487"
         d="m -950.42773,4760.4727 c -8.99175,10e-4 -16.85604,6.3848 -18.70899,15.1835 a 8.50085,8.50085 0 0 0 -0.002,0 l -2.64649,12.5723 a 8.50085,8.50085 0 0 0 -0.01,0.045 c -0.16641,0.8124 -0.14348,1.6451 -0.20313,2.4707 -0.24471,0.708 -0.55463,1.3941 -0.71484,2.127 a 8.50085,8.50085 0 0 0 -0.01,0.049 l -9.92578,46.6992 c -2.48896,11.7142 6.72943,23.0978 18.70508,23.0977 h 14.8418 c 8.98252,0 16.84244,-6.369 18.70508,-15.1563 l 0.46875,-2.207 c 0.95947,9.4247 8.9258,17.3659 18.91211,17.3672 a 8.50085,8.50085 0 0 0 0.002,0 h 42.91797 a 8.50085,8.50085 0 0 0 0.0273,0 c 0.73954,0 1.46595,-0.1524 2.19922,-0.2402 0.72348,0.087 1.44018,0.2358 2.16992,0.2402 a 8.50085,8.50085 0 0 0 0.0527,0 H -849.75 c 5.58358,-7e-4 10.77879,-2.4922 14.36133,-6.5879 3.52851,4.003 8.6232,6.5865 14.27734,6.5879 a 8.50085,8.50085 0 0 0 0.002,0 h 14.46485 a 8.50085,8.50085 0 0 0 0.0215,0 c 1.1061,0 2.17008,-0.3327 3.25586,-0.5254 1.07989,0.1927 2.13805,0.5205 3.23828,0.5254 a 8.50085,8.50085 0 0 0 0.0371,0 h 36.60352 c 3.48362,0 7.1873,-0.4541 10.87695,-1.5977 2.3532,1.0063 4.87724,1.5946 7.47266,1.5977 a 8.50085,8.50085 0 0 0 0.01,0 h 14.36719 a 8.50085,8.50085 0 0 0 0.002,0 c 4.77092,-6e-4 9.19058,-1.8346 12.59766,-4.836 3.33902,2.9507 7.64931,4.8354 12.45313,4.836 h 14.36914 a 8.50085,8.50085 0 0 0 0.002,0 c 8.98712,0 16.84928,-6.377 18.70703,-15.17 l 13.51953,-64 c 2.4709,-11.7067 -6.7444,-23.0704 -18.70898,-23.0723 h -14.36914 c -4.77188,-10e-5 -9.19378,1.8338 -12.60157,4.8359 -3.33843,-2.9497 -7.64657,-4.835 -12.44921,-4.8359 h -14.36915 a 8.50085,8.50085 0 0 0 -0.006,0 c -1.37554,8e-4 -2.73691,0.1797 -4.07422,0.4727 -1.33194,-0.2921 -2.68661,-0.4705 -4.05664,-0.4727 a 8.50085,8.50085 0 0 0 -0.0137,0 h -39.79687 c -5.80465,0 -12.70434,1.288 -18.79492,5.3906 -3.45922,-3.3246 -8.12143,-5.3898 -13.20508,-5.3906 a 8.50085,8.50085 0 0 0 -0.002,0 h -18.8125 a 8.50085,8.50085 0 0 0 -0.002,0 c -7.11679,5e-4 -13.68125,3.9868 -16.96484,10.3008 l -21.18555,40.748 h -1.80078 l 5.90625,-27.9765 a 8.50085,8.50085 0 0 0 0.002,0 c 2.46908,-11.7058 -6.74559,-23.0681 -18.70898,-23.0703 a 8.50085,8.50085 0 0 0 -0.002,0 h -14.36914 a 8.50085,8.50085 0 0 0 -0.0352,0 c -0.92786,0 -1.83056,0.2389 -2.74609,0.377 -0.92367,-0.1383 -1.83355,-0.3752 -2.76954,-0.377 a 8.50085,8.50085 0 0 0 -0.0176,0 h -47.36133 a 8.50085,8.50085 0 0 0 -0.002,0 z m 0.002,17 h 47.3457 c 0.18889,4e-4 0.37646,0.026 0.5586,0.076 a 8.50085,8.50085 0 0 0 4.50781,0 c 0.18053,-0.05 0.36745,-0.075 0.55469,-0.076 h 14.33203 c 1.53231,0 2.39255,1.0626 2.07617,2.5625 l -8.07227,38.2305 a 8.50085,8.50085 0 0 0 8.31836,10.2558 h 17.44336 a 8.50085,8.50085 0 0 0 7.54102,-4.58 l 23.56445,-45.3243 h 0.002 c 0.37351,-0.716 1.07501,-1.1425 1.88282,-1.1426 h 18.8125 c 1.18704,0 2.0242,0.777 2.11523,1.9609 l 0.18359,2.3731 a 8.50085,8.50085 0 0 0 16.10547,3.0918 c 0.79827,-1.6274 1.74172,-2.9581 2.97657,-4.1133 2.62686,-2.4573 6.10438,-3.3125 10.62109,-3.3125 h 39.7832 c 0.27932,5e-4 0.55468,0.057 0.8125,0.1641 a 8.50085,8.50085 0 0 0 6.53906,0 c 0.25734,-0.1073 0.53374,-0.1634 0.8125,-0.1641 h 14.36915 c 1.53229,0 2.39059,1.0626 2.07421,2.5625 l -2.68164,12.7051 a 8.50085,8.50085 0 0 0 8.31641,10.2558 h 3.33789 a 8.50085,8.50085 0 0 0 8.31641,-6.7441 l 3.60937,-17.0937 v 0 c 0.21837,-1.0298 1.02514,-1.6836 2.07813,-1.6836 h 14.36914 c 1.53253,0 2.3928,1.0624 2.07617,2.5625 l -13.51953,63.9981 c -0.21777,1.0307 -1.0227,1.6834 -2.07617,1.6836 h -14.36719 -0.002 c -1.53205,0 -2.39211,-1.0608 -2.07618,-2.5606 l 2.87696,-13.6562 a 8.50085,8.50085 0 0 0 -8.31836,-10.254 h -3.33985 a 8.50085,8.50085 0 0 0 -8.3164,6.7481 l -3.80078,18.0371 c -0.21733,1.0314 -1.0241,1.6854 -2.07813,1.6856 h -14.35742 c -0.49687,-6e-4 -0.97343,-0.1726 -1.35547,-0.4903 a 8.50085,8.50085 0 0 0 -4.41016,-1.8945 8.50085,8.50085 0 0 0 -12.34179,-11.4414 l -0.13477,0.1113 c 1.03166,-0.9114 1.09658,-0.9622 -0.18555,0.1191 -1.00774,0.819 -0.98538,0.7949 -0.043,0.07 l -0.10938,0.09 a 8.50085,8.50085 0 0 0 0.46289,13.4121 c -0.0872,10e-4 -0.16441,0.023 -0.25195,0.023 h -36.56641 c -0.22189,-10e-4 -0.44152,-0.036 -0.65234,-0.1055 a 8.50085,8.50085 0 0 0 -5.30274,0 c -0.21206,0.07 -0.43305,0.1049 -0.65625,0.1055 h -14.4414 -0.002 c -1.19794,0 -2.03554,-0.7868 -2.11523,-1.9825 l 0.0156,0.5332 a 8.50085,8.50085 0 0 0 -8.49805,-8.4785 h -6.53516 a 8.50085,8.50085 0 0 0 -7.61523,4.7266 l -1.99024,4.0176 a 8.50085,8.50085 0 0 0 -0.002,0 c -0.366,0.739 -1.07587,1.1808 -1.90039,1.1817 h -13.8457 c -0.14857,0 -0.29628,-0.019 -0.44141,-0.051 a 8.50085,8.50085 0 0 0 -3.63867,0 c -0.14704,0.032 -0.29674,0.05 -0.44727,0.051 h -42.89062 c -1.53414,-2e-4 -2.3932,-1.0615 -2.07617,-2.5626 l 2.67382,-12.6562 a 8.50085,8.50085 0 0 0 -9.09375,-10.2207 c -0.0581,0.01 -0.11744,0.01 -0.17578,0.01 h -15.42187 a 8.50085,8.50085 0 0 0 -8.31446,6.7383 l -3.60546,17.0098 h 0.002 c -0.21832,1.0299 -1.02529,1.6815 -2.07813,1.6816 h -14.83984 c -1.536,0 -2.39541,-1.062 -2.07617,-2.5645 l 9.91601,-46.6503 c 0.0328,-0.1502 0.0821,-0.296 0.14649,-0.4356 a 8.50085,8.50085 0 0 0 0.77539,-3.875 c -0.006,-0.1693 0.007,-0.3398 0.041,-0.5059 l 2.63867,-12.5273 c 0.21722,-1.0315 1.02205,-1.6854 2.07617,-1.6855 z"
         style="color:#000000;font-style:italic;font-variant:normal;font-weight:normal;font-stretch:normal;font-size:133.49272156px;line-height:1.25;font-family:'Hemi Head';-inkscape-font-specification:'Hemi Head, Italic';font-variant-ligatures:normal;font-variant-position:normal;font-variant-caps:normal;font-variant-numeric:normal;font-variant-alternates:normal;font-feature-settings:normal;text-indent:0;text-align:start;text-decoration:none;text-decoration-line:none;text-decoration-style:solid;text-decoration-color:#000000;letter-spacing:0px;word-spacing:0px;text-transform:none;writing-mode:lr-tb;direction:ltr;text-orientation:mixed;dominant-baseline:auto;baseline-shift:baseline;text-anchor:start;white-space:normal;shape-padding:0;clip-rule:nonzero;display:inline;overflow:visible;visibility:visible;opacity:1;isolation:auto;mix-blend-mode:normal;color-interpolation:sRGB;color-interpolation-filters:linearRGB;solid-color:#000000;solid-opacity:1;vector-effect:none;fill:#ffa500;fill-opacity:1;fill-rule:nonzero;stroke:none;stroke-width:17;stroke-linecap:round;stroke-linejoin:round;stroke-miterlimit:4;stroke-dasharray:none;stroke-dashoffset:0;stroke-opacity:1;color-rendering:auto;image-rendering:auto;shape-rendering:auto;text-rendering:auto;enable-background:accumulate" />
      <path
         inkscape:connector-curvature="0"
         id="path13483"
         d="m -634.85547,4760.2363 c -6.95911,0 -15.66246,1.4661 -22.78711,7.7715 -6.11901,5.4158 -9.1496,12.4607 -10.61328,18.8516 a 8.50085,8.50085 0 0 0 -0.0332,0.1465 c -0.008,0.038 -0.0157,0.075 -0.0234,0.1132 l -8.95508,40.1719 a 8.50085,8.50085 0 0 0 -0.0625,0.3906 c -0.5563,2.4385 -1.00586,5.1367 -1.00586,8.1582 0,7.3744 2.73725,15.5011 10.03321,21.1485 0.11153,0.087 0.22458,0.1717 0.33789,0.2558 a 8.50085,8.50085 0 0 0 0.01,0.01 c 6.75954,5.0049 14.20397,5.6484 19.28125,5.6484 h 41.06836 a 8.50085,8.50085 0 0 0 0.002,0 c 1.31344,-2e-4 2.59448,-0.1558 3.84961,-0.4004 0.95327,0.1431 1.86377,0.4002 2.86524,0.4004 a 8.50085,8.50085 0 0 0 0.002,0 h 14.20508 a 8.50085,8.50085 0 0 0 0.002,0 c 5.62092,-8e-4 10.90358,-2.3483 14.69531,-6.2949 3.72986,3.8517 8.89183,6.2938 14.57813,6.2949 a 8.50085,8.50085 0 0 0 0.002,0 h 14.78516 c 1.20664,-1e-4 2.36968,-0.1743 3.51953,-0.3809 1.05733,0.175 2.10643,0.3807 3.21484,0.3809 a 8.50085,8.50085 0 0 0 0.002,0 h 41.45508 c 6.95901,0 15.66242,-1.4659 22.78711,-7.7715 6.11889,-5.4156 9.14799,-12.4602 10.61132,-18.8496 0.007,-0.03 0.0147,-0.06 0.0215,-0.09 a 8.50085,8.50085 0 0 0 0.006,-0.027 l 3.76953,-16.9141 a 8.50085,8.50085 0 0 0 0.004,-0.016 c 0.0149,-0.067 0.0288,-0.1357 0.043,-0.2031 0.43676,-2.0665 0.73047,-4.3402 0.73047,-6.7754 0,-2.2658 -0.33981,-4.4728 -0.91992,-6.625 2.15645,-2.5104 3.75649,-5.4872 4.49414,-8.793 a 8.50085,8.50085 0 0 0 0.002,-0.016 l 2.60938,-11.7949 c 2.77213,-12.5399 -7.05974,-24.7874 -19.90235,-24.7891 a 8.50085,8.50085 0 0 0 -0.002,0 h -40.68164 c -6.56904,0 -14.71151,1.4147 -21.64844,6.916 -3.76106,-4.2105 -9.16022,-6.9157 -15.14062,-6.916 h -19.22852 c -5.24252,-1e-4 -10.14622,2.1073 -13.87109,5.5899 -3.61303,-3.3891 -8.36855,-5.5897 -13.7207,-5.5899 z m 0,17 h 40.39063 c 2.35173,1e-4 3.81197,1.8141 3.30859,4.1114 l -0.41211,1.8828 -27.18359,49.4648 c -2.33915,4.2575 -2.73573,8.8668 -1.9043,13.2051 h -28.01758 c -4.13956,0 -6.20696,-0.1211 -9.16406,-2.3106 -0.0161,-0.012 -0.033,-0.023 -0.0488,-0.035 a 8.50085,8.50085 0 0 0 -0.01,-0.01 c -1.77332,-1.3726 -3.43946,-5.5892 -3.43946,-7.7051 0,-1.6227 0.22683,-3.067 0.67383,-4.9023 10e-4,-0.01 7e-4,-0.01 0.002,-0.014 l 0.0274,-0.1191 8.94531,-40.1309 a 8.50085,8.50085 0 0 0 0.006,-0.031 c 0.94366,-4.1114 2.57528,-7.4886 5.30469,-9.9043 3.04419,-2.6942 6.76128,-3.502 11.52148,-3.502 z m 67.98242,0 h 19.22852 c 1.84184,1e-4 3.22573,1.2775 3.375,3.1133 l 0.39453,4.8633 c -0.14668,0.5471 -0.35309,1.1073 -0.47656,1.6465 a 8.50085,8.50085 0 0 0 -0.004,0.014 c -0.008,0.035 -0.0157,0.071 -0.0234,0.1055 l -3.56445,15.957 c -10e-4,0.01 -0.003,0.01 -0.004,0.016 l -0.002,0.012 c -0.0509,0.2257 -0.0974,0.4524 -0.14062,0.6797 a 8.50085,8.50085 0 0 0 -0.006,0.027 c -0.33784,1.8109 -0.63477,3.9607 -0.63477,6.3906 0,2.1577 0.33025,4.3009 0.86328,6.4161 -2.50815,2.6356 -4.38048,5.8567 -5.20117,9.5019 a 8.50085,8.50085 0 0 0 -0.002,0.01 l -2.70508,12.0684 c -0.59909,2.6738 -0.51829,5.3101 -0.0625,7.8438 h -1.56445 -0.002 c -1.8573,0 -3.24623,-1.2954 -3.37695,-3.1484 a 8.50085,8.50085 0 0 0 -13.02539,-6.4512 h -0.65625 a 8.50085,8.50085 0 0 0 -7.5293,4.5566 l -1.68945,3.2266 c -0.59184,1.1303 -1.72429,1.8155 -3,1.8164 h -0.79297 l 7.78516,-34.8731 a 8.50085,8.50085 0 0 0 0.004,-0.017 c 0.57613,-2.6073 0.56936,-5.2741 0.11914,-7.8711 1.04483,-1.8026 1.85187,-3.7378 2.30664,-5.793 a 8.50085,8.50085 0 0 0 0.004,-0.016 l 1.76758,-8.0625 5.64648,-10.2754 c 0.60241,-1.0962 1.71797,-1.7559 2.96875,-1.7559 z m 56.01758,0 h 40.67969 c 2.35508,3e-4 3.81695,1.8196 3.30859,4.1192 l -2.03125,9.1816 a 8.50085,8.50085 0 0 0 -10.3457,8.2949 8.50085,8.50085 0 0 0 2.72852,6.2403 c -1.33798,-1.1905 -1.33732,-1.205 0.0449,0.066 1.38556,1.3056 1.2977,1.2022 0.11523,0.082 -0.0588,-0.056 0.0711,0.066 0.006,0 l 0.0684,0.065 a 8.50085,8.50085 0 0 0 0.74805,0.5996 8.50085,8.50085 0 0 0 0.58593,1.3242 c 0.97617,1.744 1.49219,3.9382 1.49219,5.041 0,1.082 -0.12625,2.1402 -0.36328,3.2617 a 8.50085,8.50085 0 0 0 -0.004,0.014 c -0.003,0.012 -0.005,0.025 -0.008,0.037 l -3.75976,16.8711 c -10e-4,0.01 -0.002,0.013 -0.004,0.02 l -0.002,0.01 a 8.50085,8.50085 0 0 0 -0.004,0.02 c -0.5024,2.1936 -1.21907,4.1584 -2.17383,5.8984 a 8.50085,8.50085 0 0 0 -13.6582,-6.1211 l -0.20117,0.1563 c 0.51305,-0.4248 0.0916,-0.09 -0.0879,0.049 -0.18749,0.1477 -0.5782,0.4494 -0.0566,0.064 l -0.1875,0.1465 a 8.50085,8.50085 0 0 0 -0.17188,13.1895 c -0.10706,8e-4 -0.18288,0.033 -0.29101,0.033 h -28.16407 c 0.28538,-1.635 0.43285,-3.3095 0.29297,-5.0352 l -4.33789,-53.4355 c 0.97864,-2.6153 2.21902,-4.9699 4.16406,-6.6914 3.08733,-2.7324 6.77017,-3.502 11.61719,-3.502 z m 34.99024,27.4707 a 8.50085,8.50085 0 0 0 0.0547,0.2207 l -0.45117,0.2032 z m -127.85157,35.9278 -0.57812,2.5898 c -0.0892,-0.725 -0.0185,-1.5047 0.4414,-2.3418 z"
         style="color:#000000;font-style:italic;font-variant:normal;font-weight:normal;font-stretch:normal;font-size:86.98194885px;line-height:1.25;font-family:'Hemi Head';-inkscape-font-specification:'Hemi Head, Italic';font-variant-ligatures:normal;font-variant-position:normal;font-variant-caps:normal;font-variant-numeric:normal;font-variant-alternates:normal;font-feature-settings:normal;text-indent:0;text-align:start;text-decoration:none;text-decoration-line:none;text-decoration-style:solid;text-decoration-color:#000000;letter-spacing:0px;word-spacing:0px;text-transform:none;writing-mode:lr-tb;direction:ltr;text-orientation:mixed;dominant-baseline:auto;baseline-shift:baseline;text-anchor:start;white-space:normal;shape-padding:0;clip-rule:nonzero;display:inline;overflow:visible;visibility:visible;opacity:1;isolation:auto;mix-blend-mode:normal;color-interpolation:sRGB;color-interpolation-filters:linearRGB;solid-color:#000000;solid-opacity:1;vector-effect:none;fill:#ffa500;fill-opacity:1;fill-rule:nonzero;stroke:none;stroke-width:17;stroke-linecap:round;stroke-linejoin:round;stroke-miterlimit:4;stroke-dasharray:none;stroke-dashoffset:0;stroke-opacity:1;color-rendering:auto;image-rendering:auto;shape-rendering:auto;text-rendering:auto;enable-background:accumulate" />
      <path
         style="fill:#410000;fill-opacity:1;stroke:none;stroke-width:0.26458332px;stroke-linecap:butt;stroke-linejoin:miter;stroke-opacity:1"
         d="m -678.5119,4774.0189 c 0,0 -11.3277,17.6127 -20.7552,20.4629 -9.4275,2.8501 7.3082,8.0389 7.3082,8.0389 l 6.7235,-9.7198 3.5079,-9.7929 2.7406,-7.0159 z"
         id="path12539"
         inkscape:connector-curvature="0" />
      <path
         style="fill:#410000;fill-opacity:1;stroke:none;stroke-width:0.26458332px;stroke-linecap:butt;stroke-linejoin:miter;stroke-opacity:1"
         d="m -753.721,4794.9161 c 0,0 -4.1342,-1.4469 -4.1859,-2.6871 0,0 -2.5321,-4.2892 -1.8086,-6.5113 0,0 -5.4277,-4.0459 -14.5846,-2.0258 -9.1569,2.0201 14.5946,15.0286 14.5946,15.0286 h 5.4081 z"
         id="path12543"
         inkscape:connector-curvature="0" />
      <path
         style="fill:#410000;fill-opacity:1;stroke:none;stroke-width:0.26458332px;stroke-linecap:butt;stroke-linejoin:miter;stroke-opacity:1"
         d="m -735.3243,4795.0712 c 0,0 8.2683,8.5783 11.0588,8.4749 0,0 2.8939,-8.1649 8.9917,-9.3018 6.0978,-1.1368 -1.8603,17.9834 -1.8603,17.9834 l -6.6884,1.2552 -11.1083,-10.5237 z"
         id="path12545"
         inkscape:connector-curvature="0" />
      <path
         style="fill:#410000;fill-opacity:1;stroke:none;stroke-width:0.26458332px;stroke-linecap:butt;stroke-linejoin:miter;stroke-opacity:1"
         d="m -752.8942,4789.4901 c 0,0 3.8586,7.8418 8.0973,9.8881 4.2388,2.0463 9.8661,3.581 9.8661,3.581 l 0.95,4.0926 -14.2509,-0.2193 -5.2619,-9.4275 z"
         id="path12547"
         inkscape:connector-curvature="0" />
      <path
         style="fill:#000000;stroke:none;stroke-width:0.26458332px;stroke-linecap:butt;stroke-linejoin:miter;stroke-opacity:1"
         d="m -742.3522,4808.3003 c 0,0 -10.9554,-12.8157 -10.542,-18.8102 0,0 -4.3408,7.028 0.4134,14.8828 4.7542,7.8548 10.1286,3.9274 10.1286,3.9274 z"
         id="path12699"
         inkscape:connector-curvature="0" />
      <path
         style="fill:#000000;stroke:none;stroke-width:0.26458332px;stroke-linecap:butt;stroke-linejoin:miter;stroke-opacity:1"
         d="m -710.0831,4811.4367 c 0,0 22.5091,-13.1547 31.5712,-37.4178 0,0 -3.0689,30.1473 -21.0523,39.8625 h -16.5364 z"
         id="path12701"
         inkscape:connector-curvature="0" />
      <path
         style="fill:#000000;stroke:none;stroke-width:0.26458332px;stroke-linecap:butt;stroke-linejoin:miter;stroke-opacity:1"
         d="m -711.9665,4797.3449 c 0,0 15.2962,-4.1341 18.8102,-13.0224 0,0 1.447,19.0169 -8.0615,25.6315 -9.5085,6.6146 -11.3688,1.2402 -11.3688,1.2402 z"
         id="path12711"
         inkscape:connector-curvature="0" />
      <path
         style="fill:#000000;stroke:none;stroke-width:0.26458332px;stroke-linecap:butt;stroke-linejoin:miter;stroke-opacity:1"
         d="m -692.6897,4802.9592 c 0,0 7.6004,-2.0463 13.1546,-9.9391 0,0 3.9464,10.5238 -0.7308,14.9087 -4.6772,4.3848 -17.101,6.285 -17.101,6.285 l -3.8003,-3.508 z"
         id="path12713"
         inkscape:connector-curvature="0" />
      <path
         style="fill:#000000;stroke:none;stroke-width:0.26458332px;stroke-linecap:butt;stroke-linejoin:miter;stroke-opacity:1"
         d="m -718.7878,4809.5406 c 0,0 -11.9889,-3.7207 -16.5365,-14.4694 0,0 -4.4441,9.1984 1.5504,16.5364 5.9944,7.3381 15.1928,1.2403 15.1928,1.2403 v -3.8241 z"
         id="path12715"
         inkscape:connector-curvature="0" />
      <path
         style="fill:#000014;fill-opacity:1;stroke:none;stroke-width:0.26458332px;stroke-linecap:butt;stroke-linejoin:miter;stroke-opacity:1"
         d="m -752.4808,4802.0992 c 0,0 -9.3018,-6.6146 -9.7152,-15.7097 0,0 -26.4583,-8.4749 -17.3633,1.8604 9.0951,10.3353 27.0785,13.8493 27.0785,13.8493 z"
         id="path12721"
         inkscape:connector-curvature="0"
         sodipodi:nodetypes="ccsc" />
      <path
         inkscape:connector-curvature="0"
         id="path12793"
         d="m -762.1172,4781.7656 -6.5042,-1.4617 -5.1888,2.4848 3.9464,5.4811 7.0889,-1.9732 z"
         style="fill:#000014;fill-opacity:1;stroke:none;stroke-width:0.26458332px;stroke-linecap:butt;stroke-linejoin:miter;stroke-opacity:1" />
      <path
         inkscape:connector-curvature="0"
         id="path12839"
         d="m -947.2793,4842.257 c -5.871,0 -12.7351,1.448 -18.3133,6.2006 -5.2181,4.4385 -7.843,10.4771 -8.9801,15.9648 -8e-4,0 0,0.011 0,0.013 l -2.0058,9.4678 a 16.149341,16.149341 0 0 0 -0.038,0.1809 c -0.3104,1.5528 -0.5551,3.2083 -0.5551,5.269 0,0.2735 0.073,0.6136 0.086,0.902 -1.2095,2.2011 -2.1338,4.4583 -2.5693,6.5264 v -0.019 l -2.9099,13.7487 a 16.149341,16.149341 0 0 0 -0.038,0.1787 c -0.3996,1.9976 -0.717,3.9378 -0.717,6.4823 0,5.1651 2.2054,12.5295 7.7017,17.0266 5.9191,4.8427 11.4798,5.1072 16.1289,5.1072 h 13.5868 c 2.4589,0 5.0259,-0.4381 7.5797,-1.127 3.3585,0.8397 6.4619,1.127 9.6465,1.127 h 7.2771 a 16.149341,16.149341 0 0 0 14.6927,-9.4974 16.149341,16.149341 0 0 0 14.6948,9.4974 h 12.2917 a 16.149341,16.149341 0 0 0 15.8008,-12.8152 l 1.0155,-4.8149 h 5.9986 a 16.149341,16.149341 0 0 0 16.0678,17.6301 h 36.7151 a 16.149341,16.149341 0 0 0 6.6021,-1.4277 c 3.4531,1.2148 6.6958,1.4277 9.5792,1.4277 h 27.2515 c 3.2943,0 6.9572,-0.5227 10.5569,-1.8314 a 16.149341,16.149341 0 0 0 7.4621,1.8314 h 10.1912 a 16.149341,16.149341 0 0 0 6.7933,-1.5202 16.149341,16.149341 0 0 0 6.7935,1.5202 h 9.6234 a 16.149341,16.149341 0 0 0 6.6378,-1.4445 16.149341,16.149341 0 0 0 6.6252,1.4445 h 10.1091 a 16.149341,16.149341 0 0 0 4.4975,-0.6519 16.149341,16.149341 0 0 0 4.5226,0.6519 h 35.668 c 3.3419,0 7.0441,-0.5183 10.6957,-1.8546 a 16.149341,16.149341 0 0 0 7.504,1.8546 h 12.2937 a 16.149341,16.149341 0 0 0 4.5858,-0.6771 16.149341,16.149341 0 0 0 4.5962,0.6771 h 11.4022 a 16.149341,16.149341 0 0 0 14.1398,-8.3873 l 0.1767,0.3049 a 16.149341,16.149341 0 0 0 13.9883,8.0824 h 8.1685 a 16.149341,16.149341 0 0 0 7.4431,-1.8336 c 3.8099,1.5697 7.413,1.8336 10.6033,1.8336 h 34.3706 a 16.149341,16.149341 0 0 0 15.7987,-12.811 l 6.7135,-31.7845 a 16.149341,16.149341 0 0 0 -0.066,-6.8818 16.149341,16.149341 0 0 0 2.0984,-5.2248 l 2.2644,-10.9187 a 16.149341,16.149341 0 0 0 -15.8113,-19.4278 h -33.8051 c -3.3092,0 -6.9841,0.5087 -10.6033,1.8167 a 16.149341,16.149341 0 0 0 -7.441,-1.8167 h -11.4841 a 16.149341,16.149341 0 0 0 -12.4094,5.839 16.149341,16.149341 0 0 0 -12.4199,-5.839 H -589.97 a 16.149341,16.149341 0 0 0 -4.5878,0.6771 16.149341,16.149341 0 0 0 -4.5942,-0.6771 h -12.2936 a 16.149341,16.149341 0 0 0 -7.8721,2.0584 c -3.985,-1.7685 -7.8029,-2.0584 -11.1373,-2.0584 h -34.8563 a 16.149341,16.149341 0 0 0 -4.4954,0.6519 16.149341,16.149341 0 0 0 -4.5268,-0.6519 h -12.7773 a 16.149341,16.149341 0 0 0 -13.7235,7.6408 l -1.8524,2.9898 a 16.149341,16.149341 0 0 0 -15.1552,-10.6306 h -13.2651 a 16.149341,16.149341 0 0 0 -4.3334,0.6119 16.149341,16.149341 0 0 0 -4.3839,-0.6119 h -11.8081 a 16.149341,16.149341 0 0 0 -10.9185,4.2788 16.149341,16.149341 0 0 0 -10.9166,-4.2788 h -12.2937 a 16.149341,16.149341 0 0 0 -15.6157,12.0667 16.149341,16.149341 0 0 0 -15.6033,-12.0667 h -12.2937 a 16.149341,16.149341 0 0 0 -6.951,1.596 c -3.579,-1.3488 -6.9556,-1.596 -9.9326,-1.596 h -34.2908 a 16.149341,16.149341 0 0 0 -15.7945,12.7984 l -2.2644,10.6747 a 16.149341,16.149341 0 0 0 -0.2943,2.2351 16.149341,16.149341 0 0 0 -0.5153,1.8082 l -0.7359,3.465 a 16.149341,16.149341 0 0 0 -6.5473,-6.3939 l 1.0786,-5.0924 a 16.149341,16.149341 0 0 0 -15.7966,-19.4951 z m 332.8409,4.9685 0.3322,0.267 c -0.07,-0.058 -0.1383,-0.08 -0.2082,-0.1366 -0.047,-0.038 -0.077,-0.093 -0.124,-0.1304 z m -13.7466,8.16 0.7695,0.492 -0.011,0.029 c -0.1648,-0.1103 -0.3038,-0.1688 -0.4647,-0.2712 -0.115,-0.07 -0.1807,-0.1829 -0.2985,-0.2502 z m -341.3878,16.604 c -0.024,0.014 -0.04,0.036 -0.064,0.051 -0.024,0.015 -0.052,0.021 -0.075,0.036 z m 51.1113,12.4788 -0.4478,2.1215 a 16.149341,16.149341 0 0 0 -0.1661,-0.011 16.149341,16.149341 0 0 0 0.6139,-2.1151 z m -1.4591,4.327 c 0.1656,0.1088 0.3086,0.2483 0.4688,0.3658 l -0.2543,1.2007 -0.2187,-0.2713 a 16.149341,16.149341 0 0 0 0,-1.2952 z m 6.7366,16.4842 -0.053,0.2481 h -2.6641 a 16.149341,16.149341 0 0 0 2.7166,-0.2481 z m 171.2079,17.3251 -0.1891,0.1724 c 0.035,-0.032 0.057,-0.069 0.093,-0.1012 0.031,-0.029 0.066,-0.043 0.097,-0.071 z m -193.4026,4.7371 -0.1998,0.077 c 0.033,-0.013 0.064,-0.035 0.097,-0.048 0.034,-0.013 0.069,-0.016 0.1033,-0.029 z"
         style="color:#000000;font-style:italic;font-variant:normal;font-weight:normal;font-stretch:normal;font-size:34.50383759px;line-height:1.25;font-family:'Hemi Head';-inkscape-font-specification:'Hemi Head, Italic';font-variant-ligatures:normal;font-variant-position:normal;font-variant-caps:normal;font-variant-numeric:normal;font-variant-alternates:normal;font-feature-settings:normal;text-indent:0;text-align:start;text-decoration:none;text-decoration-line:none;text-decoration-style:solid;text-decoration-color:#000000;letter-spacing:0px;word-spacing:0px;text-transform:none;writing-mode:lr-tb;direction:ltr;text-orientation:mixed;dominant-baseline:auto;baseline-shift:baseline;text-anchor:start;white-space:normal;shape-padding:0;clip-rule:nonzero;display:inline;overflow:visible;visibility:visible;opacity:1;isolation:auto;mix-blend-mode:normal;color-interpolation:sRGB;color-interpolation-filters:linearRGB;solid-color:#000000;solid-opacity:1;vector-effect:none;fill:#000014;fill-opacity:1;fill-rule:nonzero;stroke:#ffa500;stroke-width:17.22424126;stroke-linecap:round;stroke-linejoin:round;stroke-miterlimit:4;stroke-dasharray:none;stroke-dashoffset:0;stroke-opacity:1;color-rendering:auto;image-rendering:auto;shape-rendering:auto;text-rendering:auto;enable-background:accumulate"
         inkscape:export-xdpi="96"
         inkscape:export-ydpi="96" />
      <path
         id="path13507"
         d="m -947.2793,4842.257 c -5.871,0 -12.7351,1.448 -18.3133,6.2006 -5.2181,4.4385 -7.843,10.4771 -8.9801,15.9648 -8e-4,0 0,0.011 0,0.013 l -2.0058,9.4678 a 16.149341,16.149341 0 0 0 -0.038,0.1809 c -0.3104,1.5528 -0.5551,3.2083 -0.5551,5.269 0,0.2735 0.073,0.6136 0.086,0.902 -1.2095,2.2011 -2.1338,4.4583 -2.5693,6.5264 v -0.019 l -2.9099,13.7487 a 16.149341,16.149341 0 0 0 -0.038,0.1787 c -0.3996,1.9976 -0.717,3.9378 -0.717,6.4823 0,5.1651 2.2054,12.5295 7.7017,17.0266 5.9191,4.8427 11.4798,5.1072 16.1289,5.1072 h 13.5868 c 2.4589,0 5.0259,-0.4381 7.5797,-1.127 3.3585,0.8397 6.4619,1.127 9.6465,1.127 h 7.2771 a 16.149341,16.149341 0 0 0 14.6927,-9.4974 16.149341,16.149341 0 0 0 14.6948,9.4974 h 12.2917 a 16.149341,16.149341 0 0 0 15.8008,-12.8152 l 1.0155,-4.8149 h 5.9986 a 16.149341,16.149341 0 0 0 16.0678,17.6301 h 36.7151 a 16.149341,16.149341 0 0 0 6.6021,-1.4277 c 3.4531,1.2148 6.6958,1.4277 9.5792,1.4277 h 27.2515 c 3.2943,0 6.9572,-0.5227 10.5569,-1.8314 a 16.149341,16.149341 0 0 0 7.4621,1.8314 h 10.1912 a 16.149341,16.149341 0 0 0 6.7933,-1.5202 16.149341,16.149341 0 0 0 6.7935,1.5202 h 9.6234 a 16.149341,16.149341 0 0 0 6.6378,-1.4445 16.149341,16.149341 0 0 0 6.6252,1.4445 h 10.1091 a 16.149341,16.149341 0 0 0 4.4975,-0.6519 16.149341,16.149341 0 0 0 4.5226,0.6519 h 35.668 c 3.3419,0 7.0441,-0.5183 10.6957,-1.8546 a 16.149341,16.149341 0 0 0 7.504,1.8546 h 12.2937 a 16.149341,16.149341 0 0 0 4.5858,-0.6771 16.149341,16.149341 0 0 0 4.5962,0.6771 h 11.4022 a 16.149341,16.149341 0 0 0 14.1398,-8.3873 l 0.1767,0.3049 a 16.149341,16.149341 0 0 0 13.9883,8.0824 h 8.1685 a 16.149341,16.149341 0 0 0 7.4431,-1.8336 c 3.8099,1.5697 7.413,1.8336 10.6033,1.8336 h 34.3706 a 16.149341,16.149341 0 0 0 15.7987,-12.811 l 6.7135,-31.7845 a 16.149341,16.149341 0 0 0 -0.066,-6.8818 16.149341,16.149341 0 0 0 2.0984,-5.2248 l 2.2644,-10.9187 a 16.149341,16.149341 0 0 0 -15.8113,-19.4278 h -33.8051 c -3.3092,0 -6.9841,0.5087 -10.6033,1.8167 a 16.149341,16.149341 0 0 0 -7.441,-1.8167 h -11.4841 a 16.149341,16.149341 0 0 0 -12.4094,5.839 16.149341,16.149341 0 0 0 -12.4199,-5.839 H -589.97 a 16.149341,16.149341 0 0 0 -4.5878,0.6771 16.149341,16.149341 0 0 0 -4.5942,-0.6771 h -12.2936 a 16.149341,16.149341 0 0 0 -7.8721,2.0584 c -3.985,-1.7685 -7.8029,-2.0584 -11.1373,-2.0584 h -34.8563 a 16.149341,16.149341 0 0 0 -4.4954,0.6519 16.149341,16.149341 0 0 0 -4.5268,-0.6519 h -12.7773 a 16.149341,16.149341 0 0 0 -13.7235,7.6408 l -1.8524,2.9898 a 16.149341,16.149341 0 0 0 -15.1552,-10.6306 h -13.2651 a 16.149341,16.149341 0 0 0 -4.3334,0.6119 16.149341,16.149341 0 0 0 -4.3839,-0.6119 h -11.8081 a 16.149341,16.149341 0 0 0 -10.9185,4.2788 16.149341,16.149341 0 0 0 -10.9166,-4.2788 h -12.2937 a 16.149341,16.149341 0 0 0 -15.6157,12.0667 16.149341,16.149341 0 0 0 -15.6033,-12.0667 h -12.2937 a 16.149341,16.149341 0 0 0 -6.951,1.596 c -3.579,-1.3488 -6.9556,-1.596 -9.9326,-1.596 h -34.2908 a 16.149341,16.149341 0 0 0 -15.7945,12.7984 l -2.2644,10.6747 a 16.149341,16.149341 0 0 0 -0.2943,2.2351 16.149341,16.149341 0 0 0 -0.5153,1.8082 l -0.7359,3.465 a 16.149341,16.149341 0 0 0 -6.5473,-6.3939 l 1.0786,-5.0924 a 16.149341,16.149341 0 0 0 -15.7966,-19.4951 z"
         style="color:#000000;font-style:italic;font-variant:normal;font-weight:normal;font-stretch:normal;font-size:34.50383759px;line-height:1.25;font-family:'Hemi Head';-inkscape-font-specification:'Hemi Head, Italic';font-variant-ligatures:normal;font-variant-position:normal;font-variant-caps:normal;font-variant-numeric:normal;font-variant-alternates:normal;font-feature-settings:normal;text-indent:0;text-align:start;text-decoration:none;text-decoration-line:none;text-decoration-style:solid;text-decoration-color:#000000;letter-spacing:0px;word-spacing:0px;text-transform:none;writing-mode:lr-tb;direction:ltr;text-orientation:mixed;dominant-baseline:auto;baseline-shift:baseline;text-anchor:start;white-space:normal;shape-padding:0;clip-rule:nonzero;display:inline;overflow:visible;visibility:visible;opacity:1;isolation:auto;mix-blend-mode:normal;color-interpolation:sRGB;color-interpolation-filters:linearRGB;solid-color:#000000;solid-opacity:1;vector-effect:none;fill:#000014;fill-opacity:1;fill-rule:nonzero;stroke:none;stroke-width:32.29545212;stroke-linecap:round;stroke-linejoin:round;stroke-miterlimit:4;stroke-dasharray:none;stroke-dashoffset:0;stroke-opacity:1;color-rendering:auto;image-rendering:auto;shape-rendering:auto;text-rendering:auto;enable-background:accumulate"
         inkscape:connector-curvature="0" />
      <path
         d="m -510.85547,4768.7363 c -5.89875,0 -12.11808,1.0948 -17.25,5.6367 -4.42585,3.9172 -6.75752,9.1303 -7.96094,14.3848 a 11.887278,11.887278 0 0 0 -0.0137,0.061 l -3.57422,15.998 a 11.887278,11.887278 0 0 0 -0.0859,0.4121 c -0.28577,1.5318 -0.49024,3.0535 -0.49024,4.832 0,2.946 0.88335,6.3675 2.58789,9.379 a 11.887278,11.887278 0 0 0 -7.13281,8.4062 l -2.70508,12.0684 a 11.887278,11.887278 0 0 0 11.59766,14.4863 h 41.45508 c 5.85966,0 12.06988,-1.1368 17.15429,-5.6367 4.42586,-3.9172 6.75558,-9.1283 7.95899,-14.3828 a 11.887278,11.887278 0 0 0 0.0156,-0.068 l 3.76953,-16.9141 a 11.887278,11.887278 0 0 0 0.0273,-0.1269 c 0.33689,-1.594 0.54687,-3.259 0.54687,-5.0176 0,-2.9027 -0.92199,-6.2416 -2.57422,-9.1934 a 11.887278,11.887278 0 0 0 6.35157,-8.0761 l 2.60937,-11.7949 a 11.887278,11.887278 0 0 0 -11.60547,-14.4532 z m 40.11133,30.0957 0.23437,0.2168 c -0.0423,-0.04 -0.0884,-0.056 -0.13085,-0.096 -0.0391,-0.036 -0.064,-0.086 -0.10352,-0.1211 z m -17.45898,40.1309 -0.53321,0.416 c 0.0961,-0.071 0.14739,-0.1512 0.24024,-0.2227 0.0995,-0.079 0.19309,-0.1107 0.29297,-0.1933 z m -78.66993,-70.2266 a 11.887278,11.887278 0 0 0 -10.41797,6.1621 l -34.01171,61.8907 a 11.887278,11.887278 0 0 0 10.41601,17.6113 h 14.20508 a 11.887278,11.887278 0 0 0 10.5293,-6.3731 l 1.68945,-3.2265 h 5.30469 l -0.10157,-1.4512 a 11.887278,11.887278 0 0 0 11.85547,11.0508 h 14.78516 a 11.887278,11.887278 0 0 0 11.84766,-12.8477 l -5.0254,-61.8925 a 11.887278,11.887278 0 0 0 -11.84765,-10.9239 z m -67.98242,0 c -5.85966,0 -12.06988,1.1369 -17.1543,5.6367 -4.42584,3.9172 -6.75752,9.1303 -7.96093,14.3848 a 11.887278,11.887278 0 0 0 -0.0137,0.066 l -8.98632,40.3164 0.0527,-0.2304 c -0.54452,2.2322 -0.91797,4.4492 -0.91797,6.9296 0,4.7451 2.20169,10.9178 6.73633,14.4278 a 11.887278,11.887278 0 0 0 0.20313,0.1543 c 4.85832,3.5972 9.61423,3.9785 14.22265,3.9785 h 41.06836 a 11.887278,11.887278 0 0 0 11.59961,-9.2969 l 8.02148,-35.9277 a 11.887278,11.887278 0 0 0 -0.89257,-7.7129 11.887278,11.887278 0 0 0 3.31836,-5.9531 l 2.70507,-12.3418 a 11.887278,11.887278 0 0 0 -11.61132,-14.4317 z"
         style="color:#000000;font-style:italic;font-variant:normal;font-weight:normal;font-stretch:normal;font-size:86.98194885px;line-height:1.25;font-family:'Hemi Head';-inkscape-font-specification:'Hemi Head, Italic';font-variant-ligatures:normal;font-variant-position:normal;font-variant-caps:normal;font-variant-numeric:normal;font-variant-alternates:normal;font-feature-settings:normal;text-indent:0;text-align:start;text-decoration:none;text-decoration-line:none;text-decoration-style:solid;text-decoration-color:#000000;letter-spacing:0px;word-spacing:0px;text-transform:none;writing-mode:lr-tb;direction:ltr;text-orientation:mixed;dominant-baseline:auto;baseline-shift:baseline;text-anchor:start;white-space:normal;shape-padding:0;clip-rule:nonzero;display:inline;overflow:visible;visibility:visible;opacity:1;isolation:auto;mix-blend-mode:normal;color-interpolation:sRGB;color-interpolation-filters:linearRGB;solid-color:#000000;solid-opacity:1;vector-effect:none;fill:#000014;fill-opacity:1;fill-rule:nonzero;stroke:none;stroke-width:23.77217865;stroke-linecap:round;stroke-linejoin:round;stroke-miterlimit:4;stroke-dasharray:none;stroke-dashoffset:0;stroke-opacity:1;color-rendering:auto;image-rendering:auto;shape-rendering:auto;text-rendering:auto;enable-background:accumulate"
         id="path12847"
         inkscape:connector-curvature="0" />
      <path
         style="fill:#410000;fill-opacity:1;stroke:none;stroke-width:0.18736595px;stroke-linecap:butt;stroke-linejoin:miter;stroke-opacity:1"
         d="m -783.7324,4778.4893 c 0,0 -8.0218,12.4725 -14.6978,14.4909 -6.6763,2.0183 5.1752,5.6928 5.1752,5.6928 l 4.7614,-6.8832 2.4841,-6.9349 1.9408,-4.9683 z"
         id="path12851"
         inkscape:connector-curvature="0"
         inkscape:export-xdpi="96"
         inkscape:export-ydpi="96" />
      <path
         style="fill:#410000;fill-opacity:1;stroke:none;stroke-width:0.18736595px;stroke-linecap:butt;stroke-linejoin:miter;stroke-opacity:1"
         d="m -794.1029,4785.7858 c 0,0 -6.9151,5.6418 -9.5027,4.0892 -2.5876,-1.5526 -0.4139,4.9165 0,4.813 0.4141,-0.1035 5.5893,0.621 6.0034,-0.1552 0.414,-0.7764 2.6912,-5.3306 2.6912,-5.3306 z"
         id="path12853"
         inkscape:connector-curvature="0"
         inkscape:export-xdpi="96"
         inkscape:export-ydpi="96" />
      <path
         style="fill:#410000;fill-opacity:1;stroke:none;stroke-width:0.18736595px;stroke-linecap:butt;stroke-linejoin:miter;stroke-opacity:1"
         d="m -823.9643,4793.3976 c 0,0 5.8552,6.0747 7.8313,6.0015 0,0 2.0493,-5.782 6.3675,-6.5871 4.3181,-0.8051 -1.3174,12.735 -1.3174,12.735 l -4.7364,0.889 -7.8664,-7.4525 z"
         id="path12855"
         inkscape:connector-curvature="0"
         inkscape:export-xdpi="96"
         inkscape:export-ydpi="96" />
      <path
         style="fill:#410000;fill-opacity:1;stroke:none;stroke-width:0.18736595px;stroke-linecap:butt;stroke-linejoin:miter;stroke-opacity:1"
         d="m -836.4064,4789.4453 c 0,0 2.7324,5.5532 5.734,7.0023 3.0018,1.4491 6.9867,2.5359 6.9867,2.5359 l 0.6727,2.8982 -10.0918,-0.1553 -3.7263,-6.6761 z"
         id="path12857"
         inkscape:connector-curvature="0"
         inkscape:export-xdpi="96"
         inkscape:export-ydpi="96" />
      <path
         style="fill:#000000;stroke:none;stroke-width:0.18736595px;stroke-linecap:butt;stroke-linejoin:miter;stroke-opacity:1"
         d="m -828.9412,4802.7659 c 0,0 -7.7582,-9.0756 -7.4652,-13.3206 0,0 -3.0741,4.9769 0.2926,10.5393 3.3667,5.5624 7.1726,2.7813 7.1726,2.7813 z"
         id="path12859"
         inkscape:connector-curvature="0"
         inkscape:export-xdpi="96"
         inkscape:export-ydpi="96" />
      <path
         style="fill:#000000;stroke:none;stroke-width:0.18736595px;stroke-linecap:butt;stroke-linejoin:miter;stroke-opacity:1"
         d="m -806.0897,4804.9869 c 0,0 15.9399,-9.3156 22.3573,-26.4976 0,0 -2.1732,21.3489 -14.9084,28.2288 h -11.7101 z"
         id="path12861"
         inkscape:connector-curvature="0"
         inkscape:export-xdpi="96"
         inkscape:export-ydpi="96" />
      <path
         style="fill:#000000;stroke:none;stroke-width:0.18736595px;stroke-linecap:butt;stroke-linejoin:miter;stroke-opacity:1"
         d="m -788.8042,4804.2623 c 0,0 11.9032,-11.6961 12.0067,-20.4942 0,0 2.8982,4.9682 0.7245,11.1787 -2.1736,6.2104 -12.7312,9.3155 -12.7312,9.3155 z"
         id="path12863"
         inkscape:connector-curvature="0"
         inkscape:export-xdpi="96"
         inkscape:export-ydpi="96" />
      <path
         style="fill:#000000;stroke:none;stroke-width:0.18736595px;stroke-linecap:butt;stroke-linejoin:miter;stroke-opacity:1"
         d="m -807.4234,4795.0077 c 0,0 10.8321,-2.9276 13.3205,-9.2219 0,0 1.0247,13.467 -5.7089,18.1511 -6.7334,4.6841 -8.0507,0.8782 -8.0507,0.8782 z"
         id="path12865"
         inkscape:connector-curvature="0"
         inkscape:export-xdpi="96"
         inkscape:export-ydpi="96" />
      <path
         style="fill:#000000;stroke:none;stroke-width:0.18736595px;stroke-linecap:butt;stroke-linejoin:miter;stroke-opacity:1"
         d="m -793.7724,4798.9835 c 0,0 5.3822,-1.4491 9.3155,-7.0384 0,0 2.7947,7.4525 -0.5176,10.5576 -3.3121,3.1052 -12.1102,4.4508 -12.1102,4.4508 l -2.6912,-2.4841 z"
         id="path12867"
         inkscape:connector-curvature="0"
         inkscape:export-xdpi="96"
         inkscape:export-ydpi="96" />
      <path
         style="fill:#000000;stroke:none;stroke-width:0.18736595px;stroke-linecap:butt;stroke-linejoin:miter;stroke-opacity:1"
         d="m -812.254,4803.6441 c 0,0 -8.4899,-2.6348 -11.7103,-10.2465 0,0 -3.1472,6.5138 1.098,11.7103 4.2449,5.1965 10.7587,0.8783 10.7587,0.8783 v -2.7081 z"
         id="path12869"
         inkscape:connector-curvature="0"
         inkscape:export-xdpi="96"
         inkscape:export-ydpi="96" />
      <path
         style="fill:#000000;stroke:none;stroke-width:0.18736595px;stroke-linecap:butt;stroke-linejoin:miter;stroke-opacity:1"
         d="m -787.8726,4790.496 c 0,0 11.7996,-1.9666 12.8347,-19.0451 l 9.2121,1.1385 -0.8281,2.4842 -1.8632,3.5192 -6.8314,17.3891 -12.4206,4.7612 c 0,0 -5.6929,-1.5526 -5.4859,-2.0701 0.2071,-0.5175 5.3824,-8.177 5.3824,-8.177 z"
         id="path12871"
         inkscape:connector-curvature="0"
         inkscape:export-xdpi="96"
         inkscape:export-ydpi="96" />
      <path
         inkscape:connector-curvature="0"
         id="path12873"
         d="m -950.426,4768.9733 a 10.623385,10.623385 0 0 0 -10.3941,8.4342 l -2.6474,12.5725 a 10.623385,10.623385 0 0 0 -0.2088,2.5256 10.623385,10.623385 0 0 0 -0.7318,2.1811 l -9.9266,46.6995 a 10.623385,10.623385 0 0 0 10.3915,12.8313 h 14.8409 a 10.623385,10.623385 0 0 0 10.3912,-8.4205 l 3.6045,-17.0095 h 15.4992 a 10.623385,10.623385 0 0 0 0.8741,-0.044 l -2.6736,12.6556 a 10.623385,10.623385 0 0 0 10.3927,12.8187 h 42.918 a 10.623385,10.623385 0 0 0 2.2394,-0.2462 10.623385,10.623385 0 0 0 2.2101,0.2462 h 13.8962 a 10.623385,10.623385 0 0 0 9.5187,-5.9088 l 1.9903,-4.0178 h 6.5351 v 0.011 a 10.623385,10.623385 0 0 0 10.5974,9.9169 h 14.4646 a 10.623385,10.623385 0 0 0 3.2863,-0.5298 10.623385,10.623385 0 0 0 3.2669,0.5298 h 36.6027 c 3.8967,0 7.9173,-0.6764 11.5796,-2.4552 a 10.623385,10.623385 0 0 0 6.78,2.4552 h 14.3678 a 10.623385,10.623385 0 0 0 10.394,-8.433 l 3.8009,-18.0371 h 3.3402 l -2.8768,13.6569 a 10.623385,10.623385 0 0 0 10.394,12.8132 h 14.3693 a 10.623385,10.623385 0 0 0 10.3926,-8.4274 l 13.5186,-63.9995 a 10.623385,10.623385 0 0 0 -10.3927,-12.8173 h -14.3692 a 10.623385,10.623385 0 0 0 -10.3941,8.4273 l -3.6085,17.0967 h -3.3388 l 2.6831,-12.7081 a 10.623385,10.623385 0 0 0 -10.3926,-12.8159 h -14.3691 a 10.623385,10.623385 0 0 0 -4.0804,0.8174 10.623385,10.623385 0 0 0 -4.0691,-0.8174 h -39.7976 c -5.7154,0 -11.7274,1.209 -16.4274,5.6057 -2.0722,1.9385 -3.6227,4.1752 -4.8007,6.5767 l -0.1826,-2.3734 a 10.623385,10.623385 0 0 0 -10.5905,-9.809 h -18.8133 a 10.623385,10.623385 0 0 0 -9.4244,5.7219 l -23.5654,45.326 h -17.444 l 8.0719,-38.232 a 10.623385,10.623385 0 0 0 -10.3927,-12.8159 h -14.3691 a 10.623385,10.623385 0 0 0 -2.7719,0.3803 10.623385,10.623385 0 0 0 -2.7966,-0.3803 z m 192.6097,69.4751 -0.4728,0.3902 c 0.09,-0.069 0.1359,-0.1466 0.2226,-0.2172 0.083,-0.07 0.1665,-0.099 0.2502,-0.173 z"
         style="color:#000000;font-style:italic;font-variant:normal;font-weight:normal;font-stretch:normal;font-size:133.49272156px;line-height:1.25;font-family:'Hemi Head';-inkscape-font-specification:'Hemi Head, Italic';font-variant-ligatures:normal;font-variant-position:normal;font-variant-caps:normal;font-variant-numeric:normal;font-variant-alternates:normal;font-feature-settings:normal;text-indent:0;text-align:start;text-decoration:none;text-decoration-line:none;text-decoration-style:solid;text-decoration-color:#000000;letter-spacing:0px;word-spacing:0px;text-transform:none;writing-mode:lr-tb;direction:ltr;text-orientation:mixed;dominant-baseline:auto;baseline-shift:baseline;text-anchor:start;white-space:normal;shape-padding:0;clip-rule:nonzero;display:inline;overflow:visible;visibility:visible;opacity:1;isolation:auto;mix-blend-mode:normal;color-interpolation:sRGB;color-interpolation-filters:linearRGB;solid-color:#000000;solid-opacity:1;vector-effect:none;fill:#000014;fill-opacity:1;fill-rule:nonzero;stroke:none;stroke-width:14.16309738;stroke-linecap:round;stroke-linejoin:round;stroke-miterlimit:4;stroke-dasharray:none;stroke-dashoffset:0;stroke-opacity:1;color-rendering:auto;image-rendering:auto;shape-rendering:auto;text-rendering:auto;enable-background:accumulate"
         inkscape:export-xdpi="96"
         inkscape:export-ydpi="96" />
      <path
         sodipodi:nodetypes="cccccccccccccccscccssscscccsccsccccssscscccscccccccccccccccccccccccccccccccccccc"
         inkscape:connector-curvature="0"
         d="m -691.3386,4843.5944 h -14.369 l 5.5774,-26.4694 h -25.0513 l -5.5776,26.4694 h -14.369 l 13.5182,-63.9992 h 14.3691 l -5.3883,25.5241 h 25.0513 l 5.3885,-25.5241 h 14.369 z m -108.7512,0 -1.1828,-12.4784 h 34.0041 c 1.1344,0 1.9536,-0.2205 2.4578,-0.6616 0.5673,-0.4413 0.9769,-1.2606 1.229,-2.4581 l 1.8907,-8.8861 c 0.064,-0.252 0.094,-0.5986 0.094,-1.0397 0,-1.1345 -0.8193,-1.7017 -2.4579,-1.7017 h -25.2404 c -2.5839,0 -4.4747,-0.5357 -5.672,-1.6071 -1.1345,-1.1344 -1.7017,-2.7099 -1.7017,-4.7267 0,-0.7563 0.094,-1.67 0.2837,-2.7415 l 3.4976,-16.5433 c 0.8193,-3.7814 2.2058,-6.5858 4.1596,-8.4135 1.9538,-1.8276 5.0102,-2.7415 9.1697,-2.7415 h 39.7986 l -2.5525,12.1949 h -33.9374 c -1.0084,0 -1.7331,0.2205 -2.1743,0.6617 -0.4411,0.4412 -0.7878,1.2289 -1.0399,2.3634 l -1.7962,8.4134 c -0.063,0.2521 -0.126,0.4727 -0.1891,0.6618 v 0.5671 c 0,0.9454 0.6933,1.4181 2.0799,1.4181 h 25.6186 c 2.6469,0 4.5376,0.5672 5.672,1.7016 1.1974,1.1343 1.7961,2.71 1.7961,4.7266 0,0.8193 -0.094,1.7017 -0.2836,2.647 l -3.6868,17.4888 c -0.8193,3.7811 -2.2058,6.5857 -4.1594,8.4134 -1.9539,1.8276 -4.9788,2.7414 -9.0753,2.7414 z m -21.0171,0 -0.6617,-9.926 h -23.0662 l -4.9157,9.926 h -13.8965 l 33.2759,-63.9992 h 18.8121 l 4.9158,63.9992 z m -3.1196,-51.1426 -15.5035,30.6289 h 17.4886 z m -43.8694,51.1426 h -42.9183 l 13.5182,-63.9992 h 14.3692 l -10.7768,51.0482 h 32.2818 z m -75.6176,-25.4295 -5.3885,25.4295 h -14.8417 l 9.9259,-46.6996 h 14.8419 l -2.2689,10.5878 h 24.106 l -1.1344,5.3412 -1.1344,5.3411 z m -9.3589,-25.9967 2.6469,-12.573 h 47.3613 l -2.6469,12.573 z"
         style="font-style:italic;font-variant:normal;font-weight:normal;font-stretch:normal;font-size:133.49272156px;line-height:1.25;font-family:'Hemi Head';-inkscape-font-specification:'Hemi Head, Italic';font-variant-ligatures:normal;font-variant-caps:normal;font-variant-numeric:normal;font-feature-settings:normal;text-align:start;letter-spacing:0px;word-spacing:0px;writing-mode:lr-tb;text-anchor:start;fill:#ececec;fill-opacity:1;stroke:none;stroke-width:2.36333799"
         id="path12877"
         inkscape:export-xdpi="96"
         inkscape:export-ydpi="96" />
      <path
         sodipodi:nodetypes="cccccccc"
         inkscape:connector-curvature="0"
         id="path12881"
         d="m -961.4826,4841.7996 6.2943,-28.9758 h 34.5692 l -0.6823,3.7254 h -24.5185 l -5.1966,25.0309 -0.079,0.2646 z"
         style="fill:#b3b3b3;stroke:none;stroke-width:0.18736595px;stroke-linecap:butt;stroke-linejoin:miter;stroke-opacity:1"
         inkscape:export-xdpi="96"
         inkscape:export-ydpi="96" />
      <path
         style="fill:#b3b3b3;fill-opacity:1;stroke:none;stroke-width:0.18736595px;stroke-linecap:butt;stroke-linejoin:miter;stroke-opacity:1"
         d="m -902.3503,4812.8239 h -5e-4 l 6.0227,1.0113 -6.414,0.8154 -5.811,27.1468 38.8075,-0.068 3.6544,-7.2266 -6.1518,-0.7824 5.9309,-0.9961 h -30.5523 l 3.4608,-16.2301 -6.1651,-0.784 6.567,-1.1028 0.381,-1.7859 z"
         id="path12883"
         inkscape:export-xdpi="96"
         inkscape:export-ydpi="96"
         inkscape:connector-curvature="0" />
      <path
         id="path12885"
         d="m -845.05,4812.8237 -0.036,0.068 6.0653,1.0185 -7.0788,0.9001 -14.1748,26.843 8.7098,-0.22 5.1962,-10.1002 h 26.934 l 0.788,10.4665 9.7513,-0.2195 -2.1365,-25.4369 -3.9668,-0.65 3.8425,-0.832 -0.1541,-1.8377 h -9.2219 l 0.011,0.1726 6.7497,1.1341 -6.619,0.8415 0.6627,9.9941 h -23.9333 l 0.3897,-0.7271 -3.3458,-0.5483 4.1189,-0.8918 5.3508,-9.9751 z"
         style="fill:#b3b3b3;fill-opacity:1;stroke:none;stroke-width:0.18736593px;stroke-linecap:butt;stroke-linejoin:miter;stroke-opacity:1"
         inkscape:connector-curvature="0"
         inkscape:export-xdpi="96"
         inkscape:export-ydpi="96" />
      <path
         id="path12887"
         d="m -793.3368,4812.8237 5.5207,0.9275 -4.2181,0.5361 c 0.7061,0.2833 1.2905,0.359 1.2905,0.359 h 26.0558 c 2.983,-0.074 4.273,0.7573 4.8199,1.6009 l 4.7496,1.0286 -4.4094,0.7225 -2.4681,11.4158 c -0.9315,4.3473 -4.5544,3.9853 -4.5544,3.9853 h -31.9835 l 0.9052,8.4004 35.4294,-0.073 c 8.49,0.2928 10.0364,-10.4491 10.0364,-10.4491 0,0 3.1571,-14.6463 3.4159,-15.8366 0.046,-0.214 0.068,-0.4348 0.08,-0.6544 l -5.159,-0.846 4.9838,-1.0788 c 0,0 -0.01,-0.038 -0.01,-0.038 z"
         style="fill:#b3b3b3;fill-opacity:1;stroke:none;stroke-width:0.18736593px;stroke-linecap:butt;stroke-linejoin:miter;stroke-opacity:1"
         inkscape:connector-curvature="0"
         inkscape:export-xdpi="96"
         inkscape:export-ydpi="96" />
      <path
         inkscape:connector-curvature="0"
         id="path12889"
         d="m -742.6671,4841.7996 6.0299,-28.9758 h 49.3724 l -6.0629,28.9758 h -9.9189 l 5.6312,-26.3586 h -29.6027 l -5.3823,26.1869 -0.032,0.1359 z"
         style="fill:#b3b3b3;fill-opacity:1;stroke:none;stroke-width:0.18736595px;stroke-linecap:butt;stroke-linejoin:miter;stroke-opacity:1"
         inkscape:export-xdpi="96"
         inkscape:export-ydpi="96" />
      <path
         inkscape:connector-curvature="0"
         id="path12891"
         d="m -956.9247,4815.7974 10.5577,-1.4803 -9.6261,-1.7832 z"
         style="fill:#ececec;fill-opacity:1;stroke:none;stroke-width:0.15106986px;stroke-linecap:butt;stroke-linejoin:miter;stroke-opacity:1"
         inkscape:export-xdpi="96"
         inkscape:export-ydpi="96" />
      <path
         style="fill:#ececec;fill-opacity:1;stroke:none;stroke-width:0.11674666px;stroke-linecap:butt;stroke-linejoin:miter;stroke-opacity:1"
         d="m -919.2501,4814.7469 -9.0002,-1.0372 8.2062,-1.2491 z"
         id="path12893"
         inkscape:connector-curvature="0"
         inkscape:export-xdpi="96"
         inkscape:export-ydpi="96" />
      <path
         inkscape:connector-curvature="0"
         id="path12895"
         d="m -737.9797,4815.5275 10.2076,-1.2976 -9.3073,-1.563 z"
         style="fill:#ececec;fill-opacity:1;stroke:none;stroke-width:0.13907452px;stroke-linecap:butt;stroke-linejoin:miter;stroke-opacity:1"
         inkscape:export-xdpi="96"
         inkscape:export-ydpi="96" />
      <path
         style="fill:#ececec;fill-opacity:1;stroke:none;stroke-width:0.09637407px;stroke-linecap:butt;stroke-linejoin:miter;stroke-opacity:1"
         d="m -698.5128,4817.4304 7.0735,-0.8991 -6.4496,-1.0831 z"
         id="path12897"
         inkscape:connector-curvature="0"
         inkscape:export-xdpi="96"
         inkscape:export-ydpi="96" />
      <path
         inkscape:connector-curvature="0"
         id="path12899"
         d="m -685.6573,4814.6492 -7.0735,-0.8992 6.4496,-1.0831 z"
         style="fill:#ececec;fill-opacity:1;stroke:none;stroke-width:0.09637407px;stroke-linecap:butt;stroke-linejoin:miter;stroke-opacity:1"
         inkscape:export-xdpi="96"
         inkscape:export-ydpi="96" />
      <path
         inkscape:connector-curvature="0"
         id="path12901"
         d="m -842.3294,4848.4123 4.4671,-8.8225 8.5992,0.5583 1.6754,6.8125 6.8123,1.5634 6.589,3.0153 -1.4517,11.3912 -2.9039,2.9037 c 0,0 -6.1422,-3.2387 -6.1422,-3.9088 0,-0.6701 -0.6701,-7.8175 -0.6701,-7.8175 l -9.6044,-2.9035 z"
         style="fill:#000014;fill-opacity:1;stroke:none;stroke-width:0.28589645px;stroke-linecap:butt;stroke-linejoin:miter;stroke-opacity:1"
         inkscape:export-xdpi="96"
         inkscape:export-ydpi="96" />
      <path
         inkscape:connector-curvature="0"
         id="path12903"
         d="m -726.0473,4851.7399 8.2126,-29.6921 6.7915,1.5793 1.4213,7.2651 -2.2112,23.8485 z"
         style="fill:#000014;fill-opacity:1;stroke:none;stroke-width:0.28589645px;stroke-linecap:butt;stroke-linejoin:miter;stroke-opacity:1"
         inkscape:export-xdpi="96"
         inkscape:export-ydpi="96" />
      <g
         id="g12911"
         style="font-style:italic;font-variant:normal;font-weight:normal;font-stretch:normal;font-size:86.98194885px;line-height:1.25;font-family:'Hemi Head';-inkscape-font-specification:'Hemi Head, Italic';font-variant-ligatures:normal;font-variant-caps:normal;font-variant-numeric:normal;font-feature-settings:normal;text-align:start;letter-spacing:0px;word-spacing:0px;writing-mode:lr-tb;text-anchor:start;fill:#ececec;fill-opacity:1;stroke:none;stroke-width:2.17454863"
         transform="matrix(1.1109178,0,0,1.0510193,-4578.1533,3739.7091)"
         aria-label="GAS"
         inkscape:export-xdpi="96"
         inkscape:export-ydpi="96">
        <path
           inkscape:connector-curvature="0"
           id="path12905"
           style="font-style:italic;font-variant:normal;font-weight:normal;font-stretch:normal;font-size:86.98194885px;font-family:'Hemi Head';-inkscape-font-specification:'Hemi Head, Italic';font-variant-ligatures:normal;font-variant-caps:normal;font-variant-numeric:normal;font-feature-settings:normal;text-align:start;writing-mode:lr-tb;text-anchor:start;fill:#ececec;fill-opacity:1;stroke-width:2.17454863"
           d="m 3537.253,1049.2719 q -4.4361,0 -6.4367,-1.5657 -1.9136,-1.5657 -1.9136,-4.784 0,-1.6527 0.5219,-3.9142 l 8.0893,-38.3591 q 1.1308,-5.21888 3.8272,-7.74135 2.6965,-2.52248 8.3503,-2.52248 h 36.3584 l -2.4355,11.74253 h -30.6176 q -1.7396,0 -2.4355,0.6089 -0.6089,0.6089 -1.0438,2.6095 l -6.3497,30.0087 q -0.1739,0.8699 -0.1739,1.1308 0,0.8698 0.5219,1.2178 0.5219,0.2609 1.8266,0.2609 h 18.8751 l 2.8704,-13.3952 h -11.6556 l 2.0006,-9.4811 h 24.007 l -7.2195,34.184 z" />
        <path
           inkscape:connector-curvature="0"
           id="path12907"
           style="font-style:italic;font-variant:normal;font-weight:normal;font-stretch:normal;font-size:86.98194885px;font-family:'Hemi Head';-inkscape-font-specification:'Hemi Head, Italic';font-variant-ligatures:normal;font-variant-caps:normal;font-variant-numeric:normal;font-feature-settings:normal;text-align:start;writing-mode:lr-tb;text-anchor:start;fill:#ececec;fill-opacity:1;stroke-width:2.17454863"
           d="m 3619.4101,1049.2719 -0.6088,-9.1332 h -21.2236 l -4.5231,9.1332 h -12.7863 l 30.6176,-58.88683 h 17.3094 l 4.5231,58.88683 z m -2.8704,-47.0573 -14.265,28.1822 h 16.0917 z" />
        <path
           sodipodi:nodetypes="ccscccssscscccsccsccccssscscccsc"
           inkscape:connector-curvature="0"
           id="path12909"
           style="font-style:italic;font-variant:normal;font-weight:normal;font-stretch:normal;font-size:86.98194885px;font-family:'Hemi Head';-inkscape-font-specification:'Hemi Head, Italic';font-variant-ligatures:normal;font-variant-caps:normal;font-variant-numeric:normal;font-feature-settings:normal;text-align:start;writing-mode:lr-tb;text-anchor:start;fill:#ececec;fill-opacity:1;stroke-width:2.17454863"
           d="m 3638.7826,1049.2719 -1.0476,-11.4817 h 34.8836 c 1.0438,0 1.7977,-0.2029 2.2616,-0.6088 0.5219,-0.4059 0.8988,-1.1598 1.1307,-2.2616 l 1.7397,-8.1763 c 0.058,-0.2319 0.087,-0.5509 0.087,-0.9568 0,-1.0438 -0.7538,-1.5657 -2.2615,-1.5657 h -23.2242 c -2.3775,0 -4.1171,-0.4929 -5.2189,-1.4786 -1.0438,-1.0438 -1.5657,-2.4935 -1.5657,-4.3491 0,-0.6959 0.087,-1.5367 0.261,-2.5225 l 3.2183,-15.2219 c 0.7539,-3.47925 2.0296,-6.0597 3.8272,-7.74135 1.7977,-1.68165 4.6101,-2.52248 8.4373,-2.52248 h 36.6194 l -2.3485,11.22063 h -31.2266 c -0.9278,0 -1.5946,0.203 -2.0005,0.6089 -0.4059,0.4059 -0.7249,1.1308 -0.9568,2.1746 l -1.6527,7.7414 c -0.058,0.2319 -0.116,0.4349 -0.174,0.6088 v 0.5219 c 0,0.8699 0.6379,1.3048 1.9136,1.3048 h 23.5721 c 2.4355,0 4.1752,0.5219 5.219,1.5656 1.1017,1.0438 1.6526,2.4935 1.6526,4.3491 0,0.7539 -0.087,1.5657 -0.2609,2.4355 l -3.3923,16.0917 c -0.7539,3.4793 -2.0296,6.0597 -3.8272,7.7414 -1.7977,1.6817 -4.5811,2.5225 -8.3503,2.5225 z" />
      </g>
      <path
         sodipodi:nodetypes="ccccccccccccccccccccccccc"
         inkscape:connector-curvature="0"
         style="fill:#b3b3b3;fill-opacity:1;stroke:none;stroke-width:0.18736593px;stroke-linecap:butt;stroke-linejoin:miter;stroke-opacity:1"
         d="m -582.0887,4812.7448 -0.036,0.068 6.8155,1.0975 -7.6316,0.7817 -15.0434,26.5666 9.7759,0.096 5.5516,-10.0212 h 26.3476 l 0.782,10.4665 10.8965,-0.2195 -1.9287,-25.4369 -4.7274,-0.6499 4.5531,-0.832 -0.1541,-1.8377 h -9.9326 l 0.012,0.1725 6.7498,1.1341 -6.619,0.8415 0.6627,9.324 h -23.9333 l 0.3896,-0.057 -3.3458,-0.5483 4.119,-0.8917 5.3508,-9.9751 z"
         id="path12913"
         inkscape:export-xdpi="96"
         inkscape:export-ydpi="96" />
      <path
         sodipodi:nodetypes="cccccccccccccccccccc"
         inkscape:connector-curvature="0"
         style="fill:#b3b3b3;fill-opacity:1;stroke:none;stroke-width:0.18736593px;stroke-linecap:butt;stroke-linejoin:miter;stroke-opacity:1"
         d="m -523.8672,4812.8237 5.5207,0.9275 -4.2182,0.5361 c 0.7062,0.2833 1.2905,0.359 1.2905,0.359 h 26.0558 c 2.983,-0.074 4.273,0.7573 4.82,1.6009 l 4.7495,1.0286 -4.4094,0.7225 -2.4681,11.4158 c -1.1882,2.9353 -4.5636,3.041 -4.5543,3.0918 h -37.3162 l 0.9051,8.1212 40.7622,-0.073 c 8.4899,0.2927 10.0364,-9.2766 10.0364,-9.2766 0,0 3.1571,-14.6462 3.4158,-15.8365 0.046,-0.214 0.068,-0.4348 0.08,-0.6545 l -5.159,-0.8459 4.9837,-1.0788 c 0,0 -0.011,-0.038 -0.011,-0.038 z"
         id="path12915"
         inkscape:export-xdpi="96"
         inkscape:export-ydpi="96" />
      <path
         inkscape:connector-curvature="0"
         id="path12917"
         d="m -650.9296,4812.8009 -4.3553,19.3064 c 0,0 -2.457,8.5434 4.9697,8.6551 h 41.0417 l 6.292,-27.9615 h -22.5455 l -0.5922,2.4161 h 12.7137 l -3.9088,17.5046 h -23.0058 c 0,0 -5.5838,0.1116 -4.0483,-5.2769 l 3.2452,-14.6438 z"
         style="fill:#b3b3b3;fill-opacity:1;stroke:none;stroke-width:0.28589645px;stroke-linecap:butt;stroke-linejoin:miter;stroke-opacity:1"
         inkscape:export-xdpi="96"
         inkscape:export-ydpi="96" />
      <path
         style="fill:#ececec;fill-opacity:1;stroke:none;stroke-width:0.09227204px;stroke-linecap:butt;stroke-linejoin:miter;stroke-opacity:1"
         d="m -652.1674,4814.6001 6.7725,-0.8609 -6.1751,-1.037 z"
         id="path12919"
         inkscape:connector-curvature="0"
         inkscape:export-xdpi="96"
         inkscape:export-ydpi="96" />
      <path
         inkscape:connector-curvature="0"
         id="path12921"
         d="m -639.6302,4815.1811 -4.7193,-0.5999 4.303,-0.7226 z"
         style="fill:#ececec;fill-opacity:1;stroke:none;stroke-width:0.06429835px;stroke-linecap:butt;stroke-linejoin:miter;stroke-opacity:1"
         inkscape:export-xdpi="96"
         inkscape:export-ydpi="96" />
      <path
         inkscape:connector-curvature="0"
         id="path12923"
         d="m -627.0204,4814.1893 6.7725,-0.8609 -6.1752,-1.037 z"
         style="fill:#ececec;fill-opacity:1;stroke:none;stroke-width:0.09227204px;stroke-linecap:butt;stroke-linejoin:miter;stroke-opacity:1"
         inkscape:export-xdpi="96"
         inkscape:export-ydpi="96" />
      <path
         style="fill:#ececec;fill-opacity:1;stroke:none;stroke-width:0.06429835px;stroke-linecap:butt;stroke-linejoin:miter;stroke-opacity:1"
         d="m -601.4728,4813.9047 -4.7192,-0.5999 4.303,-0.7226 z"
         id="path12925"
         inkscape:connector-curvature="0"
         inkscape:export-xdpi="96"
         inkscape:export-ydpi="96" />
      <path
         style="fill:#ececec;fill-opacity:1;stroke:none;stroke-width:0.09227204px;stroke-linecap:butt;stroke-linejoin:miter;stroke-opacity:1"
         d="m -602.0852,4815.8871 -6.7725,-0.8609 6.1752,-1.037 z"
         id="path12927"
         inkscape:connector-curvature="0"
         inkscape:export-xdpi="96"
         inkscape:export-ydpi="96" />
      <path
         inkscape:connector-curvature="0"
         d="m -535.6141,4913.1572 c -2.7497,0 -4.7445,-0.4852 -5.9842,-1.4557 -1.1863,-0.9705 -1.7794,-2.4531 -1.7794,-4.4478 0,-1.0245 0.1618,-2.2377 0.4853,-3.6396 l 7.5209,-35.6652 c 0.7011,-3.235 1.8873,-5.6344 3.5588,-7.1981 1.6713,-1.5633 4.2593,-2.3449 7.764,-2.3449 h 33.8049 l -2.2643,10.9179 h -28.4677 c -1.0782,0 -1.833,0.1887 -2.2644,0.5662 -0.3773,0.3772 -0.7009,1.1859 -0.9706,2.426 l -5.9036,27.9016 c -0.108,0.5392 -0.162,0.8896 -0.162,1.0512 0,0.5391 0.1617,0.9165 0.4852,1.1323 0.3235,0.1617 0.8896,0.2425 1.6983,0.2425 h 17.5496 l 2.669,-12.4545 h -10.8374 l 1.8602,-8.8152 h 22.3213 l -6.7126,31.7833 z m -26.2129,0 -20.7039,-35.9078 -7.6019,35.9078 h -11.4031 l 11.5648,-54.7513 h 11.5649 l 17.954,32.6729 6.8744,-32.6729 h 11.484 l -11.565,54.7513 z m -61.1832,0 11.5647,-54.7513 h 12.2927 l -11.5648,54.7513 z m -53.8672,0 8.5725,-40.6795 h 12.2931 l -1.8603,8.8154 h 17.1452 c 1.1861,0 1.9949,-0.1887 2.4264,-0.5662 0.4852,-0.3774 0.8356,-1.0244 1.0511,-1.9409 l 1.375,-6.6317 c 0.1618,-0.5391 0.2427,-1.0244 0.2427,-1.4557 0,-0.647 -0.1887,-1.0783 -0.566,-1.294 -0.3775,-0.2695 -1.0246,-0.4043 -1.9412,-0.4043 h -29.3569 l 2.1835,-10.5944 h 34.8564 c 2.8036,0 4.8255,0.5122 6.0656,1.5365 1.24,0.9703 1.86,2.48 1.86,4.529 0,0.4851 -0.054,0.9973 -0.1621,1.5366 -0.053,0.5392 -0.1335,1.1053 -0.2424,1.6983 l -2.1835,10.271 c -0.4852,2.2644 -1.3479,3.9358 -2.588,5.0141 -1.2402,1.0243 -2.8038,1.6443 -4.6908,1.8601 1.5637,0.1617 2.8307,0.566 3.8011,1.2129 1.0244,0.6472 1.5366,1.6986 1.5366,3.1543 0,0.2695 -0.026,0.539 -0.079,0.8086 0,0.2697 -0.027,0.5394 -0.082,0.8089 l -2.7495,13.0205 c -0.6471,3.127 -1.8333,5.4724 -3.5587,7.0362 -1.6712,1.5095 -4.2322,2.2643 -7.683,2.2643 z m 37.2019,-21.1079 c 0.053,-0.2697 0.079,-0.5123 0.079,-0.7279 0.053,-0.2158 0.079,-0.4046 0.079,-0.5663 0,-0.7008 -0.2157,-1.159 -0.6471,-1.3747 -0.4313,-0.2156 -1.1052,-0.3234 -2.0216,-0.3234 h -17.3069 l -2.8309,13.3441 h 17.3069 c 1.2401,0 2.1028,-0.1887 2.5881,-0.5662 0.5391,-0.4313 0.9434,-1.294 1.213,-2.5879 z m -56.3322,21.1079 7.0361,-33.2389 -20.2995,33.2389 h -9.6238 l -6.5507,-33.2389 -7.0363,33.2389 h -10.1897 l 11.5648,-54.7513 h 13.2632 l 7.1171,38.0913 23.6151,-38.0913 h 12.778 l -11.5652,54.7513 z m -91.9355,0 c -2.8037,0 -4.7985,-0.4852 -5.9844,-1.4557 -1.1863,-0.9705 -1.7794,-2.4801 -1.7794,-4.529 0,-0.539 0.026,-1.105 0.079,-1.6981 0.053,-0.5931 0.1606,-1.2132 0.3237,-1.8603 l 9.543,-45.2082 h 12.2928 l -8.6535,40.922 c -0.1617,0.6469 -0.2426,1.1321 -0.2426,1.4556 0,0.5932 0.1886,0.9976 0.5658,1.2132 0.3777,0.1617 0.9978,0.2426 1.8603,0.2426 h 16.1749 c 1.0783,0 1.8601,-0.1617 2.3452,-0.4852 0.4851,-0.3775 0.8626,-1.1862 1.1324,-2.4262 l 8.6534,-40.922 h 11.8073 l -9.5429,45.2082 c -0.701,3.2349 -1.9141,5.6342 -3.6394,7.1977 -1.6713,1.5636 -4.2324,2.3454 -7.6831,2.3454 z m -16.8,0 h -36.0964 l 11.5648,-54.7513 h 12.2928 l -9.2193,43.6715 h 24.4236 z m -71.2574,-17.6303 -3.7203,17.6303 h -12.2929 l 8.4917,-40.0325 h 12.2928 l -2.6687,12.4548 h 16.9026 c 1.0244,0 1.7253,-0.2157 2.1028,-0.6471 0.4313,-0.4314 0.7817,-1.2671 1.0512,-2.5072 l 2.3456,-10.756 c 0.108,-0.5392 0.162,-0.9167 0.162,-1.1325 0,-0.5931 -0.1887,-0.9704 -0.5662,-1.1321 -0.3235,-0.2157 -0.8626,-0.3235 -1.6173,-0.3235 h -29.1955 l 2.2645,-10.6752 h 34.2903 c 2.7498,0 4.7178,0.4852 5.9039,1.4556 1.1861,0.9705 1.7792,2.4802 1.7792,4.529 0,0.5391 -0.054,1.1051 -0.162,1.6981 -0.053,0.5392 -0.1335,1.1593 -0.2426,1.8603 l -3.8012,18.0347 c -0.701,3.2351 -1.8872,5.6344 -3.5586,7.1979 -1.6713,1.5636 -4.2593,2.3454 -7.7639,2.3454 z m -52.678,17.6303 c -2.6418,0 -4.7715,-0.2426 -6.389,-0.7277 -1.6175,-0.5392 -2.6148,-1.5367 -2.9921,-2.9926 -0.8089,1.402 -1.9143,2.3726 -3.3161,2.9117 -1.3477,0.5391 -2.8573,0.8086 -4.5288,0.8086 h -13.5867 c -2.7497,0 -4.7176,-0.4852 -5.9035,-1.4557 -1.1862,-0.9705 -1.7793,-2.4801 -1.7793,-4.529 0,-0.8628 0.1348,-1.9681 0.4043,-3.3158 l 2.9115,-13.7486 c 0.4313,-2.0486 1.3478,-3.5043 2.7496,-4.3671 1.4558,-0.9165 3.1272,-1.4556 5.0143,-1.6173 -1.5637,-0.1619 -2.7769,-0.5932 -3.6397,-1.294 -0.8625,-0.7549 -1.2938,-1.9141 -1.2938,-3.4777 0,-0.593 0.081,-1.2939 0.2426,-2.1026 l 2.022,-9.5431 c 0.6468,-3.127 1.8598,-5.4455 3.6391,-6.9555 1.8332,-1.5633 4.4481,-2.3449 7.8446,-2.3449 h 25.9605 l -2.0217,9.543 h -21.5124 c -1.0244,0 -1.7793,0.2426 -2.2647,0.7278 -0.4313,0.4314 -0.7816,1.2401 -1.0511,2.4262 l -1.6175,7.5213 c -0.053,0.2155 -0.1067,0.4043 -0.162,0.5663 v 0.4851 c 0,0.5932 0.1617,0.9976 0.4851,1.2131 0.3773,0.1617 0.9704,0.2425 1.7793,0.2425 h 13.4248 l 1.2132,-5.7421 h 9.7048 l -1.2131,5.7421 h 10.4327 l -1.7792,8.2492 h -10.4326 l -2.1837,10.3518 c -0.1619,0.5931 -0.2428,1.0783 -0.2428,1.4557 0,0.647 0.2157,1.0783 0.6471,1.294 0.4314,0.1617 1.1053,0.2426 2.0218,0.2426 h 6.8742 l -2.1836,10.4327 z m -7.3596,-23.7768 h -13.4249 c -1.0243,0 -1.779,0.2156 -2.2643,0.6469 -0.4313,0.3776 -0.7549,1.0516 -0.9706,2.022 l -1.6172,7.5213 c -0.1081,0.2694 -0.1622,0.539 -0.1622,0.8087 v 0.5659 c 0,1.1862 0.7548,1.7793 2.2645,1.7793 h 13.3441 z"
         style="font-style:italic;font-variant:normal;font-weight:normal;font-stretch:normal;font-size:34.50383759px;line-height:1.25;font-family:'Hemi Head';-inkscape-font-specification:'Hemi Head, Italic';font-variant-ligatures:normal;font-variant-caps:normal;font-variant-numeric:normal;font-feature-settings:normal;text-align:start;letter-spacing:0px;word-spacing:0px;writing-mode:lr-tb;text-anchor:start;fill:#e6e6e6;fill-opacity:1;stroke:none;stroke-width:2.0218401"
         id="path12929"
         inkscape:export-xdpi="96"
         inkscape:export-ydpi="96"
         sodipodi:nodetypes="scscccsccscccscsccccccsccccccccccccccccccccscccscsccscsccccccsccccscccscsccscccccccccccccccccscssccccscssccccccsscccccccccccccscccscsccscsccccscscccsscscccccscccsccsccccscsccccccccscsccscscccssscc" />
      <path
         style="fill:#000014;fill-opacity:1;stroke:none;stroke-width:0.26458332px;stroke-linecap:butt;stroke-linejoin:miter;stroke-opacity:1"
         d="m -942.4981,4848.3024 6.5773,-25.1402 19.8781,1.3155 -2.1923,28.3557 41.0718,-3.8002 293.851,2.6733 6.6146,-12.4023 12.1954,1.8603 -8.4749,15.7096 h -308.1327 l -7.162,20.9532 -12.7161,-10.0854 -1.9,-9.9391 -16.955,-3.8002 -12.5701,-0.4384 z"
         id="path12931"
         inkscape:connector-curvature="0"
         inkscape:export-xdpi="96"
         inkscape:export-ydpi="96" />
      <path
         style="fill:#b3b3b3;fill-opacity:1;stroke:none;stroke-width:0.26458332px;stroke-linecap:butt;stroke-linejoin:miter;stroke-opacity:1"
         d="m -956.7404,4886.1569 c -0.2423,0 -0.7181,0.031 -1.2753,0.1513 l 4.2638,0.6602 -6.6606,0.5693 c -0.4366,0.4435 -0.7925,1.0272 -0.9771,1.8 l -3.5018,16.0877 c 0,0 -1.1882,5.995 4.186,6.0468 h 15.3995 c 0,0 5.6327,-0.6723 7.3898,-5.2715 0,0 1.6537,5.3226 6.4596,5.3742 h 8.6299 l 1.602,-7.338 h -5.7877 c 0,0 -3.9272,0.052 -3.1525,-3.7724 l 2.5389,-12.4426 h 10.4873 l 0.2016,-0.6852 -6.0187,-0.5147 4.2904,-0.6635 h -37.901 c 0,0 -0.063,0 -0.1741,0 z m 7.117,1.2438 h 16.5161 l -3.983,16.8455 h -14.872 c -5.8465,0.037 -4.6405,-4.4948 -4.6405,-4.4948 l 2.0463,-9.6102 c 0.8406,-2.8135 4.9331,-2.7405 4.9331,-2.7405 z"
         id="path12933"
         inkscape:export-xdpi="96"
         inkscape:export-ydpi="96"
         inkscape:connector-curvature="0" />
      <path
         id="path12935"
         d="m -832.9091,4886.1606 h -3e-4 l 4.9591,0.8327 -5.2813,0.6714 -5.0434,23.612 31.9544,-0.056 1.6139,-5.9505 -3.6703,-0.6441 3.4882,-0.8204 h -23.7615 l 3.1079,-14.6231 -5.0762,-0.6455 5.4073,-0.908 0.3137,-1.4706 z"
         style="fill:#b3b3b3;fill-opacity:1;stroke:none;stroke-width:0.15427805px;stroke-linecap:butt;stroke-linejoin:miter;stroke-opacity:1"
         inkscape:connector-curvature="0"
         sodipodi:nodetypes="ccccccccccccccc"
         inkscape:export-xdpi="96"
         inkscape:export-ydpi="96" />
      <path
         style="fill:#b3b3b3;fill-opacity:1;stroke:none;stroke-width:0.26458332px;stroke-linecap:butt;stroke-linejoin:miter;stroke-opacity:1"
         d="m -884.0249,4886.1585 6.7349,1.3176 -7.3472,0.6435 -5.0649,23.5071 h 8.1907 l 3.8499,-18.0869 h 25.0114 c 5.1416,-0.2855 6.8776,-3.6983 7.4602,-5.7819 l -6.8453,-0.5996 5.1109,-0.9998 z"
         id="path12937"
         inkscape:export-xdpi="96"
         inkscape:export-ydpi="96"
         inkscape:connector-curvature="0" />
      <path
         style="fill:#b3b3b3;fill-opacity:1;stroke:none;stroke-width:0.26458332px;stroke-linecap:butt;stroke-linejoin:miter;stroke-opacity:1"
         d="m -788.8421,4886.1585 3.4252,1.3456 -4.0716,0.4549 -3.1925,14.7891 c 0,0 -1.9005,8.1854 3.5076,8.3312 h 29.6712 c 0,0 6.2121,-1.3152 7.3813,-7.308 l 3.1493,-15.4885 c -1.3552,-0.2103 -2.9191,-0.4733 -2.9191,-0.4733 l 3.1639,-0.7303 0.1873,-0.9207 h -5.8674 l 2.8535,0.6583 c 0,0 -1.9515,0.3283 -3.3713,0.5421 l -2.6773,13.0503 c 0,0 -0.5845,4.3852 -5.3348,4.0928 h -18.1972 c 0,0 -4.458,0.3654 -3.0695,-5.0427 l 2.6384,-12.0062 -3.085,-0.9671 3.3637,-0.2997 0.01,-0.028 z"
         id="path12939"
         inkscape:export-xdpi="96"
         inkscape:export-ydpi="96"
         inkscape:connector-curvature="0" />
      <path
         style="fill:#b3b3b3;fill-opacity:1;stroke:none;stroke-width:0.26458332px;stroke-linecap:butt;stroke-linejoin:miter;stroke-opacity:1"
         d="m -734.4174,4886.1585 2.8774,0.9168 -3.1994,0.559 -4.8844,23.6644 h 4.7588 l 5.5454,-25.1447 z"
         id="path12941"
         inkscape:export-xdpi="96"
         inkscape:export-ydpi="96"
         inkscape:connector-curvature="0" />
      <path
         style="fill:#b4b4b4;fill-opacity:1;stroke:none;stroke-width:0.26458332px;stroke-linecap:butt;stroke-linejoin:miter;stroke-opacity:1"
         d="m -721.4266,4886.1585 0.1215,0.6339 2.6307,0.8387 -2.39,0.4178 4.3879,22.8844 h 5.4086 l 14.8839,-23.9139 -2.694,-0.1029 3.144,-0.758 h -5.176 l -0.4712,0.7162 2.6421,0.6371 -3.1404,0.1204 -9.7006,14.7505 -3.1795,-15.0217 -2.9999,-0.5241 2.1294,-0.6784 z"
         id="path12943"
         inkscape:export-xdpi="96"
         inkscape:export-ydpi="96"
         inkscape:connector-curvature="0" />
      <path
         style="fill:#b3b3b3;fill-opacity:1;stroke:none;stroke-width:0.26458332px;stroke-linecap:butt;stroke-linejoin:miter;stroke-opacity:1"
         d="m -687.367,4886.1585 2.8363,0.644 -3.5004,0.3638 -4.9806,24.1324 h 4.7588 l 5.1636,-23.4141 -2.6206,-0.2722 2.822,-0.6409 0.1804,-0.8175 z"
         id="path12945"
         inkscape:export-xdpi="96"
         inkscape:export-ydpi="96"
         inkscape:connector-curvature="0" />
      <path
         style="fill:#b3b3b3;fill-opacity:1;stroke:none;stroke-width:0.26458332px;stroke-linecap:butt;stroke-linejoin:miter;stroke-opacity:1"
         d="m -668.19,4886.1585 3.1228,0.9168 -3.5904,0.3508 -5.2953,23.477 h 33.6931 c 0,0 6.0976,0.2072 7.2345,-5.3737 l 3.4107,-15.6067 c 0,0 0.2194,-1.2406 -0.5411,-2.2976 l -4.4772,-0.4377 2.6484,-0.7778 c -0.5326,-0.1575 -1.1808,-0.2511 -1.9708,-0.2511 z m 26.5316,1.1327 c 6.3217,-0.037 5.016,3.9751 5.016,3.9751 l -2.2223,10.1801 c -1.1885,4.1341 -5.5811,3.6173 -5.5811,3.6173 h -21.1873 l 3.824,-17.7244 z"
         id="path12947"
         inkscape:export-xdpi="96"
         inkscape:export-ydpi="96"
         inkscape:connector-curvature="0" />
      <path
         style="fill:#b3b3b3;fill-opacity:1;stroke:none;stroke-width:0.26458332px;stroke-linecap:butt;stroke-linejoin:miter;stroke-opacity:1"
         d="m -613.2435,4886.1585 2.6453,0.6003 -4.0642,0.4223 -5.2541,23.6058 h 6.9429 l 4.8114,-22.8383 -3.6152,-0.3757 3.8798,-0.8802 0.1127,-0.5342 z"
         id="path12949"
         inkscape:export-xdpi="96"
         inkscape:export-ydpi="96"
         inkscape:connector-curvature="0" />
      <path
         style="fill:#b3b3b3;fill-opacity:1;stroke:none;stroke-width:0.26458332px;stroke-linecap:butt;stroke-linejoin:miter;stroke-opacity:1"
         d="m -592.8309,4886.1585 4.3291,0.7001 -5.1686,0.735 -5.162,23.1933 h 6.9426 l 5.1888,-24.6284 z"
         id="path12951"
         inkscape:export-xdpi="96"
         inkscape:export-ydpi="96"
         inkscape:connector-curvature="0" />
      <path
         style="fill:#b3b3b3;fill-opacity:1;stroke:none;stroke-width:0.26458332px;stroke-linecap:butt;stroke-linejoin:miter;stroke-opacity:1"
         d="m -573.2769,4886.1585 3.9878,0.798 -3.6591,0.7072 13.0317,22.9769 h 3.873 l 5.4086,-24.4821 h -5.0731 l 2.8654,0.7001 -4.2436,0.3386 -2.5379,11.0199 -5.6906,-9.5808 -4.1728,-0.8067 3.3015,-0.6604 -0.6004,-1.0107 z"
         id="path12953"
         inkscape:export-xdpi="96"
         inkscape:export-ydpi="96"
         inkscape:connector-curvature="0" />
      <path
         style="fill:#b3b3b3;fill-opacity:1;stroke:none;stroke-width:0.26458332px;stroke-linecap:butt;stroke-linejoin:miter;stroke-opacity:1"
         d="m -535.5623,4886.1585 2.3505,0.4701 -3.0461,0.5893 -3.7074,16.4073 c 0,0 -2.5577,6.7236 3.9465,6.7236 h 31.7903 l 4.9559,-23.1047 -5.5687,-0.526 3.1708,-0.5596 h -11.1581 l 2.9441,0.5194 -5.3975,0.5101 -0.2011,0.8707 h 10.8164 l -3.5811,17.4665 h -21.1207 c 0,0 -4.8966,0.073 -3.2887,-5.4814 l 2.6199,-12.1407 -3.3182,-0.6418 3.6129,-0.7226 0.082,-0.3802 z"
         id="path12955"
         inkscape:export-xdpi="96"
         inkscape:export-ydpi="96"
         inkscape:connector-curvature="0" />
      <path
         inkscape:connector-curvature="0"
         id="path13509"
         d="m -910.95215,4855.4814 3.1006,22.5309 3.51398,2.2738 8.88836,-5.3745 5.78776,-18.3967 -8.26823,-5.5812 z"
         style="fill:#000014;fill-opacity:1;stroke:none;stroke-width:0.26458332px;stroke-linecap:butt;stroke-linejoin:miter;stroke-opacity:1" />
    </g>
  </g>
</svg>
